<?xml version="1.0" standalone="no"?>
<!DOCTYPE svg PUBLIC "-//W3C//DTD SVG 1.1//EN" "http://www.w3.org/Graphics/SVG/1.1/DTD/svg11.dtd" >
<svg>
<metadata>
Created by FontForge 20120731 at Sat Oct 11 18:55:30 2014

Copyright (c) 2011 by TypeTogether. All rights reserved.
</metadata>
<defs>
<font id="AbrilText-BoldItalic" horiz-adv-x="1200" >
  <font-face 
    font-family="Abril Text"
    font-weight="700"
    font-style="italic"
    font-stretch="normal"
    units-per-em="2000"
    panose-1="2 0 8 3 7 0 0 9 0 4"
    ascent="1560"
    descent="-440"
    x-height="1016"
    cap-height="1400"
    bbox="-440 -582 3950 2160"
    underline-thickness="124"
    underline-position="-80"
    unicode-range="U+000D-FB06"
  />
<missing-glyph horiz-adv-x="400" 
 />
    <glyph glyph-name="ij" unicode="ij" horiz-adv-x="1242" 
d="M526 190l56 -64q-52 -66 -124 -104t-156 -38q-96 0 -157 49.5t-61 156.5q0 64 50 282q15 70 46.5 197t41.5 173l-152 16l22 132l438 18l8 -20q-22 -101 -62.5 -278t-63.5 -284t-36 -178q-20 -108 56 -108q41 0 94 50zM376 1140q-82 0 -117 39t-35 99q0 89 59.5 144.5
t150.5 55.5q152 0 152 -140q0 -87 -60 -142.5t-150 -55.5zM492 -250l-86 -10q-6 -15 -6 -26q0 -46 76 -46q87 0 129.5 67t68.5 213l156 894l-152 20l24 130l432 16l8 -20l-156 -896q-91 -514 -524 -514q-126 0 -196 53t-70 139q0 77 49 125.5t131 48.5q61 0 95.5 -32
t34.5 -86q0 -37 -14 -76zM994 1140q-82 0 -117 39t-35 99q0 89 59.5 144.5t150.5 55.5q152 0 152 -140q0 -87 -60 -142.5t-150 -55.5z" />
    <glyph glyph-name="ff" unicode="ff" horiz-adv-x="1436" 
d="M906 1002l46 130l-6 10q-22 -16 -47 -21t-45 -5q-64 0 -89 32t-25 82q0 38 14 72l80 12q12 24 12 42q0 52 -80 52q-48 0 -81 -19t-55 -51t-36 -74t-24 -88l-36 -174h372zM870 850h-364l-144 -782q-44 -234 -165 -362t-345 -128q-144 0 -218 54t-74 138q0 76 47 126
t133 50t120 -55t2 -139l-88 -14q-10 -32 7 -51t71 -19q44 0 75 20t53 53t35 75t21 88l176 946h-152l30 152h152l10 48q48 230 174 348t330 118q122 0 190 -58t84 -136q66 102 160 163t226 61q74 0 128 -19t87 -50t49 -71t16 -80q0 -78 -47 -129t-133 -51q-64 0 -95 32
t-31 82q0 38 14 72l80 12q12 24 12 42q0 28 -23 40t-59 12q-42 0 -73 -18t-52 -48t-35 -71t-22 -87l-40 -212h284l-28 -152h-284l-156 -846q-18 -94 -57 -175t-106 -140t-162 -90t-223 -21v108q56 6 98 22t71 47t48 82t31 129z" />
    <glyph glyph-name="fi" unicode="fi" horiz-adv-x="1252" 
d="M1204 120q-50 -64 -121 -103t-159 -39q-44 0 -83 11t-69 35t-48 63t-18 97q0 38 14 114t36 168q10 48 23 100t25 103t24 98t20 83h-342l-144 -782q-44 -236 -163 -363t-337 -127q-152 0 -224 53t-72 137q0 82 48 128t130 46q86 0 120 -55t2 -139l-88 -10q-18 -38 4 -56
t64 -18q50 0 83 20t54 54t33 77t20 89l176 946h-152l30 152h152l6 50q34 234 173 364t377 130q82 0 143 -19t100 -50t58 -71t19 -80q0 -78 -47 -129t-133 -51q-64 0 -95 32t-31 82q0 38 14 72l80 12q8 28 1 46t-23 29t-40 15t-48 4q-50 0 -88 -18t-65 -48t-44 -71t-25 -87
l-40 -212h262l356 8l8 -20q-52 -232 -96 -430t-66 -318q-10 -58 4 -83t52 -25q42 0 94 50z" />
    <glyph glyph-name="fl" unicode="fl" horiz-adv-x="1312" 
d="M212 850h-152l30 152h152l6 50q34 234 165 364t345 130q124 0 189 -50t83 -116l246 124l18 -20q-12 -64 -33 -169l-46 -230t-51 -258t-48 -250t-40 -206t-24 -129q-10 -58 5 -83t51 -25q44 0 94 50l56 -64q-50 -64 -121 -103t-157 -39q-44 0 -84 11t-71 37t-49 66t-18 98
q0 70 24 187t56 289l66 358l84 166l-10 10q-22 -22 -52 -38t-68 -16q-64 0 -95 32t-31 82q0 38 14 72l80 12q12 24 12 42q0 28 -23 40t-59 12q-42 0 -73 -18t-52 -48t-35 -71t-22 -87l-40 -212h256l-28 -152h-256l-144 -782q-44 -234 -165 -362t-349 -128q-142 0 -214 52
t-72 136q0 82 48 131t132 49q86 0 120 -57t2 -141l-88 -10q-14 -36 5 -55t59 -19q52 0 86 20t56 54t34 77t20 89z" />
    <glyph glyph-name="f_k" unicode="fk" horiz-adv-x="1838" 
d="M1794 134q-54 -78 -131 -117t-167 -39q-116 0 -173 51t-57 133q0 16 2 35t8 39l30 106q6 20 6 40q0 36 -23 53t-63 17q-30 0 -67 -9t-59 -21l-70 -414q-22 0 -63 -2t-86 -5t-87 -8t-66 -11l100 444l94 598l66 166l-10 10q-22 -22 -52 -38t-68 -16q-64 0 -95 32t-31 82
q0 38 14 72l80 12q12 24 12 42q0 28 -23 40t-59 12q-42 0 -73 -18t-52 -48t-35 -71t-22 -87l-40 -212h256l-28 -152h-256l-144 -782q-44 -234 -165 -362t-351 -128q-140 0 -212 52t-72 136q0 76 47 124t133 48t120 -54t2 -138l-88 -10q-18 -38 3 -56t61 -18q52 0 86 21
t56 55t34 77t20 89l176 946h-152l30 152h152l6 50q34 234 165 364t345 130q124 0 189 -50t83 -116l246 124l18 -20l-174 -918l144 78q58 32 99 54t66 42t37 38t12 42l-78 32q0 76 39 131t133 55q80 0 117 -45t37 -103q0 -60 -36 -105t-114 -85q-80 -40 -151 -76t-155 -74
l6 -10q66 12 116 12q56 0 94 -12t61 -34t33 -52t10 -64q0 -32 -10 -78l-18 -74q-4 -14 -6 -25t-2 -21q0 -58 66 -58q32 0 60 21t50 45z" />
    <glyph glyph-name="f_b" unicode="fb" horiz-adv-x="1876" 
d="M1226 118q70 0 122 60t85 150t49 198t16 204q0 80 -21 121t-77 41q-58 0 -112 -56t-98 -143t-70 -194t-26 -209q0 -72 28 -122t104 -50zM1130 760q58 126 148 203t232 77q138 0 214 -98t76 -274q0 -136 -42 -259t-121 -215t-191 -146t-252 -54q-104 0 -177 27t-119 75
t-67 115t-21 147q0 92 14 186t32 190l56 290l76 166l-10 10q-22 -22 -52 -38t-68 -16q-64 0 -95 32t-31 82q0 38 14 72l80 12q12 24 12 42q0 28 -23 40t-59 12q-42 0 -73 -18t-52 -48t-35 -71t-22 -87l-40 -212h256l-28 -152h-256l-144 -782q-44 -234 -166 -362t-356 -128
q-136 0 -206 51t-70 135q0 74 47 123t133 49t120 -57t2 -141l-88 -10q-18 -38 6 -54t78 -16q44 0 74 21t49 56t31 79t20 90l176 946h-152l30 152h152l6 50q34 234 165 364t345 130q124 0 189 -50t83 -116l246 124l18 -20l-174 -718z" />
    <glyph glyph-name="f_h" unicode="fh" horiz-adv-x="1914" 
d="M1858 116q-48 -62 -119 -100t-165 -38q-42 0 -82 11t-70 35t-48 61t-18 89t12 114t30 130t41 141t45 149q8 28 13 51t5 43q0 58 -56 58q-42 0 -86 -37t-84 -97t-75 -134t-57 -148q-16 -54 -29 -105t-23 -103t-18 -108t-16 -122q-78 0 -157 -4t-161 -16l90 388l102 642
l56 174l-10 10q-22 -22 -52 -38t-68 -16q-64 0 -95 32t-31 82q0 38 14 72l80 12q12 24 12 42q0 28 -23 40t-59 12q-42 0 -73 -18t-52 -48t-35 -71t-22 -87l-40 -212h256l-28 -152h-256l-144 -782q-44 -236 -163 -363t-337 -127q-152 0 -223 51t-71 143q0 74 49 119t125 45
q86 0 120 -54t2 -138l-88 -10q-18 -38 4 -56t66 -18q50 0 83 21t54 55t33 78t20 90l176 946h-152l30 152h152l6 50q34 234 165 364t345 130q124 0 189 -50t83 -116l246 124l18 -20l-174 -820l12 -6q30 62 70 128t93 118t121 86t154 34q102 0 155 -58t53 -164q0 -32 -5 -68
t-15 -76q-32 -120 -57 -215t-47 -187q-4 -16 -6 -29t-2 -23q0 -62 58 -62q40 0 94 48z" />
    <glyph glyph-name="f_t" unicode="ft" horiz-adv-x="1420" 
d="M534 1002h348l26 150q-24 -6 -50 -6q-64 0 -95 32t-31 82q0 38 14 72l80 12q12 24 12 42q0 28 -23 40t-59 12q-42 0 -73 -18t-52 -48t-35 -71t-22 -87zM1364 162q-68 -94 -155 -139t-183 -45q-76 0 -128 19t-83 51t-45 73t-14 87q0 58 12 127t28 163l64 352h-354
l-144 -782q-44 -234 -164 -362t-342 -128q-148 0 -218 51t-70 135q0 76 47 123t129 47q86 0 120 -53t2 -137l-88 -10q-18 -38 4 -56t66 -18q50 0 82 21t53 55t33 78t20 90l176 946h-152l30 152h152l6 50q34 234 165 364t345 130q74 0 128 -18t87 -48t49 -69t16 -79
q0 -34 -13 -66t-31 -52l8 -10l132 88h96l-50 -290h210l-24 -152h-208q-30 -168 -55 -303t-45 -269q-18 -124 82 -124q40 0 77 23t77 63z" />
    <glyph glyph-name="f_j" unicode="fj" horiz-adv-x="1252" 
d="M212 850h-152l30 152h152l6 50q34 234 173 364t377 130q82 0 143 -19t100 -50t58 -71t19 -80q0 -78 -47 -129t-133 -51q-64 0 -95 32t-31 82q0 38 14 72l80 12q8 28 1 46t-23 29t-40 15t-48 4q-50 0 -88 -18t-65 -48t-44 -71t-25 -87l-40 -212h262l356 8l8 -20l-172 -898
q-22 -114 -57 -210t-99 -164t-164 -105t-252 -35l-6 108q72 8 119 31t77 62t47 93t29 120l166 858h-342l-144 -794q-42 -228 -165 -353t-345 -125q-144 0 -218 54t-74 138q0 76 47 126t133 50t120 -55t2 -139l-88 -14q-10 -32 7 -51t71 -19q44 0 75 20t53 53t35 75t21 88z
" />
    <glyph glyph-name="f_f_j" unicode="ffj" horiz-adv-x="1910" 
d="M908 1002l46 130l-6 10q-22 -16 -47 -21t-45 -5q-64 0 -90 32t-26 82q0 38 14 72l80 12q12 24 12 42q0 52 -80 52q-48 0 -81 -19t-55 -51t-36 -74t-24 -88l-36 -174h374zM1166 850l-156 -846q-18 -94 -57 -175t-106 -140t-162 -90t-223 -21v108q56 6 97 22t70 47t48 82
t33 129l162 884h-366l-144 -782q-44 -234 -165 -362t-345 -128q-144 0 -218 54t-74 138q0 76 47 126t133 50t120 -55t2 -139l-88 -14q-10 -32 7 -51t71 -19q44 0 75 20t53 53t35 75t21 88l176 946h-152l30 152h152l10 48q48 230 174 348t330 118q122 0 194 -58t88 -136
q66 102 174 163t252 61q78 0 137 -19t98 -50t58 -71t19 -80q0 -78 -47 -129t-133 -51q-64 0 -95 32t-31 82q0 38 14 72l80 12q8 28 1 46t-22 29t-37 15t-44 4q-98 0 -155 -65t-73 -159l-40 -212h272l356 8l8 -20l-172 -898q-22 -114 -57 -210t-99 -164t-164 -105t-252 -35
l-6 108q72 8 119 31t77 62t47 93t29 120l166 858h-352z" />
    <glyph glyph-name="ffi" unicode="ffi" horiz-adv-x="1922" 
d="M908 1002l46 130l-6 10q-22 -16 -47 -21t-45 -5q-64 0 -90 32t-26 82q0 38 14 72l80 12q12 24 12 42q0 52 -80 52q-48 0 -81 -19t-55 -51t-36 -74t-24 -88l-36 -174h374zM1166 850l-156 -846q-18 -94 -57 -175t-106 -140t-162 -90t-223 -21v108q56 6 97 22t70 47t48 82
t33 129l162 884h-366l-144 -782q-44 -234 -165 -362t-345 -128q-144 0 -218 54t-74 138q0 76 47 126t133 50t120 -55t2 -139l-88 -14q-10 -32 7 -51t71 -19q44 0 75 20t53 53t35 75t21 88l176 946h-152l30 152h152l10 48q48 230 174 348t330 118q122 0 194 -58t88 -136
q66 102 174 163t252 61q78 0 137 -19t98 -50t58 -71t19 -80q0 -78 -47 -129t-133 -51q-64 0 -95 32t-31 82q0 38 14 72l80 12q8 28 1 46t-22 29t-37 15t-44 4q-98 0 -155 -65t-73 -159l-40 -212h272l354 8l8 -18q-26 -114 -50 -224t-46 -207t-39 -179t-27 -140t4 -83t52 -25
q42 0 94 50l56 -64q-50 -64 -121 -103t-159 -39q-44 0 -83 11t-69 35t-48 63t-18 97q0 38 14 114t36 168q10 48 23 100t25 103t24 98t20 83h-350z" />
    <glyph glyph-name="ffl" unicode="ffl" horiz-adv-x="1974" 
d="M906 1002l46 130l-6 10q-22 -16 -47 -21t-45 -5q-64 0 -89 32t-25 82q0 38 14 72l80 12q12 24 12 42q0 52 -80 52q-48 0 -81 -19t-55 -51t-36 -74t-24 -88l-36 -174h372zM870 850h-364l-144 -782q-44 -234 -165 -362t-345 -128q-144 0 -218 54t-74 138q0 76 47 126
t133 50t120 -55t2 -139l-88 -14q-10 -32 7 -51t71 -19q44 0 75 20t53 53t35 75t21 88l176 946h-152l30 152h152l10 48q48 230 174 348t330 118q122 0 190 -58t84 -136q66 102 160 163t226 61q124 0 190 -50t82 -118l250 126l18 -20q-12 -64 -33 -169l-46 -230t-51 -258
t-48 -250t-40 -206t-24 -129q-10 -58 5 -83t51 -25q44 0 94 50l56 -64q-50 -64 -121 -103t-157 -39q-44 0 -84 11t-71 37t-49 66t-18 98q0 70 24 187t56 289l66 358l84 166l-10 8q-22 -22 -53 -36t-71 -14q-64 0 -95 31t-31 81q0 38 14 72l80 12q12 24 12 42q0 28 -23 40
t-59 12q-42 0 -73 -18t-52 -48t-35 -71t-22 -87l-40 -212h244l-28 -152h-244l-156 -846q-18 -94 -57 -175t-106 -140t-162 -90t-223 -21v108q56 6 98 22t71 47t48 82t31 129z" />
    <glyph glyph-name="f_f_k" unicode="ffk" horiz-adv-x="2502" 
d="M906 1002l46 130l-6 10q-22 -16 -47 -21t-45 -5q-64 0 -89 32t-25 82q0 38 14 72l80 12q12 24 12 42q0 52 -80 52q-48 0 -81 -19t-55 -51t-36 -74t-24 -88l-36 -174h372zM1642 1200q-22 -24 -54 -39t-72 -15q-64 0 -93 33t-29 83q0 38 14 72l76 10q12 24 12 42
q0 28 -23 40t-59 12q-42 0 -73 -18t-52 -48t-35 -71t-22 -87l-40 -212h260l-28 -152h-260l-156 -846q-18 -94 -57 -175t-106 -140t-162 -90t-223 -21v108q56 6 98 22t71 47t48 82t31 129l162 884h-364l-144 -782q-44 -234 -165 -362t-345 -128q-144 0 -218 54t-74 138
q0 76 47 126t133 50t120 -55t2 -139l-88 -14q-10 -32 7 -51t71 -19q44 0 75 20t53 53t35 75t21 88l176 946h-152l30 152h152l10 48q48 230 174 348t330 118q122 0 190 -58t84 -136q66 102 160 163t226 61q126 0 191 -51t81 -119l252 128l18 -20l-174 -918l144 78
q58 32 99 54t66 42t37 38t12 42l-78 32q0 76 39 131t133 55q80 0 117 -45t37 -103q0 -60 -36 -105t-114 -85q-80 -40 -151 -76t-155 -74l6 -10q66 12 116 12q56 0 94 -12t61 -34t33 -52t10 -64q0 -32 -10 -78l-18 -74q-4 -14 -6 -25t-2 -21q0 -58 66 -58q32 0 60 21t50 45
l64 -66q-54 -78 -131 -117t-167 -39q-116 0 -173 51t-57 133q0 16 2 35t8 39l30 106q6 20 6 40q0 36 -23 53t-63 17q-30 0 -67 -9t-59 -21l-70 -414q-22 0 -63 -2t-86 -5t-87 -8t-66 -11l100 444l100 598l60 166l-10 10v0z" />
    <glyph glyph-name="f_f_b" unicode="ffb" horiz-adv-x="2534" 
d="M906 1002l46 130l-6 10q-22 -16 -47 -21t-45 -5q-64 0 -89 32t-25 82q0 38 14 72l80 12q12 24 12 42q0 52 -80 52q-48 0 -81 -19t-55 -51t-36 -74t-24 -88l-36 -174h372zM1880 102q70 0 122 60t85 150t49 198t16 204q0 80 -21 121t-77 41q-58 0 -112 -56t-98 -143
t-70 -194t-26 -209q0 -72 28 -122t104 -50zM870 850h-364l-144 -782q-44 -234 -165 -362t-345 -128q-144 0 -218 54t-74 138q0 76 47 126t133 50t120 -55t2 -139l-88 -14q-10 -32 7 -51t71 -19q44 0 75 20t53 53t35 75t21 88l176 946h-152l30 152h152l10 48q48 230 174 348
t330 118q122 0 190 -58t84 -136q66 102 160 163t226 61q124 0 190 -50t82 -118l246 126l18 -20l-178 -734l10 -6q58 126 148 203t232 77q138 0 214 -98t76 -274q0 -136 -42 -259t-121 -215t-191 -146t-252 -54q-104 0 -177 27t-118 75t-66 115t-21 147q0 92 12 186t32 190
l64 306l72 166l-10 8q-22 -22 -52 -37t-68 -15q-64 0 -95 32t-31 82q0 38 14 72l80 12q12 24 12 42q0 28 -23 40t-59 12q-42 0 -73 -18t-52 -48t-35 -71t-22 -87l-40 -212h256l-28 -152h-256l-156 -846q-18 -94 -57 -175t-106 -140t-162 -90t-223 -21v108q56 6 98 22t71 47
t48 82t31 129z" />
    <glyph glyph-name="f_f_h" unicode="ffh" horiz-adv-x="2576" 
d="M906 1002l46 130l-6 10q-22 -16 -47 -21t-45 -5q-64 0 -89 32t-25 82q0 38 14 72l80 12q12 24 12 42q0 52 -80 52q-48 0 -81 -19t-55 -51t-36 -74t-24 -88l-36 -174h372zM1640 1200q-22 -24 -53 -39t-71 -15q-64 0 -95 32t-31 82q0 38 14 72l80 12q12 24 12 42
q0 28 -23 40t-59 12q-42 0 -73 -18t-52 -48t-35 -71t-22 -87l-40 -212h260l-28 -152h-260l-156 -846q-18 -94 -57 -175t-106 -140t-162 -90t-223 -21v108q56 6 97 22t70 47t48 82t33 129l162 884h-364l-144 -782q-44 -234 -165 -362t-345 -128q-144 0 -218 54t-74 138
q0 76 47 126t133 50t120 -55t2 -139l-88 -14q-10 -32 7 -51t71 -19q44 0 75 20t53 53t35 75t21 88l176 946h-152l30 152h152l10 48q48 230 174 348t330 118q122 0 190 -58t84 -136q66 102 160 163t226 61q124 0 190 -51t82 -117l250 126l18 -20l-174 -820l12 -6
q30 62 70 128t93 118t121 86t154 34q102 0 155 -58t53 -164q0 -32 -5 -68t-15 -76q-32 -120 -57 -215t-47 -187q-4 -16 -6 -29t-2 -23q0 -62 58 -62q40 0 94 48l60 -74q-48 -62 -119 -100t-165 -38q-42 0 -82 11t-70 35t-48 61t-18 89t12 114t30 130t41 141t45 149
q8 28 13 51t5 43q0 58 -56 58q-42 0 -86 -37t-84 -97t-75 -134t-57 -148q-16 -54 -29 -105t-23 -103t-18 -108t-16 -122q-78 0 -157 -4t-161 -16l90 388l102 642l56 174l-10 10v0z" />
    <glyph glyph-name="f_f_t" unicode="fft" horiz-adv-x="2078" 
d="M906 1002l46 130l-6 10q-22 -16 -47 -21t-45 -5q-64 0 -89 32t-25 82q0 38 14 72l80 12q12 24 12 42q0 52 -80 52q-48 0 -81 -19t-55 -51t-36 -74t-24 -88l-36 -174h372zM1192 1002h350l26 152q-22 -8 -52 -8q-64 0 -95 32t-31 82q0 38 14 72l80 12q12 24 12 42
q0 28 -23 40t-59 12q-42 0 -73 -18t-52 -48t-35 -71t-22 -87zM870 850h-364l-144 -782q-44 -234 -165 -362t-345 -128q-144 0 -218 54t-74 138q0 76 47 126t133 50t120 -55t2 -139l-88 -14q-10 -32 7 -51t71 -19q44 0 75 20t53 53t35 75t21 88l176 946h-152l30 152h152
l10 48q48 230 174 348t330 118q122 0 190 -58t84 -136q66 102 160 163t226 61q74 0 128 -19t87 -50t49 -71t16 -80q0 -56 -44 -112l8 -10l132 88h96l-50 -290h210l-24 -152h-208q-30 -168 -55 -303t-45 -269q-18 -124 82 -124q40 0 77 23t77 63l70 -78q-68 -94 -155 -139
t-183 -45q-76 0 -128 19t-83 51t-45 73t-14 87q0 58 12 127t28 163l64 352h-354l-156 -846q-18 -94 -57 -175t-106 -140t-162 -90t-223 -21v108q56 6 98 22t71 47t48 82t31 129z" />
    <glyph glyph-name="f_iacute" unicode="f&#xed;" horiz-adv-x="1278" 
d="M1038 1096l-60 40l190 362l104 22q16 4 35 2t34 -11t25 -24t10 -37q0 -30 -16 -53t-44 -49zM1230 120q-50 -64 -121 -103t-159 -39q-44 0 -83 11t-69 35t-48 63t-18 97q0 38 14 114t36 168q10 48 23 100t25 103t23 98t19 83h-366l-144 -782q-44 -234 -165 -362t-351 -128
q-132 0 -204 49t-72 139q0 76 47 124t127 48q86 0 120 -53t2 -137l-88 -14q-18 -38 4 -54t66 -16q50 0 82 20t53 54t33 77t20 89l176 946h-152l30 152h148l18 106q36 212 149 325t273 113q74 0 127 -19t85 -50t47 -71t15 -80q0 -78 -47 -129t-133 -51q-64 0 -95 32t-31 82
q0 38 14 72l80 12q12 24 12 42q0 28 -23 40t-59 12q-70 0 -117 -61t-47 -207q0 -36 3 -78t11 -90h268l390 8l8 -20q-52 -232 -96 -430t-66 -318q-10 -58 4 -83t52 -25q42 0 94 50z" />
    <glyph glyph-name="t_t" unicode="tt" horiz-adv-x="1422" 
d="M1366 162q-68 -94 -155 -139t-183 -45q-76 0 -128 19t-83 51t-45 73t-14 87q0 58 12 127t28 163l64 352h-374q-30 -168 -55 -303t-45 -269q-18 -124 82 -124q40 0 77 23t77 63l70 -78q-68 -94 -155 -139t-183 -45q-76 0 -128 19t-83 51t-45 73t-14 87q0 58 12 127t28 163
l64 352h-144l24 152h142l44 250l208 40h96l-50 -290h374l44 250l208 40h96l-50 -290h210l-24 -152h-208q-30 -168 -55 -303t-45 -269q-18 -124 82 -124q40 0 77 23t77 63z" />
    <glyph glyph-name=".notdef" horiz-adv-x="400" 
 />
    <glyph glyph-name=".null" horiz-adv-x="0" 
 />
    <glyph glyph-name=".null" horiz-adv-x="0" 
 />
    <glyph glyph-name="uni00A0" unicode="&#xd;" horiz-adv-x="400" 
 />
    <glyph glyph-name="space" unicode=" " horiz-adv-x="400" 
 />
    <glyph glyph-name="quotedbl" unicode="&#x22;" horiz-adv-x="748" 
d="M516 1052l28 438q36 26 68 37t54 11q32 0 55 -15t23 -51q0 -28 -9 -57t-21 -61l-108 -302h-90zM220 1052l28 438q36 26 68 37t54 11q32 0 55 -15t23 -51q0 -28 -9 -57t-21 -61l-108 -302h-90z" />
    <glyph glyph-name="numbersign" unicode="#" horiz-adv-x="1222" 
d="M802 702h-304l-112 -326h308zM768 278l-94 -278h-104l94 278h-308l-94 -278h-106l92 278h-240l38 98h234l112 326h-240l34 100h234l84 260h108l-86 -260h306l84 260h104l-86 -260h242l-34 -100h-238l-108 -326h238l-32 -98h-234z" />
    <glyph glyph-name="ampersand" unicode="&#x26;" horiz-adv-x="1718" 
d="M1392 624q-8 -70 -28 -145t-56 -147t-91 -136t-133 -113t-181 -77t-235 -28q-126 0 -227 25t-173 73t-110 119t-38 161q0 92 31 160t87 116t133 79t171 53l2 6q-56 12 -104 34t-84 56t-57 83t-21 115q0 92 43 160t116 113t170 68t207 23q80 0 152 -16t128 -51t89 -89
t33 -130q0 -48 -14 -83t-38 -57t-55 -33t-63 -11q-72 0 -102 40t-30 86q0 24 7 47t17 39h90q12 24 12 44q0 40 -42 66t-126 26q-118 0 -193 -67t-75 -191q0 -82 23 -140t55 -94q32 12 65 19t53 7q30 0 57 -16t27 -54q0 -40 -33 -60t-65 -20q-40 0 -75 9t-61 25
q-88 -60 -134 -137t-46 -191q0 -134 77 -201t221 -67q114 0 200 37t146 102t97 153t53 188l-176 -26q-40 -6 -53 -26t-23 -70l-82 2q6 158 44 233t124 91q32 6 94 15t130 20t129 21t93 16q28 6 42 23t20 67l80 -2q4 -138 -34 -221t-124 -99z" />
    <glyph glyph-name="asterisk" unicode="*" horiz-adv-x="1004" 
d="M618 1100l8 -314q-36 -26 -69 -37t-59 -11q-34 0 -54 20t-20 48q0 24 9 45t23 49l102 202l-268 -228q-34 14 -67 42t-33 72q0 50 36 71t88 37l230 66l-308 72q-4 28 1 60t19 59t36 45t52 18q34 0 52 -15t46 -43l134 -146l-8 316q38 26 71 37t57 11q34 0 55 -16t21 -44
q0 -26 -11 -55t-27 -63l-96 -188l182 146q30 28 59 44t59 16q38 0 54 -24t16 -60q0 -24 -5 -48t-15 -48l-340 -74l218 -68q32 -10 60 -26t28 -52q0 -26 -13 -48t-34 -39t-47 -31t-50 -24z" />
    <glyph glyph-name="comma" unicode="," horiz-adv-x="568" 
d="M-20 -272q30 22 71 53t78 69t63 78t26 80q0 42 -32 52l-84 -78q-34 12 -64 47t-30 89q0 86 58 136t146 50q90 0 133 -55t43 -141q0 -72 -29 -136t-79 -121t-114 -108t-132 -95z" />
    <glyph glyph-name="hyphen" unicode="-" horiz-adv-x="684" 
d="M90 490l32 168h466l-30 -168h-468z" />
    <glyph glyph-name="period" unicode="." horiz-adv-x="544" 
d="M162 -20q-42 0 -71 13t-47 33t-26 46t-8 54q0 48 17 87t46 66t67 42t80 15q70 0 112 -35t42 -105q0 -48 -17 -88t-46 -69t-68 -44t-81 -15z" />
    <glyph glyph-name="colon" unicode=":" horiz-adv-x="548" 
d="M286 642q-42 0 -71 13t-47 33t-26 46t-8 54q0 48 17 87t46 66t67 42t80 15q70 0 112 -35t42 -105q0 -48 -17 -88t-46 -69t-68 -44t-81 -15zM162 -20q-42 0 -71 13t-47 33t-26 46t-8 54q0 48 17 87t46 66t67 42t80 15q70 0 112 -35t42 -105q0 -48 -17 -88t-46 -69t-68 -44
t-81 -15z" />
    <glyph glyph-name="semicolon" unicode=";" horiz-adv-x="566" 
d="M294 642q-42 0 -71 13t-47 33t-25 46t-7 54q0 48 17 87t46 66t67 42t80 15q68 0 110 -35t42 -105q0 -48 -17 -88t-46 -69t-68 -44t-81 -15zM-20 -272q30 22 71 53t78 69t63 78t26 80q0 42 -32 52l-84 -78q-34 12 -64 47t-30 89q0 86 58 136t146 50q90 0 133 -55t43 -141
q0 -72 -29 -136t-79 -121t-114 -108t-132 -95z" />
    <glyph glyph-name="question" unicode="?" horiz-adv-x="1070" 
d="M878 616q-26 -110 -112 -182t-230 -72q-158 0 -236 72t-78 184q0 98 42 159t106 98t138 61t138 51t106 64t42 103q0 72 -49 111t-137 39q-100 0 -149 -35t-33 -87h66q14 -80 -21 -137t-125 -57q-72 0 -104 43t-32 95q0 76 43 131t107 90t141 52t143 17q100 0 173 -24
t121 -65t71 -95t23 -112q0 -108 -44 -173t-109 -105t-141 -64t-141 -47t-109 -54t-44 -87q0 -54 33 -79t91 -25q74 0 118 46t68 116zM424 -20q-70 0 -98 39t-28 85q0 72 50 121t126 49q58 0 93 -29t35 -87q0 -76 -49 -127t-129 -51z" />
    <glyph glyph-name="exclam" unicode="!" horiz-adv-x="766" 
d="M256 -20q-70 0 -98 39t-28 85q0 72 50 121t126 49q56 0 91 -29t35 -87q0 -76 -49 -127t-127 -51zM260 370l20 116q16 102 29 208t13 232q0 90 -5 166t-1 130q4 86 51 139t149 53q40 0 67 -14t42 -37t21 -52t4 -57q-4 -72 -32 -141t-66 -154t-78 -199t-68 -276l-20 -114
h-126z" />
    <glyph glyph-name="exclamdown" unicode="&#xa1;" horiz-adv-x="766" 
d="M428 708q-56 0 -91 29t-35 85q0 76 49 128t127 52q70 0 98 -39t28 -85q0 -74 -50 -122t-126 -48zM348 612h126l-20 -116q-22 -120 -29 -212t-9 -168q-4 -108 1 -193t1 -147q-4 -88 -52 -149t-148 -61q-40 0 -67 12t-43 33t-22 48t-4 55q2 72 31 143t67 160t79 204t69 277
z" />
    <glyph glyph-name="questiondown" unicode="&#xbf;" horiz-adv-x="1052" 
d="M552 -200q-14 80 22 137t126 57q72 0 104 -44t32 -96q0 -76 -43 -130t-107 -89t-141 -52t-143 -17q-100 0 -173 24t-121 65t-71 94t-23 111q0 108 44 174t109 106t141 64t141 47t109 53t44 86q0 54 -33 80t-91 26q-76 0 -120 -46t-66 -116l-124 32q24 110 111 182t231 72
q158 0 235 -72t77 -184q0 -100 -42 -160t-106 -98t-137 -62t-137 -50t-106 -64t-42 -104q0 -70 48 -109t138 -39q100 0 149 34t31 88h-66zM570 708q-56 0 -91 29t-35 85q0 76 49 128t127 52q70 0 98 -39t28 -85q0 -74 -50 -122t-126 -48z" />
    <glyph glyph-name="at" unicode="@" horiz-adv-x="1732" 
d="M1042 634q-24 24 -54 38t-68 14q-72 0 -124 -47t-86 -115t-50 -145t-16 -135q0 -64 23 -100t73 -36q70 0 116 53t72 131zM1284 -194q-52 -42 -117 -74t-135 -54t-143 -33t-141 -11q-144 0 -263 39t-206 115t-135 187t-48 257q0 196 66 363t185 289t286 191t369 69
q132 0 242 -34t190 -101t124 -166t44 -229q0 -136 -39 -251t-104 -199t-149 -131t-174 -47q-60 0 -99 13t-64 33t-37 44t-16 48q-38 -48 -103 -91t-167 -43q-116 0 -171 71t-55 181q0 94 32 193t94 180t150 133t200 52q70 0 110 -21t68 -53l44 60h172l-130 -374
q-28 -84 -44 -139t-20 -99q-4 -52 17 -75t71 -23q56 0 112 41t102 113t75 168t29 208q0 220 -129 339t-397 119q-174 0 -318 -66t-248 -178t-161 -262t-57 -320q0 -138 45 -237t122 -163t180 -94t221 -30q152 0 268 44t208 112z" />
    <glyph glyph-name="A" unicode="A" horiz-adv-x="1388" 
d="M700 1026h-4l-254 -476h334zM656 0l26 152l140 16l-30 226h-424l-114 -226l132 -16l-26 -152h-448l26 152l122 16l662 1234h226l216 -1234l128 -16l-26 -152h-610z" />
    <glyph glyph-name="B" unicode="B" horiz-adv-x="1218" 
d="M586 796q56 0 107 17t89 52t60 87t22 124q0 90 -50 126t-146 36h-36l-76 -442h30zM494 162q60 0 117 13t100 46t69 89t26 142q0 108 -55 153t-161 45h-60l-82 -488h46zM-32 0l26 152l138 14l186 1068l-134 12l26 154h498q108 0 194 -14t148 -49t95 -95t33 -150
q0 -130 -98 -222t-270 -126v-6q64 -10 122 -32t101 -60t69 -91t26 -123q0 -126 -58 -209t-153 -132t-215 -70t-244 -21h-490z" />
    <glyph glyph-name="C" unicode="C" horiz-adv-x="1290" 
d="M1210 446q-40 -144 -109 -235t-153 -143t-172 -71t-162 -19q-120 0 -220 32t-172 99t-112 172t-40 251q0 200 62 364t165 281t238 181t281 64q72 0 124 -13t87 -28t57 -27t38 -12q22 0 36 17t30 45h122l-68 -464h-146q-4 78 -18 138t-42 102t-74 64t-114 22
q-86 0 -152 -36t-115 -97t-83 -139t-54 -162t-29 -168t-9 -154q0 -186 68 -274t210 -88q134 0 227 75t157 257z" />
    <glyph glyph-name="D" unicode="D" horiz-adv-x="1436" 
d="M494 164q140 0 243 56t172 152t103 224t34 270q0 114 -27 186t-78 113t-122 55t-157 14h-30l-186 -1070h48zM-32 0l26 154l138 14l186 1066l-136 12l28 154h508q146 0 268 -28t208 -91t134 -166t48 -253q0 -198 -64 -357t-184 -271t-294 -173t-394 -61h-472z" />
    <glyph glyph-name="E" unicode="E" horiz-adv-x="1270" 
d="M-20 0l24 150l128 16l186 1066l-124 16l28 152h1038l-62 -438h-140q-4 86 -20 140t-53 84t-97 41t-150 11h-108l-78 -456h48q48 0 83 11t62 36t49 67t44 104h112l-104 -592h-116q2 74 -4 120t-25 72t-52 34t-83 8h-38l-82 -476h102q110 0 185 16t128 55t90 103t69 162
h144l-102 -502h-1082z" />
    <glyph glyph-name="F" unicode="F" 
d="M-20 0l24 152l128 14l186 1066l-124 16l28 152h1040l-64 -458h-144q-2 92 -18 149t-51 90t-91 45t-140 12h-124l-82 -476h48q94 0 146 50t92 174h114l-102 -592h-118q2 74 -5 119t-25 69t-51 32t-83 8h-40l-78 -454l192 -16l-26 -152h-632z" />
    <glyph glyph-name="G" unicode="G" horiz-adv-x="1396" 
d="M1228 498l-64 -356q-96 -70 -240 -117t-314 -47q-116 0 -215 31t-171 97t-113 169t-41 247q0 194 59 359t163 285t242 188t298 68q68 0 118 -12t86 -26t62 -26t48 -12t36 15t28 43h132l-68 -464h-144q-10 178 -75 252t-201 74q-88 0 -156 -37t-118 -98t-83 -141t-53 -164
t-29 -166t-9 -150q0 -172 63 -267t207 -95q122 0 200 44l52 304l-158 16l26 152h582l-26 -152z" />
    <glyph glyph-name="H" unicode="H" horiz-adv-x="1512" 
d="M758 0l26 152l126 16l80 454h-464l-80 -454l124 -16l-28 -152h-562l26 152l128 16l184 1064l-122 14l28 154h562l-28 -152l-126 -14l-76 -438h464l76 436l-124 14l28 154h564l-28 -152l-126 -14l-186 -1066l124 -16l-26 -152h-564z" />
    <glyph glyph-name="I" unicode="I" horiz-adv-x="734" 
d="M-18 0l24 152l128 14l184 1066l-122 14l28 154h562l-28 -152l-126 -14l-186 -1066l124 -16l-26 -152h-562z" />
    <glyph glyph-name="J" unicode="J" horiz-adv-x="1034" 
d="M646 1234l-158 14l28 152h594l-26 -152l-124 -12l-138 -794q-22 -124 -70 -212t-117 -144t-155 -82t-184 -26q-84 0 -145 20t-99 53t-56 75t-18 88q0 42 13 79t38 65t62 45t85 17q70 0 104 -35t34 -87q0 -50 -28 -100h-72q-12 -22 -12 -40q0 -26 25 -42t77 -16
q78 0 121 52t63 172z" />
    <glyph glyph-name="K" unicode="K" horiz-adv-x="1388" 
d="M690 0l26 150l122 14l-224 480l-90 -28l-78 -450l114 -14l-24 -152h-548l26 152l118 14l186 1068l-114 14l26 152h548l-28 -152l-118 -14l-82 -472l98 32l446 440l-124 14l28 152h424l-28 -152l-106 -14l-416 -410l320 -660l114 -14l-26 -150h-590z" />
    <glyph glyph-name="L" unicode="L" horiz-adv-x="1210" 
d="M-20 0l26 152l126 16l186 1062l-122 16l26 154h602l-28 -152l-166 -18l-184 -1064h84q88 0 157 15t123 55t96 112t78 186h144l-110 -534h-1038z" />
    <glyph glyph-name="M" unicode="M" horiz-adv-x="1784" 
d="M1034 0l26 154l144 14l168 972h-6l-538 -1140h-196l-146 1138h-8l-168 -970l128 -14l-24 -154h-420l26 154l112 14l186 1068l-108 12l26 152h534l110 -932h8l428 932h512l-26 -152l-120 -12l-186 -1068l122 -14l-26 -154h-558z" />
    <glyph glyph-name="N" unicode="N" horiz-adv-x="1448" 
d="M894 -14l-418 1154h-6l-164 -976l126 -12l-26 -152h-414l26 152l114 12l186 1068l-112 14l28 154h488l326 -942h8l134 774l-116 14l26 154h400l-26 -154l-114 -14l-216 -1246h-250z" />
    <glyph glyph-name="O" unicode="O" horiz-adv-x="1416" 
d="M590 -22q-250 0 -385 134t-135 414q0 158 49 318t147 288t245 209t343 81q252 0 379 -137t127 -409q0 -152 -46 -311t-140 -290t-239 -214t-345 -83zM614 124q78 0 140 40t109 107t80 154t54 179t30 184t9 170q0 158 -47 239t-169 81q-116 0 -196 -82t-131 -206t-74 -269
t-23 -273q0 -152 49 -238t169 -86z" />
    <glyph glyph-name="P" unicode="P" horiz-adv-x="1232" 
d="M578 712q150 0 242 82t92 252q0 56 -17 93t-47 58t-70 29t-88 8h-58l-90 -522h36zM-30 0l26 152l136 14l186 1068l-134 14l28 152h540q98 0 188 -15t159 -55t110 -108t41 -174q0 -134 -56 -228t-150 -154t-216 -87t-252 -27h-62l-66 -386l196 -14l-26 -152h-648z" />
    <glyph glyph-name="Q" unicode="Q" horiz-adv-x="1414" 
d="M614 124q78 0 140 40t109 107t80 154t54 179t30 184t9 170q0 158 -47 239t-169 81q-116 0 -196 -82t-131 -206t-74 -269t-23 -273q0 -152 49 -238t169 -86zM1502 -330q-20 -28 -51 -59t-73 -57t-93 -44t-111 -18q-64 0 -117 12t-99 42t-85 79t-75 123q-32 66 -55 106
t-52 66t-71 40t-110 26q-110 18 -192 58t-137 104t-83 158t-28 220q0 158 49 318t147 288t245 209t343 81q252 0 379 -137t127 -409q0 -130 -35 -267t-108 -257t-184 -211t-263 -129v-14q68 -10 119 -25t91 -39t73 -61t67 -91q24 -40 43 -66t37 -41t36 -20t42 -5q44 0 80 30
t66 64z" />
    <glyph glyph-name="Q.calt" horiz-adv-x="1418" 
d="M616 124q78 0 140 40t109 107t80 154t54 179t30 184t9 170q0 158 -47 239t-169 81q-116 0 -196 -82t-131 -206t-74 -269t-23 -273q0 -152 49 -238t169 -86zM244 -136q52 42 114 74t108 42l8 22q-194 28 -298 154t-104 370q0 158 49 318t147 288t245 209t343 81
q252 0 379 -137t127 -409q0 -148 -44 -301t-134 -279t-228 -209t-326 -91l-2 -12q44 -6 74 -25t51 -46t36 -58t27 -61q22 -50 41 -79t59 -29q38 0 62 26t46 92l100 -28q-36 -120 -108 -187t-206 -67q-74 0 -122 20t-80 53t-51 74t-33 83q-18 50 -37 73t-53 23q-28 0 -61 -16
t-79 -48l-50 80v0z" />
    <glyph glyph-name="R" unicode="R" horiz-adv-x="1346" 
d="M580 784q134 0 220 69t86 213q0 94 -54 130t-162 36h-38l-78 -448h26zM1276 128q-50 -64 -120 -107t-164 -43q-124 0 -179 65t-67 179l-24 230q-4 48 -12 84t-25 60t-46 36t-75 12h-34l-82 -474l132 -16l-26 -154h-586l26 154l138 16l184 1062l-132 16l26 152h488
q96 0 189 -10t168 -42t121 -92t46 -158q0 -94 -34 -160t-92 -110t-137 -68t-171 -30l-2 -8q62 -14 106 -35t72 -54t43 -79t23 -108l20 -176q4 -46 17 -78t59 -32q28 0 46 12t38 30z" />
    <glyph glyph-name="S" unicode="S" horiz-adv-x="1150" 
d="M-4 -20l66 470h150q4 -68 24 -125t57 -98t95 -64t140 -23q116 0 188 47t72 147q0 74 -46 117t-114 73t-149 59t-149 75t-114 119t-46 193q0 102 38 185t105 143t158 92t197 32q64 0 113 -13t85 -28t60 -28t40 -13q22 0 34 17t28 47h118l-60 -422h-150q-16 138 -73 212
t-187 74q-46 0 -88 -10t-74 -32t-51 -55t-19 -81q0 -70 44 -113t111 -74t145 -61t145 -76t111 -119t44 -189q0 -110 -42 -199t-112 -151t-162 -96t-192 -34q-78 0 -133 13t-94 30t-64 30t-45 13q-22 0 -36 -19t-36 -65h-132z" />
    <glyph glyph-name="T" unicode="T" horiz-adv-x="1332" 
d="M224 0l26 152l182 16l184 1066h-8q-72 0 -123 -12t-90 -46t-71 -95t-64 -157h-140l102 476h1160l-64 -476h-140q0 102 -11 164t-37 94t-72 42t-118 10h-8l-186 -1066l178 -16l-26 -152h-674z" />
    <glyph glyph-name="U" unicode="U" horiz-adv-x="1384" 
d="M1126 1232l-118 14l28 154h418l-28 -154l-112 -14l-136 -776q-20 -112 -61 -201t-109 -150t-165 -94t-227 -33q-102 0 -189 16t-151 56t-100 108t-36 170q0 30 4 68t12 84l132 754l-116 12l28 154h556l-26 -154l-130 -12l-126 -732q-6 -36 -10 -70t-4 -64q0 -90 48 -144
t172 -54q74 0 128 20t91 59t60 97t37 134z" />
    <glyph glyph-name="V" unicode="V" horiz-adv-x="1368" 
d="M462 0l-228 1232l-116 16l26 152h622l-28 -152l-150 -16l120 -856h4l434 856l-138 16l28 152h446l-28 -152l-116 -16l-644 -1232h-232z" />
    <glyph glyph-name="W" unicode="W" horiz-adv-x="1960" 
d="M1176 0l-148 786l-416 -786h-206l-190 1230l-100 18l28 152h576l-28 -152l-138 -18l110 -790h8l320 596l-42 194l-106 18l26 152h576l-26 -152l-140 -18l140 -778h8l354 778l-136 18l26 152h412l-28 -152l-110 -18l-558 -1230h-212z" />
    <glyph glyph-name="X" unicode="X" horiz-adv-x="1318" 
d="M572 0l26 154l132 14l-162 368l-288 -368l120 -14l-26 -154h-436l24 154l118 14l418 522l-252 540l-112 14l26 156h624l-28 -156l-146 -14l152 -356l290 356l-114 14l28 156h422l-26 -156l-112 -14l-418 -498l268 -564l108 -14l-26 -154h-610z" />
    <glyph glyph-name="Y" unicode="Y" horiz-adv-x="1248" 
d="M204 0l26 154l164 14l78 442l-240 620l-112 14l28 156h608l-26 -156l-146 -14l152 -440h2l306 440l-126 14l26 156h428l-26 -156l-116 -14l-446 -628l-76 -434l160 -14l-26 -154h-638z" />
    <glyph glyph-name="Z" unicode="Z" horiz-adv-x="1238" 
d="M-26 0l28 162l866 1066h-172q-80 0 -142 -8t-111 -38t-90 -91t-81 -167h-130l100 476h1016l-30 -172l-864 -1058h208q92 0 159 22t116 66t85 110t68 154h134l-112 -522h-1048z" />
    <glyph glyph-name="a" unicode="a" horiz-adv-x="1184" 
d="M1082 206l66 -66q-43 -67 -113 -111.5t-149 -44.5q-100 0 -151 48t-51 130q0 41 12 86l-10 2q-39 -114 -133 -193t-223 -79q-152 0 -231 95t-79 269q0 121 34.5 241t97 219t161.5 160.5t217 61.5q94 0 151.5 -42.5t82.5 -113.5l34 130q206 0 288 14q-108 -476 -150 -746
q-3 -28 -3.5 -54t14 -44t45.5 -18q38 0 90 56zM438 134q62 0 116.5 62.5t87.5 154.5t51.5 188.5t18.5 172.5q0 178 -126 178q-63 0 -115 -55.5t-82.5 -142t-46.5 -181.5t-16 -185q0 -99 24.5 -145.5t87.5 -46.5z" />
    <glyph glyph-name="b" unicode="b" horiz-adv-x="1150" 
d="M390 750l10 -6q62 135 154 207.5t226 72.5q137 0 213.5 -98.5t76.5 -273.5q0 -136 -42.5 -258.5t-119.5 -215t-192 -146.5t-252 -54q-102 0 -178 26.5t-122.5 74.5t-69 112t-22.5 143q0 46 5.5 98.5t12 88t18.5 100t18 97.5l110 620l-142 18l24 128l436 18l10 -18z
M486 102q71 0 127 59t88.5 152t49.5 196.5t17 204.5q0 83 -22 122.5t-76 39.5q-74 0 -148 -89.5t-121 -230.5t-47 -282q0 -172 132 -172z" />
    <glyph glyph-name="c" unicode="c" horiz-adv-x="984" 
d="M736 358l132 -46q-16 -47 -40.5 -90.5t-64.5 -89t-88.5 -79t-117.5 -54.5t-147 -21q-192 0 -291 101.5t-99 286.5q0 134 40.5 252.5t115 209t189.5 143.5t255 53q161 0 240.5 -72.5t79.5 -183.5q0 -90 -49.5 -151t-140.5 -61q-64 0 -99 32.5t-35 85.5q0 55 34 108h76
q12 30 12 54q0 66 -98 66q-84 0 -147.5 -54t-97.5 -139.5t-50.5 -174t-16.5 -174.5q0 -113 37.5 -166.5t122.5 -53.5q86 0 143.5 56.5t104.5 161.5z" />
    <glyph glyph-name="d" unicode="d" horiz-adv-x="1186" 
d="M1082 206l68 -70q-44 -69 -115.5 -111.5t-152.5 -42.5q-98 0 -147 46.5t-49 129.5q0 42 12 90l-10 2q-40 -117 -134 -194.5t-220 -77.5q-155 0 -234.5 94.5t-79.5 269.5q0 98 21 195t64.5 185t103.5 155.5t143.5 107t179.5 39.5q181 0 230 -150l84 464l-150 18l22 130
l434 14l8 -16l-222 -1214q-12 -60 -1 -91t53 -31q28 0 48 14t44 44zM434 134q64 0 119 63t88 156t51 190t18 175q0 83 -27.5 127.5t-94.5 44.5q-64 0 -115.5 -54t-82.5 -139.5t-47.5 -181.5t-16.5 -189q0 -98 23.5 -145t84.5 -47z" />
    <glyph glyph-name="e" unicode="e" horiz-adv-x="980" 
d="M750 364l128 -44q-51 -162 -175 -252t-295 -90q-188 0 -289 101.5t-101 286.5q0 127 41.5 245.5t116 210.5t187.5 147t247 55q147 0 228.5 -63.5t81.5 -182.5q0 -258 -364 -336q-121 -24 -234 -28v-38q0 -120 39.5 -176t128.5 -56q86 0 146 52t114 168zM342 550
q52 3 96 12q107 20 164.5 72t57.5 156q0 114 -88 114q-83 0 -144.5 -96.5t-85.5 -257.5z" />
    <glyph glyph-name="f" unicode="f" horiz-adv-x="778" 
d="M212 850h-152l30 152h152l6 50q34 234 165 364t345 130q74 0 128 -19t87 -50t49 -71t16 -80q0 -78 -47 -129t-133 -51q-64 0 -95 32t-31 82q0 38 14 72l80 12q12 24 12 42q0 28 -23 40t-59 12q-42 0 -73 -18t-52 -48t-35 -71t-22 -87l-40 -212h284l-28 -152h-284
l-144 -782q-44 -234 -165 -362t-345 -128q-144 0 -218 54t-74 138q0 76 47 126t133 50q66 0 101 -34t35 -88q0 -36 -14 -72l-88 -14q-2 -6 -3 -11t-1 -11q0 -22 19 -35t63 -13t75 20t53 53t35 75t21 88z" />
    <glyph glyph-name="f.calt" horiz-adv-x="776" 
d="M210 850h-152l30 152h152l6 50q34 234 165 364t345 130q74 0 128 -19t87 -50t49 -71t16 -80q0 -78 -47 -129t-133 -51q-64 0 -95 32t-31 82q0 38 14 72l80 12q12 24 12 42q0 28 -23 40t-59 12q-42 0 -73 -18t-52 -48t-35 -71t-22 -87l-40 -212h284l-28 -152h-284
l-156 -846q-18 -94 -57 -175t-106 -140t-162 -90t-223 -21v108q56 6 98 22t71 47t48 82t31 129z" />
    <glyph glyph-name="g" unicode="g" horiz-adv-x="1154" 
d="M442 174q64 0 114 57t85 139t53 176t18 166q0 86 -31 132t-93 46q-66 0 -115 -50t-81 -127t-47 -169t-15 -178q0 -94 22 -143t90 -49zM176 -236q-34 -82 108 -82q82 0 142 34t103 88t72 123t49 139q16 50 29 102t25 104l-12 6q-42 -114 -135 -187t-231 -73
q-154 0 -228 95t-74 269q0 120 33 235t97 205t158 146t214 56q106 0 162 -46t78 -110l34 130h68t78 2t77 5t65 7q-22 -96 -45 -214t-47 -241t-47 -240t-43 -213q-28 -138 -85 -237t-138 -164t-184 -95t-225 -30q-68 0 -125 13t-99 40t-65 68t-23 97q0 84 49 132t125 48
q32 0 61 -11t49 -35t28 -61t0 -89z" />
    <glyph glyph-name="h" unicode="h" horiz-adv-x="1204" 
d="M1150 122q-48 -62 -119 -100t-165 -38q-42 0 -82 11t-70 35t-48 61t-18 89q0 104 41 241t85 287q8 28 13 51t5 43q0 58 -56 58q-42 0 -86 -37t-84 -97t-75 -134t-57 -148q-16 -54 -29 -105t-23 -103t-18 -108t-16 -122q-78 0 -157 -4t-161 -16l90 388l156 964l-146 18
l24 148h430l8 -20l-182 -820l12 -6q30 62 70 128t93 118t121 86t154 34q102 0 155 -58t53 -164q0 -32 -5 -68t-15 -76q-32 -120 -56 -212t-46 -184q-4 -16 -6 -29t-2 -23q0 -62 58 -62q40 0 94 48z" />
    <glyph glyph-name="i" unicode="i" horiz-adv-x="630" 
d="M526 190l56 -64q-52 -66 -124 -104t-156 -38q-96 0 -157 49.5t-61 156.5q0 64 50 282q15 70 46.5 197t41.5 173l-152 16l22 132l438 18l8 -20q-22 -101 -62.5 -278t-63.5 -284t-36 -178q-20 -108 56 -108q41 0 94 50zM376 1140q-82 0 -117 39t-35 99q0 89 59.5 144.5
t150.5 55.5q152 0 152 -140q0 -87 -60 -142.5t-150 -55.5z" />
    <glyph glyph-name="j" unicode="j" horiz-adv-x="612" 
d="M-138 -250l-86 -10q-6 -15 -6 -26q0 -46 76 -46q87 0 129.5 67t68.5 213l156 894l-152 20l24 130l432 16l8 -20l-156 -896q-91 -514 -524 -514q-126 0 -196 53t-70 139q0 77 49 125.5t131 48.5q61 0 95.5 -32t34.5 -86q0 -37 -14 -76zM364 1140q-82 0 -117 39t-35 99
q0 89 59.5 144.5t150.5 55.5q152 0 152 -140q0 -87 -60 -142.5t-150 -55.5z" />
    <glyph glyph-name="j.calt" horiz-adv-x="612" 
d="M364 1140q-44 0 -74 12t-48 31t-25 44t-7 51q0 90 61 145t151 55q70 0 111 -33t41 -107q0 -90 -60 -144t-150 -54zM-222 -314q72 8 119 31t77 62t47 93t29 120l150 850l-152 16l24 130l432 20l8 -20l-156 -896q-20 -114 -55 -210t-99 -164t-165 -105t-253 -35z" />
    <glyph glyph-name="k" unicode="k" horiz-adv-x="1136" 
d="M1092 140q-54 -78 -131 -117t-167 -39q-116 0 -173 51t-57 133q0 16 2 35t8 39l30 100q6 20 6 40q0 36 -23 53t-63 17q-30 0 -67 -9t-59 -21l-70 -414q-22 0 -63 -2t-86 -5t-87 -8t-66 -11l100 444l146 916l-146 14l22 144h432l6 -16l-168 -918l144 78q58 32 99 54t66 42
t37 38t12 42l-78 32q0 76 39 131t133 55q80 0 117 -45t37 -103q0 -60 -36 -105t-114 -85q-80 -40 -151 -76t-155 -74l6 -10q66 12 116 12q56 0 94 -12t61 -34t33 -52t10 -64q0 -32 -10 -78l-18 -68q-4 -14 -6 -25t-2 -21q0 -58 66 -58q32 0 60 21t50 45z" />
    <glyph glyph-name="l" unicode="l" horiz-adv-x="640" 
d="M586 126q-50 -64 -121 -103t-157 -39q-44 0 -84 11t-71 37t-49 66t-18 98q0 70 23 184t57 286l138 672l-146 16l22 132l434 18l8 -20q-12 -64 -33 -169t-46 -229t-51 -256t-48 -248t-40 -205t-24 -129q-10 -58 5 -83t51 -25q44 0 94 50z" />
    <glyph glyph-name="m" unicode="m" horiz-adv-x="1726" 
d="M1670 122q-48 -62 -121 -100t-163 -38q-42 0 -82 11t-70 34t-48 60t-18 89q0 64 17 137t41 157l70 236q16 58 16 90q0 62 -56 62q-36 0 -72 -31t-69 -81t-62 -115t-53 -131q-42 -118 -71 -250t-45 -246q-70 2 -149 -4t-147 -14q20 84 46 186t50 203t45 189t33 144
q6 28 10 51t4 41q0 58 -48 58q-40 0 -81 -37t-80 -97t-72 -134t-55 -148q-16 -54 -29 -105t-23 -103t-19 -108t-17 -122q-24 0 -68 -1t-92 -4t-92 -7t-64 -8l90 388l64 470l-144 18l22 130l422 18l8 -20l-84 -332l12 -6q30 66 69 132t91 119t117 87t145 34q70 0 119 -37
t49 -127q0 -34 -8 -78t-28 -98l12 -6q80 180 171 263t215 83q106 0 159 -59t53 -165q0 -86 -28 -186t-58 -202q-20 -64 -33 -116t-13 -86q0 -62 58 -62q44 0 94 48z" />
    <glyph glyph-name="n" unicode="n" horiz-adv-x="1210" 
d="M1152 126q-48 -58 -117 -100t-163 -42q-42 0 -82 11t-70 35t-48 61t-18 89q0 74 23 166t53 194l50 168q16 58 16 92q0 28 -12 45t-44 17q-44 0 -88 -38t-84 -98t-73 -134t-55 -148q-16 -54 -29 -105t-23 -103t-19 -108t-17 -122q-24 0 -68 -1t-92 -4t-92 -7t-64 -8
l90 388l64 470l-144 18l22 130l430 18l8 -20l-88 -340l12 -6q30 62 69 130t93 123t122 91t154 36q102 0 155 -58t53 -162q0 -98 -30 -199t-60 -209q-16 -62 -29 -108t-13 -84q0 -64 60 -64q38 0 92 50z" />
    <glyph glyph-name="o" unicode="o" horiz-adv-x="1096" 
d="M452 100q78 0 138 84q65 88 99.5 241.5t34.5 282.5q0 196 -136 196q-67 0 -121 -61t-84.5 -155.5t-46.5 -195.5t-16 -194q0 -104 30.5 -151t101.5 -47zM424 -22q-406 0 -406 390q0 127 40.5 244.5t115 209.5t190.5 147t256 55q206 0 304 -102.5t98 -289.5
q0 -123 -39.5 -239t-113 -209t-189.5 -149.5t-256 -56.5z" />
    <glyph glyph-name="p" unicode="p" horiz-adv-x="1206" 
d="M556 104q68 0 119 59t84 149t49 197t16 205q0 80 -22 121t-76 41q-58 0 -112 -55t-96 -141t-67 -193t-25 -209q0 -34 6 -65t20 -55t39 -39t65 -15zM-132 -400l22 138l124 14l184 1092l-156 18l22 132l422 16l8 -20l-62 -266l10 -2q32 68 71 123t87 95t106 62t128 22
q140 0 216 -97t76 -261q0 -138 -41 -263t-112 -220t-166 -150t-205 -55q-106 0 -166 45t-80 111l-60 -378l236 -18l-22 -138h-642z" />
    <glyph glyph-name="q" unicode="q" horiz-adv-x="1146" 
d="M432 136q68 0 121 63t87 154t52 191t18 174q0 76 -27 124t-95 48q-66 0 -116 -55t-82 -138t-48 -182t-16 -189q0 -92 20 -141t86 -49zM380 -400l22 138l194 16l104 492l-12 2q-22 -50 -53 -99t-75 -87t-100 -61t-124 -23q-156 0 -236 94t-80 266q0 140 37 265t104 219
t161 148t206 54t170 -46t94 -126l138 150h150l-216 -1248l164 -16l-22 -138h-626z" />
    <glyph glyph-name="r" unicode="r" horiz-adv-x="1028" 
d="M130 412l64 430l-148 22l22 130l410 16l10 -22l-88 -382l12 -6q32 78 71 154t89 136t111 97t137 37q38 0 73 -10t62 -31t43 -57t16 -86q0 -96 -55 -140t-139 -44q-20 0 -38 3t-40 7l-8 134q-50 0 -95 -33t-84 -90t-73 -133t-60 -164q-14 -44 -24 -85t-17 -85t-14 -93
t-13 -107q-30 0 -72 -2t-87 -6t-88 -8t-73 -10z" />
    <glyph glyph-name="s" unicode="s" horiz-adv-x="928" 
d="M188 182q-6 -16 -6 -26q0 -34 43 -50t115 -16q212 0 212 148q0 60 -45 91t-109 53q-50 18 -100 38t-91 53t-66 81t-25 122q0 82 36 146t96 109t140 69t168 24q68 0 127 -13t104 -40t71 -68t26 -99q0 -68 -39 -113t-115 -45q-48 0 -84 25t-36 67q0 24 7 48t25 48h62
q18 46 -25 64t-111 18q-86 0 -148 -33t-62 -107q0 -30 17 -53t45 -41t65 -33t77 -29q48 -18 95 -39t84 -54t61 -80t24 -113q0 -90 -38 -156t-103 -111t-152 -67t-185 -22q-174 0 -261 65t-87 169q0 78 44 123t116 45q52 0 87 -31t35 -77q0 -42 -30 -90h-64z" />
    <glyph glyph-name="t" unicode="t" horiz-adv-x="750" 
d="M694 162q-68 -94 -155 -139t-183 -45q-76 0 -128 19t-83 51t-45 73t-14 87q0 58 12 127t28 163l64 352h-144l24 152h142l44 250l208 40h96l-50 -290h210l-24 -152h-208q-30 -168 -55 -303t-45 -269q-18 -124 82 -124q40 0 77 23t77 63z" />
    <glyph glyph-name="u" unicode="u" horiz-adv-x="1222" 
d="M1178 140q-40 -64 -109 -110t-153 -46q-100 0 -155 46t-55 144q0 26 5 59t23 95l-12 6q-28 -62 -64 -126t-86 -115t-116 -83t-152 -32q-118 0 -170 64t-52 166q0 22 3 46t7 48q22 122 53 267t59 277l-142 16l24 132l426 16l8 -18q-28 -110 -51 -213t-43 -193t-34 -165
t-24 -129q-10 -44 -10 -76q0 -30 13 -50t51 -20q42 0 84 35t80 92t71 131t57 154q16 56 29 106t23 102t18 108t16 122q24 0 68 1t93 4t92 7t65 8q-22 -100 -44 -201t-41 -200t-37 -190t-30 -169q-10 -50 -1 -78t57 -28q28 0 48 17t42 39z" />
    <glyph glyph-name="v" unicode="v" horiz-adv-x="1122" 
d="M760 700q-50 16 -81 54t-31 92q0 82 50 130t134 48q110 0 165 -73t55 -183q0 -70 -16 -156t-50 -174t-85 -170t-121 -147t-158 -104t-194 -39q-68 0 -124 15t-97 47t-64 82t-23 120q0 44 8 84q12 68 20 116t17 92t19 90t24 112q4 16 6 32t2 32q0 22 -8 37t-30 15
q-28 0 -50 -21t-54 -63l-86 60q34 58 74 96t83 60t88 31t87 9q94 0 150 -50t56 -146q0 -32 -6 -64q-12 -64 -22 -113t-20 -96t-20 -100t-24 -125q-12 -60 -12 -104q0 -48 21 -72t75 -24q70 0 136 57t118 141t83 180t31 174q0 36 -12 67t-56 31z" />
    <glyph glyph-name="w" unicode="w" horiz-adv-x="1686" 
d="M1324 698q-50 16 -84 59t-34 97q0 70 47 120t137 50q56 0 98 -20t70 -54t43 -80t15 -100q0 -76 -17 -163t-52 -175t-87 -170t-121 -145t-155 -101t-190 -38q-102 0 -179 33t-117 109q-54 -54 -131 -98t-191 -44q-54 0 -102 14t-83 45t-55 79t-20 114q0 20 2 42t6 44
q12 68 22 119t20 99t21 99t23 115q8 38 5 71t-35 33q-30 0 -52 -20t-52 -64l-88 60q36 60 77 98t84 60t87 30t88 8q92 0 145 -47t53 -141q0 -16 -2 -34t-6 -36q-14 -68 -25 -121t-21 -102t-21 -100t-23 -117q-4 -24 -7 -46t-3 -40q0 -46 19 -71t65 -25q50 0 94 32t78 78
q38 162 79 350t75 388q24 0 65 1t86 4t85 8t62 9q-24 -98 -49 -197t-46 -192t-37 -177t-26 -154q-2 -14 -3 -27t-1 -23q0 -110 118 -110q72 0 139 57t118 140t82 178t31 173q0 36 -13 67t-51 31z" />
    <glyph glyph-name="x" unicode="x" horiz-adv-x="1272" 
d="M1142 188q-46 -112 -123 -161t-161 -49q-106 0 -168 46t-102 154l-54 142l-104 -158q-22 -34 -46 -67t-54 -59t-67 -42t-87 -16q-30 0 -61 8t-55 26t-39 48t-15 72q0 44 18 76t48 51t68 25t78 -4l14 -106q34 -14 63 13t69 89l120 182l-118 306q-16 46 -30 67t-40 21
t-46 -22t-46 -68l-96 52q66 120 141 165t159 45q54 0 91 -15t63 -42t44 -63t34 -78l58 -152l98 154q24 38 49 74t56 63t70 43t91 16q32 0 63 -8t56 -28t41 -51t16 -77q0 -76 -48 -114t-114 -38q-26 0 -52 6l-14 110q-34 18 -61 -5t-73 -91l-128 -188l112 -286q22 -52 39 -76
t49 -24q28 0 51 21t51 69z" />
    <glyph glyph-name="y" unicode="y" horiz-adv-x="1116" 
d="M68 -248q-28 -72 64 -72q90 0 171 78t171 206q-48 194 -96 379t-100 361q-18 64 -32 89t-42 25q-32 0 -49 -32t-45 -90l-102 46q20 56 46 105t61 85t82 57t113 21q88 0 142 -47t82 -149q44 -156 79 -290t73 -282q40 64 79 132t69 130t49 115t19 87q0 30 -13 51t-41 25
l-58 -74q-46 16 -72 57t-26 93q0 76 51 121t135 45q102 0 149 -63t47 -159q0 -68 -31 -154t-77 -176t-100 -178t-102 -162q-84 -130 -157 -233t-147 -174t-158 -109t-190 -38q-124 0 -191 54t-67 148q0 84 53 129t121 45q56 0 99 -30t43 -100q0 -28 -8 -58z" />
    <glyph glyph-name="z" unicode="z" horiz-adv-x="1084" 
d="M908 434l100 -16q-51 -237 -136 -338.5t-198 -101.5q-62 0 -109.5 16t-104.5 52l-186 114q-26 -94 -71 -138t-101 -44q-54 0 -81 31.5t-27 74.5q0 65 59 113.5t159 58.5l428 452q-235 26 -332 28q-57 1 -81.5 -24.5t-54.5 -109.5l-98 22q41 152 88.5 240.5t103.5 124
t134 35.5q55 0 102.5 -19.5t107.5 -58.5l162 -104q24 93 74 137.5t106 44.5q43 0 70.5 -27t27.5 -71q0 -59 -53.5 -109.5t-146.5 -66.5q-27 -31 -430 -462q173 -11 330 -14q60 -2 89.5 28t68.5 132z" />
    <glyph glyph-name="bracketleft" unicode="[" horiz-adv-x="700" 
d="M34 -310l326 1882h496l-20 -116h-110q-36 0 -59 -3t-38 -14t-23 -31t-14 -56l-250 -1440q-6 -38 -6 -59t11 -32t33 -13t58 -2h112l-20 -116h-496z" />
    <glyph glyph-name="bracketright" unicode="]" horiz-adv-x="700" 
d="M-132 -310l20 116h110q36 0 59 3t38 14t23 31t14 56l250 1440q6 38 6 59t-11 32t-33 13t-58 2h-112l20 116h496l-326 -1882h-496z" />
    <glyph glyph-name="parenleft" unicode="(" horiz-adv-x="684" 
d="M490 -252l-80 -52q-63 75 -112 148t-96 166.5t-72.5 201.5t-25.5 222q0 143 33.5 276t87.5 240.5t140.5 219.5t172 198.5t202.5 191.5l64 -48q-203 -275 -304.5 -559.5t-101.5 -636.5q0 -295 92 -568z" />
    <glyph glyph-name="parenright" unicode=")" horiz-adv-x="684" 
d="M-36 -302l-64 48q201 276 302.5 561.5t101.5 640.5q0 289 -90 562l80 52q63 -75 111.5 -148t95 -166.5t72 -201.5t25.5 -222q0 -143 -33.5 -276.5t-87 -241t-140.5 -219t-171.5 -198t-201.5 -191.5z" />
    <glyph glyph-name="braceleft" unicode="{" horiz-adv-x="784" 
d="M604 -284q-22 -10 -69 -20t-139 -10q-136 0 -203 58t-67 150q0 72 22 143t49 142t50 138t23 131q0 44 -15 70t-38 39t-51 18t-56 5l20 118q40 0 81 8t74 41t54 98t21 179q0 42 -2 92t-2 90q0 78 19 142t64 110t118 72t181 26q62 0 100 -9t60 -19l-44 -104q-16 6 -37 11
t-47 5q-24 0 -47 -7t-40 -29t-28 -61t-11 -101v-150q0 -136 -22 -218t-60 -128t-88 -68t-106 -36q32 -12 64 -26t58 -36t41 -57t15 -85q0 -64 -21 -139t-47 -148t-47 -140t-21 -115q0 -56 28 -74t68 -18q48 0 88 18z" />
    <glyph glyph-name="braceright" unicode="}" horiz-adv-x="784" 
d="M196 1526q22 10 69 20t139 10q136 0 203 -58t67 -150q0 -72 -23 -143t-50 -142t-49 -139t-22 -130q0 -44 15 -70t38 -40t51 -18t56 -4l-20 -118q-40 0 -82 -8t-76 -41t-55 -98t-21 -179q0 -42 2 -92t2 -90q0 -78 -19 -142t-64 -110t-118 -72t-181 -26q-62 0 -100 9
t-60 19l44 104q16 -6 37 -11t47 -5q24 0 47 7t40 29t28 60t11 102v150q0 136 23 218t62 128t89 67t106 37q-34 12 -65 26t-57 36t-41 56t-15 86q0 64 21 139t47 148t47 140t21 115q0 56 -28 74t-68 18q-50 0 -88 -18z" />
    <glyph glyph-name="backslash" unicode="\" horiz-adv-x="796" 
d="M494 -194l-294 1784h148l298 -1784h-152z" />
    <glyph glyph-name="slash" unicode="/" horiz-adv-x="794" 
d="M-104 -194l898 1784h146l-898 -1784h-146z" />
    <glyph glyph-name="brokenbar" unicode="&#xa6;" horiz-adv-x="650" 
d="M108 -254l152 874h144l-150 -874h-146zM296 824l134 766h144l-134 -766h-144z" />
    <glyph glyph-name="bar" unicode="|" horiz-adv-x="650" 
d="M108 -254l322 1844h144l-320 -1844h-146z" />
    <glyph glyph-name="asciicircum" unicode="^" horiz-adv-x="1120" 
d="M898 556l-352 634l-326 -636l-100 46l378 728h98l404 -728z" />
    <glyph glyph-name="underscore" unicode="_" horiz-adv-x="1012" 
d="M6 -212v74h1000v-74h-1000z" />
    <glyph glyph-name="asciitilde" unicode="~" horiz-adv-x="1144" 
d="M1056 792q-46 -148 -104 -206t-132 -58q-70 0 -138 15t-132 31q-50 10 -101 22t-97 12q-36 0 -65 -17t-65 -77l-64 24q48 134 110 196t144 62q64 0 120 -13t114 -27q58 -16 112 -25t112 -9q42 0 65 18t53 70z" />
    <glyph glyph-name="zero" unicode="0" horiz-adv-x="1196" 
d="M510 110q56 0 101 31t79 82t58 118t39 137t22 140t7 128q0 116 -39 170t-121 54q-84 0 -143 -64t-97 -159t-56 -201t-18 -190q0 -128 40 -187t128 -59zM482 -22q-228 0 -342 113t-114 319q0 144 45 271t130 222t207 149t278 54q92 0 173 -23t141 -75t95 -134t35 -202
q0 -156 -49 -284t-135 -219t-205 -141t-259 -50z" />
    <glyph glyph-name="one" unicode="1" horiz-adv-x="904" 
d="M44 0l22 150l224 20l98 596q-26 -8 -67 -8t-84 3t-80 8t-57 11l28 140q152 -12 259 34t175 130h180l-152 -916l190 -18l-24 -150h-712z" />
    <glyph glyph-name="two" unicode="2" horiz-adv-x="1080" 
d="M8 0l30 184q192 108 309 196t180 163t83 141t20 130q0 80 -35 128t-119 48q-62 0 -108 -29t-46 -81q0 -14 6 -32h76q2 -12 3 -24t1 -22q0 -74 -41 -121t-137 -47q-66 0 -100 44t-34 108q0 76 36 135t99 100t149 63t186 22q108 0 182 -25t120 -67t66 -95t20 -109
q0 -92 -38 -164t-109 -133t-174 -117t-233 -116l-88 -38l-2 -8h246q70 0 116 12t77 35t51 58t36 81h116l-74 -420h-870z" />
    <glyph glyph-name="three" unicode="3" horiz-adv-x="1040" 
d="M150 -84q-20 -28 -20 -56t29 -48t103 -20q146 0 236 97t90 263q0 120 -44 169t-116 49q-50 0 -102 -13t-104 -33l-16 106q86 28 162 63t133 82t90 110t33 147q0 156 -148 156q-62 0 -109 -23t-47 -73q0 -8 4 -28h70q2 -12 3 -24t1 -22q0 -72 -41 -118t-131 -46
q-66 0 -100 42t-34 96q0 72 36 130t100 99t152 63t194 22q186 0 274 -71t88 -191q0 -76 -33 -132t-92 -100t-142 -80t-183 -68l-2 -10q34 6 62 8t56 2q86 0 146 -24t96 -64t52 -93t16 -113q0 -120 -57 -212t-149 -154t-207 -93t-231 -31q-174 0 -258 64t-84 182q0 84 47 145
t143 61q74 0 104 -36t30 -84t-22 -96h-78v0z" />
    <glyph glyph-name="four" unicode="4" horiz-adv-x="1142" 
d="M474 -298l58 340h-558l26 186q170 162 281 283t176 209t91 152t26 112q0 32 -6 56t-18 48l82 64q48 -4 91 -15t77 -34t54 -57t20 -82q0 -52 -20 -97t-83 -110t-179 -162t-308 -251l-144 -116h420l38 252l316 72l-58 -324h176l-26 -186h-180l-56 -340h-296z" />
    <glyph glyph-name="five" unicode="5" horiz-adv-x="1006" 
d="M142 -84q-22 -28 -22 -58t30 -49t100 -19q80 0 139 39t98 104t58 147t19 166q0 172 -146 172q-66 0 -126 -27t-124 -71l-74 32l188 712l42 28q82 -30 170 -49t172 -19q100 0 174 32t100 116l78 -10q-18 -206 -136 -302t-328 -96q-52 0 -105 8t-105 22l-98 -314
q46 28 122 59t188 31q174 0 254 -86t80 -220q0 -140 -53 -248t-143 -182t-208 -113t-246 -39q-162 0 -241 68t-79 170q0 42 11 80t35 67t61 47t87 18q70 0 99 -33t29 -81q0 -24 -7 -50t-17 -52h-76z" />
    <glyph glyph-name="six" unicode="6" horiz-adv-x="1086" 
d="M876 908q-64 0 -94 30t-30 78q0 46 24 98l84 8q6 18 6 32q0 34 -31 50t-81 16q-134 0 -239 -137t-157 -423q46 58 132 104t200 46q64 0 121 -16t99 -54t67 -98t25 -146q0 -124 -44 -220t-119 -162t-175 -101t-210 -35q-90 0 -165 24t-131 78t-87 140t-31 208
q0 146 41 305t128 293t221 221t320 87q144 0 224 -60t80 -174q0 -86 -47 -139t-131 -53zM462 104q54 0 98 29t76 79t49 118t17 146q0 90 -31 138t-101 48q-62 0 -114 -33t-82 -85q-28 -48 -40 -112t-12 -136q0 -86 30 -139t110 -53z" />
    <glyph glyph-name="seven" unicode="7" horiz-adv-x="1032" 
d="M448 -296q-132 -10 -206 49t-74 149q0 36 9 73t35 88t73 122t125 171h-220l32 116h278q76 102 148 183t146 159h-392q-54 0 -88 -6t-57 -24t-41 -52t-40 -90h-108l116 458l62 22q28 -16 72 -27t130 -11h604l26 -86q-42 -40 -96 -103t-111 -136t-110 -148t-93 -139h224
l-34 -116h-252q-70 -124 -105 -217t-35 -177q0 -98 46 -176z" />
    <glyph glyph-name="eight" unicode="8" horiz-adv-x="1136" 
d="M594 746q52 0 89 30t60 77t34 103t11 108q0 80 -28 114t-88 34q-54 0 -91 -31t-61 -78t-34 -103t-10 -106q0 -148 118 -148zM486 96q100 0 164 87t64 249q0 96 -37 139t-107 43q-100 0 -166 -91t-66 -253q0 -82 35 -128t113 -46zM700 676q150 -16 236 -90t86 -196
q0 -104 -44 -182t-120 -129t-178 -76t-218 -25q-204 0 -320 77t-116 243q0 154 116 258t322 120l2 6q-132 8 -209 76t-77 192q0 78 36 148t103 122t162 82t213 30q194 0 296 -74t102 -226q0 -66 -28 -126t-80 -107t-124 -78t-158 -39z" />
    <glyph glyph-name="nine" unicode="9" horiz-adv-x="1086" 
d="M182 -98q-8 -16 -13 -28t-5 -24q0 -30 30 -44t78 -14q142 0 251 151t151 431q-46 -66 -126 -109t-184 -43q-62 0 -121 19t-104 60t-73 106t-28 155q0 134 43 236t118 170t174 103t211 35q96 0 172 -27t129 -85t82 -149t29 -217q0 -96 -16 -203t-52 -213t-92 -202
t-135 -170t-183 -118t-234 -44q-84 0 -144 18t-97 50t-55 75t-18 93q0 92 50 147t134 55q68 0 98 -36t30 -84t-26 -94h-74zM460 368q114 0 188 109t74 305q0 98 -33 148t-109 50q-68 0 -115 -41t-76 -104t-42 -140t-13 -149q0 -88 29 -133t97 -45z" />
    <glyph glyph-name="dollar" unicode="$" horiz-adv-x="1004" 
d="M564 974q-32 4 -68 -1t-67 -22t-51 -46t-20 -73q0 -56 33 -87t97 -53zM412 114q36 -4 76 2t75 24t58 50t23 80q0 58 -42 87t-108 51l-82 -294v0zM240 -154l48 164q-36 12 -60 26t-40 14q-18 0 -31 -14t-29 -50h-118l52 364h128q4 -78 35 -137t99 -81l84 300
q-66 20 -118 45t-90 61t-58 85t-20 115q0 78 30 145t86 116t133 77t173 28q14 0 32 -1t30 -3l42 150l90 -10l-50 -166q28 -12 47 -22t33 -10q16 0 28 12t26 36h104l-48 -328h-128q-8 70 -30 119t-68 71l-78 -286q56 -20 110 -42t96 -56t68 -86t26 -130q0 -84 -34 -152
t-92 -118t-136 -77t-166 -27q-18 0 -38 1t-36 5l-42 -148z" />
    <glyph glyph-name="Euro" unicode="&#x20ac;" horiz-adv-x="1160" 
d="M784 196q-12 32 -10 65t18 60t45 43t71 16q60 0 91 -35t31 -91q0 -72 -36 -125t-94 -86t-132 -49t-150 -16q-90 0 -170 22t-141 70t-99 124t-44 184h-136l16 92h122q4 34 9 62t11 58h-112l16 92h120q30 96 83 174t125 134t162 86t194 30q84 0 145 -21t102 -55t61 -78
t20 -90q0 -70 -35 -119t-117 -49q-56 0 -85 29t-29 71q0 46 28 90h60q26 50 -10 72t-98 22q-64 0 -114 -24t-88 -64t-63 -94t-39 -114h296l-16 -92h-302q0 -6 -3 -24t-6 -37t-6 -36t-3 -23h278l-16 -92h-270q0 -48 12 -97t39 -89t70 -65t107 -25q28 0 58 5t53 17t35 30t6 42
h-60z" />
    <glyph glyph-name="cent" unicode="&#xa2;" horiz-adv-x="990" 
d="M650 882q-68 0 -119 -37t-86 -98t-52 -139t-17 -158q0 -94 29 -153t111 -59t131 49t89 129l128 -42q-46 -132 -153 -215t-257 -83q-42 0 -84 6l-80 -216l-98 26l80 214q-194 74 -194 332q0 122 35 225t102 179t166 120t227 48h2l74 196l100 -24l-70 -184q108 -26 160 -85
t52 -141q0 -40 -10 -77t-30 -65t-52 -45t-74 -17q-62 0 -92 31t-30 77q0 48 28 98h80q10 22 10 48q0 30 -32 45t-74 15z" />
    <glyph glyph-name="sterling" unicode="&#xa3;" horiz-adv-x="1170" 
d="M266 194q-58 26 -120 26q-36 0 -61 -15t-25 -55q0 -64 74 -64q46 0 82 31t50 77zM1070 372q-10 -108 -35 -183t-59 -122t-76 -68t-84 -21q-54 0 -115 19t-119 46t-111 56t-91 49q-38 -76 -105 -116t-151 -40q-94 0 -138 50t-44 120q0 60 22 104t58 73t80 42t88 13
q24 0 50 -3t50 -7q-6 98 -24 182h-198l18 108h160q-14 44 -22 89t-8 99q0 108 42 194t117 148t178 95t227 33q174 0 259 -73t85 -181q0 -90 -45 -144t-133 -54q-66 0 -99 33t-33 83q0 48 28 100h74q16 32 16 54q0 36 -31 53t-77 17q-66 0 -111 -22t-76 -62t-50 -96t-33 -124
l-46 -242h340l-18 -108h-340l-48 -216q58 -18 120 -43t117 -49t101 -40t74 -16q44 0 73 36t47 142z" />
    <glyph glyph-name="yen" unicode="&#xa5;" horiz-adv-x="1148" 
d="M146 0l24 152l164 14l24 138h-282l16 98h282l16 86l-30 60h-242l16 96h184l-124 272l-100 14l26 154h534l-24 -154l-112 -14l120 -296h8l232 296l-104 14l26 154h362l-24 -154l-106 -14l-210 -272h190l-16 -96h-250l-42 -56l-16 -90h282l-16 -98h-284l-22 -138l160 -14
l-26 -152h-636z" />
    <glyph glyph-name="florin" unicode="&#x192;" horiz-adv-x="1018" 
d="M324 676h-152l18 112h152l28 176q14 96 51 180t97 145t145 97t195 36q138 0 215 -64t77 -174q0 -66 -38 -115t-114 -49q-84 0 -122 51t-8 145l68 2q4 10 6 21t2 21q0 34 -23 51t-61 17q-46 0 -75 -21t-47 -56t-30 -82t-20 -101l-46 -280h258l-22 -112h-256l-118 -640
q-42 -230 -163 -344t-311 -114q-150 0 -227 64t-77 164q0 74 40 123t116 49q86 0 117 -51t9 -139l-70 -2q-14 -46 4 -79t80 -33q42 0 70 19t46 53t29 81t21 105z" />
    <glyph glyph-name="afii61352" unicode="&#x2116;" horiz-adv-x="1836" 
d="M1120 130l26 152h468l-26 -152h-468zM1414 478q64 0 98 70t34 166q0 106 -72 106q-40 0 -67 -24t-43 -59t-23 -76t-7 -75q0 -108 80 -108zM1394 366q-120 0 -179 58t-59 166q0 74 24 138t68 110t105 72t135 26q50 0 94 -13t76 -41t50 -73t18 -107q0 -88 -31 -152
t-79 -105t-107 -60t-115 -19zM726 -12l-306 774h-6l-100 -600l120 -12l-26 -150h-398l24 150l108 12l128 758l-102 12l24 152h434l238 -638h8l78 474l-104 12l26 152h378l-26 -152l-108 -12l-158 -932h-232z" />
    <glyph glyph-name="currency" unicode="&#xa4;" horiz-adv-x="1024" 
d="M502 366q82 0 120 57t38 135q0 82 -37 138t-125 56q-42 0 -71 -16t-47 -43t-26 -62t-8 -73q0 -40 6 -74t24 -61t48 -42t78 -15zM840 114l-176 150q-66 -42 -162 -42q-100 0 -168 40l-174 -146l-80 84l140 174q-24 40 -32 86t-8 98q0 46 8 87t32 81l-146 174l86 90
l170 -144q72 46 176 46q50 0 91 -9t79 -33l176 134l74 -84l-144 -168q22 -38 31 -80t9 -88q0 -100 -44 -182l144 -184z" />
    <glyph glyph-name="section" unicode="&#xa7;" horiz-adv-x="1174" 
d="M758 252q36 26 55 58t19 80q0 74 -54 128t-129 104t-152 104t-125 128q-28 -24 -45 -58t-17 -78q0 -80 52 -135t124 -104t148 -101t124 -126zM214 -96q-14 -28 -8 -49t25 -35t49 -21t64 -7q120 0 187 47t67 135q0 62 -37 106t-93 83t-120 78t-120 87t-93 112t-37 156
q0 108 63 193t173 153q-12 42 -12 92q0 92 39 165t103 122t149 75t177 26q80 0 140 -18t99 -50t59 -73t20 -87q0 -88 -42 -133t-116 -45q-56 0 -85 28t-29 72q0 22 5 41t15 39l64 4q14 26 10 47t-22 36t-46 22t-60 7q-128 0 -197 -49t-69 -129q0 -62 37 -108t93 -85t121 -77
t121 -87t93 -114t37 -155q0 -220 -238 -348q6 -20 10 -42t4 -48q0 -94 -39 -166t-103 -121t-149 -75t-177 -26q-80 0 -140 18t-99 50t-59 73t-20 87q0 88 41 135t117 47q56 0 85 -30t29 -74q0 -22 -5 -41t-15 -39z" />
    <glyph glyph-name="copyright" unicode="&#xa9;" horiz-adv-x="1528" 
d="M964 254q-8 20 -13 31t-15 11q-8 0 -22 -8t-37 -19t-55 -19t-78 -8q-70 0 -131 23t-107 71t-73 122t-27 176q0 96 30 169t78 122t111 75t129 26q42 0 71 -8t49 -19t32 -19t22 -8q12 0 17 10t13 34h62l6 -252h-70q-20 88 -60 128t-102 40q-86 0 -129 -71t-43 -227
q0 -144 40 -222t136 -78q66 0 106 39t62 131h70l-8 -250h-64zM750 52q126 0 226 41t171 116t108 182t37 237q0 136 -40 242t-112 179t-172 111t-218 38q-116 0 -215 -40t-172 -116t-114 -184t-41 -244q0 -128 37 -232t107 -177t171 -113t227 -40zM1388 640q0 -148 -47 -270
t-131 -209t-202 -135t-260 -48q-160 0 -279 49t-199 134t-120 201t-40 250q0 156 50 278t137 207t204 130t249 45q148 0 266 -45t201 -127t127 -199t44 -261z" />
    <glyph glyph-name="registered" unicode="&#xae;" horiz-adv-x="888" 
d="M472 988q50 0 68 16t18 50q0 38 -18 48t-66 10h-8v-124h6zM716 864q-4 -38 -20 -67t-66 -29q-82 0 -82 66v60q0 26 -12 38t-46 12h-24v-126l46 -6v-38h-178v38l44 6v294l-44 8l2 38h152q68 0 115 -16t47 -74q0 -50 -33 -71t-83 -25v-2q54 -4 77 -24t23 -68v-26
q0 -16 4 -24t20 -8q14 0 18 11t8 37zM510 652q134 0 210 82t78 220q-2 146 -82 225t-206 79q-130 0 -208 -83t-78 -227q0 -138 74 -217t212 -79zM876 960q0 -84 -27 -153t-76 -119t-117 -77t-148 -27q-90 0 -159 28t-115 76t-69 114t-23 144q0 88 30 158t79 119t116 75
t143 26q170 0 268 -99t98 -265z" />
    <glyph glyph-name="trademark" unicode="&#x2122;" horiz-adv-x="1842" 
d="M1486 556v68l74 12v568h-4l-190 -648h-116l-212 650h-2v-570l68 -12v-68h-222v68l64 12v580l-64 8v72h286l172 -542h4l160 542h292v-72l-78 -8v-580l78 -12v-68h-310zM328 556v72l100 10v580h-14q-40 0 -68 -5t-48 -21t-32 -49t-22 -89h-64l12 242h630l10 -242h-62
q-10 56 -24 89t-33 49t-48 21t-69 5h-14v-580l100 -10l2 -72h-356z" />
    <glyph glyph-name="ordfeminine" unicode="&#xaa;" horiz-adv-x="932" 
d="M432 680q46 0 80 43t55 103t31 123t10 103q0 126 -80 126q-48 0 -80 -43t-51 -103t-28 -126t-9 -110q0 -54 15 -85t57 -31zM962 678q-34 -50 -89 -81t-117 -31q-96 0 -134 50t-16 128l-8 2q-22 -72 -89 -126t-163 -54q-116 0 -174 65t-58 185q0 86 25 169t72 148t116 105
t157 40q76 0 114 -33t48 -69l24 84h58t68 1t66 3t52 6q-30 -132 -56 -246t-48 -246q-2 -12 -4 -26t1 -27t13 -21t28 -8t32 10t30 26z" />
    <glyph glyph-name="ordmasculine" unicode="&#xba;" horiz-adv-x="856" 
d="M432 566q-170 0 -240 71t-70 195q0 90 30 171t87 142t140 97t191 36q162 0 234 -72t72 -198q0 -84 -29 -164t-85 -142t-139 -99t-191 -37zM450 660q52 0 86 51t55 119t29 137t8 105q0 114 -82 114q-44 0 -77 -42t-54 -104t-32 -133t-11 -131q0 -64 19 -90t59 -26z" />
    <glyph glyph-name="guillemotleft" unicode="&#xab;" horiz-adv-x="998" 
d="M728 84l-252 256q-28 28 -39 50t-11 54t17 56t37 44l384 272l62 -78l-272 -296l154 -296zM356 84l-254 256q-28 28 -39 50t-11 54t17 56t37 44l384 272l62 -78l-272 -296l154 -296z" />
    <glyph glyph-name="guillemotright" unicode="&#xbb;" horiz-adv-x="1000" 
d="M474 84l-62 78l272 296l-154 296l80 62l252 -256q28 -28 39 -50t11 -54t-17 -56t-37 -44zM102 84l-64 78l274 296l-156 296l80 62l254 -256q28 -28 39 -50t11 -54t-17 -56t-37 -44z" />
    <glyph glyph-name="guilsinglleft" unicode="&#x2039;" horiz-adv-x="626" 
d="M356 84l-254 256q-28 28 -39 50t-11 54t17 56t37 44l384 272l62 -78l-272 -296l154 -296z" />
    <glyph glyph-name="guilsinglright" unicode="&#x203a;" horiz-adv-x="626" 
d="M102 84l-64 78l274 296l-156 296l80 62l254 -256q28 -28 39 -50t11 -54t-17 -56t-37 -44z" />
    <glyph glyph-name="quoteleft" unicode="&#x2018;" horiz-adv-x="496" 
d="M438 1256q26 -12 50 -43t24 -79q0 -70 -51 -111t-121 -41q-76 0 -112 49t-36 109q0 62 24 117t67 103t101 90t128 78l36 -78q-86 -48 -145 -103t-59 -109q0 -32 22 -46z" />
    <glyph glyph-name="quoteright" unicode="&#x2019;" horiz-adv-x="496" 
d="M170 964q86 48 145 103t59 109q0 32 -22 46l-72 -64q-26 12 -50 43t-24 79q0 70 51 111t121 41q76 0 112 -49t36 -109q0 -62 -24 -117t-67 -103t-102 -90t-127 -78z" />
    <glyph glyph-name="quotesinglbase" unicode="&#x201a;" horiz-adv-x="484" 
d="M-36 -234q86 48 146 103t60 109q0 32 -22 46l-72 -64q-26 12 -50 43t-24 79q0 70 51 111t121 41q76 0 112 -49t36 -109q0 -62 -24 -117t-67 -103t-102 -90t-127 -78z" />
    <glyph glyph-name="quotedblleft" unicode="&#x201c;" horiz-adv-x="876" 
d="M818 1256q26 -12 50 -43t24 -79q0 -70 -51 -111t-121 -41q-76 0 -112 49t-36 109q0 62 24 117t67 103t101 90t128 78l36 -78q-86 -48 -145 -103t-59 -109q0 -32 22 -46zM438 1256q26 -12 50 -43t24 -79q0 -70 -51 -111t-121 -41q-76 0 -112 49t-36 109q0 62 24 117
t67 103t101 90t128 78l36 -78q-86 -48 -145 -103t-59 -109q0 -32 22 -46z" />
    <glyph glyph-name="quotedblright" unicode="&#x201d;" horiz-adv-x="872" 
d="M546 964q86 48 145 103t59 109q0 32 -22 46l-72 -64q-26 12 -50 43t-24 79q0 70 52 111t122 41q76 0 111 -49t35 -109q0 -62 -24 -117t-67 -103t-101 -90t-126 -78zM170 964q86 48 145 103t59 109q0 32 -22 46l-72 -64q-26 12 -50 43t-24 79q0 70 51 111t121 41
q76 0 112 -49t36 -109q0 -62 -24 -117t-67 -103t-102 -90t-127 -78z" />
    <glyph glyph-name="quotedblbase" unicode="&#x201e;" horiz-adv-x="858" 
d="M338 -234q86 48 146 103t60 109q0 32 -22 46l-72 -64q-26 12 -50 43t-24 79q0 70 51 111t121 41q76 0 112 -49t36 -109q0 -62 -24 -117t-67 -103t-102 -90t-127 -78zM-36 -234q86 48 146 103t60 109q0 32 -22 46l-72 -64q-26 12 -50 43t-24 79q0 70 51 111t121 41
q76 0 112 -49t36 -109q0 -62 -24 -117t-67 -103t-102 -90t-127 -78z" />
    <glyph glyph-name="dagger" unicode="&#x2020;" horiz-adv-x="1034" 
d="M326 -240l80 504q16 108 13 211t-39 221l2 12q44 46 91 116t69 130q-38 -2 -72 -15t-67 -27t-65 -25t-62 -11q-40 0 -74 26t-34 78q0 66 42 96t88 30q36 0 66 -13t60 -29t62 -29t72 -15q2 10 2 20v20q0 64 -18 119t-18 107q0 60 38 104t114 44q52 0 75 -33t23 -73
q0 -46 -18 -81t-41 -69t-46 -72t-35 -88q40 2 77 17t72 30t69 28t68 13q38 0 65 -23t27 -81q0 -60 -42 -93t-92 -33q-34 0 -63 11t-59 25t-61 27t-69 15q0 -60 20 -131t52 -127l-2 -12q-22 -34 -45 -68t-46 -81t-43 -110t-38 -153l-100 -512h-98z" />
    <glyph glyph-name="daggerdbl" unicode="&#x2021;" horiz-adv-x="1110" 
d="M690 418q-48 -42 -88 -86t-62 -102q38 2 73 15t69 27t66 25t62 11q40 0 73 -25t33 -81q0 -62 -42 -93t-94 -31q-36 0 -66 13t-59 29t-60 29t-71 15q-2 -10 -2 -20v-20q0 -66 17 -117t17 -103q0 -58 -37 -106t-113 -48q-52 0 -76 29t-24 69q0 46 18 83t42 72t47 74t33 89
q-40 -4 -77 -18t-71 -29t-65 -28t-61 -13q-46 0 -76 26t-30 74q0 36 12 61t32 40t44 22t46 7q32 0 62 -11t60 -25t63 -27t71 -15q-8 58 -35 103t-55 85l2 12q40 36 76 74t70 90q-16 54 -38 91t-46 71l2 12q50 42 88 86t62 100q-38 -2 -73 -15t-68 -27t-66 -25t-67 -11
q-40 0 -72 28t-32 74q0 36 13 60t33 39t44 22t46 7q38 0 67 -13t58 -29t60 -29t71 -15q2 10 2 21v21q0 64 -17 120t-17 108q0 60 37 102t113 42q54 0 77 -30t23 -76q0 -44 -18 -79t-41 -69t-47 -73t-36 -89q40 2 76 17t70 30t67 28t69 13q34 0 66 -23t32 -77q0 -72 -43 -101
t-91 -29q-34 0 -63 11t-59 25t-61 27t-69 15q6 -58 33 -102t55 -84l-2 -12q-38 -34 -73 -72t-71 -90q34 -100 84 -164z" />
    <glyph glyph-name="bullet" unicode="&#x2022;" horiz-adv-x="896" 
d="M400 280q-66 0 -110 18t-71 50t-39 73t-12 87q0 74 25 137t68 109t103 72t132 26q106 0 171 -54t65 -176q0 -70 -25 -133t-69 -109t-105 -73t-133 -27z" />
    <glyph glyph-name="periodcentered" unicode="&#xb7;" horiz-adv-x="562" 
d="M258 428q-42 0 -71 13t-47 33t-26 46t-8 54q0 48 17 87t46 66t67 42t80 15q70 0 112 -36t42 -106q0 -48 -17 -87t-46 -68t-68 -44t-81 -15z" />
    <glyph glyph-name="ellipsis" unicode="&#x2026;" horiz-adv-x="1564" 
d="M1182 -20q-42 0 -71 13t-47 33t-26 46t-8 54q0 48 17 87t46 66t67 42t80 15q70 0 112 -35t42 -105q0 -48 -17 -88t-46 -69t-68 -44t-81 -15zM668 -20q-42 0 -71 13t-47 33t-26 46t-8 54q0 48 17 87t46 66t67 42t80 15q70 0 112 -35t42 -105q0 -48 -17 -88t-46 -69
t-68 -44t-81 -15zM160 -20q-42 0 -71 13t-47 33t-25 46t-7 54q0 48 17 87t46 66t67 42t80 15q68 0 110 -35t42 -105q0 -48 -17 -88t-46 -69t-68 -44t-81 -15z" />
    <glyph glyph-name="paragraph" unicode="&#xb6;" horiz-adv-x="1320" 
d="M1068 1234h-136l-132 -772h-180q-92 0 -172 27t-139 80t-93 129t-34 174q0 134 47 233t131 165t199 98t251 32h574l-28 -154l-132 -14l-174 -1020q-24 -140 -71 -239t-114 -161t-155 -90t-192 -28q-94 0 -164 24t-115 62t-67 85t-22 95q0 94 52 151t142 57q82 0 120 -62
t6 -158l-94 -16q-22 -50 13 -84t137 -34q56 0 113 18t106 61t88 116t59 185z" />
    <glyph glyph-name="uni00AD" unicode="&#xad;" horiz-adv-x="674" 
d="M102 490l32 168h466l-30 -168h-468z" />
    <glyph glyph-name="endash" unicode="&#x2013;" horiz-adv-x="1000" 
d="M10 480l18 118h920l-18 -118h-920z" />
    <glyph glyph-name="emdash" unicode="&#x2014;" horiz-adv-x="2000" 
d="M12 480l18 118h1920l-18 -118h-1920z" />
    <glyph glyph-name="hyphen.case" horiz-adv-x="684" 
d="M116 590l32 168h466l-30 -168h-468z" />
    <glyph glyph-name="agrave" unicode="&#xe0;" horiz-adv-x="1184" 
d="M1082 206l66 -66q-43 -67 -113 -111.5t-149 -44.5q-100 0 -151 48t-51 130q0 41 12 86l-10 2q-39 -114 -133 -193t-223 -79q-152 0 -231 95t-79 269q0 121 34.5 241t97 219t161.5 160.5t217 61.5q94 0 151.5 -42.5t82.5 -113.5l34 130q206 0 288 14q-108 -476 -150 -746
q-3 -28 -3.5 -54t14 -44t45.5 -18q38 0 90 56zM438 134q62 0 116.5 62.5t87.5 154.5t51.5 188.5t18.5 172.5q0 178 -126 178q-63 0 -115 -55.5t-82.5 -142t-46.5 -181.5t-16 -185q0 -99 24.5 -145.5t87.5 -46.5zM718 1092l-190 266q-14 18 -24 37t-10 47q0 26 15 45t37 30
t47 11t47 -8l82 -34l64 -366z" />
    <glyph glyph-name="aacute" unicode="&#xe1;" horiz-adv-x="1184" 
d="M1082 206l66 -66q-43 -67 -113 -111.5t-149 -44.5q-100 0 -151 48t-51 130q0 41 12 86l-10 2q-39 -114 -133 -193t-223 -79q-152 0 -231 95t-79 269q0 121 34.5 241t97 219t161.5 160.5t217 61.5q94 0 151.5 -42.5t82.5 -113.5l34 130q206 0 288 14q-108 -476 -150 -746
q-3 -28 -3.5 -54t14 -44t45.5 -18q38 0 90 56zM438 134q62 0 116.5 62.5t87.5 154.5t51.5 188.5t18.5 172.5q0 178 -126 178q-63 0 -115 -55.5t-82.5 -142t-46.5 -181.5t-16 -185q0 -99 24.5 -145.5t87.5 -46.5zM542 1096l-60 40l190 362l104 22q16 4 35 2t34 -11t25 -24
t10 -37q0 -30 -16 -53t-44 -49z" />
    <glyph glyph-name="acircumflex" unicode="&#xe2;" horiz-adv-x="1184" 
d="M1082 206l66 -66q-43 -67 -113 -111.5t-149 -44.5q-100 0 -151 48t-51 130q0 41 12 86l-10 2q-39 -114 -133 -193t-223 -79q-152 0 -231 95t-79 269q0 121 34.5 241t97 219t161.5 160.5t217 61.5q94 0 151.5 -42.5t82.5 -113.5l34 130q206 0 288 14q-108 -476 -150 -746
q-3 -28 -3.5 -54t14 -44t45.5 -18q38 0 90 56zM438 134q62 0 116.5 62.5t87.5 154.5t51.5 188.5t18.5 172.5q0 178 -126 178q-63 0 -115 -55.5t-82.5 -142t-46.5 -181.5t-16 -185q0 -99 24.5 -145.5t87.5 -46.5zM852 1102l-182 190l-270 -194l-56 54l250 320q12 8 46 21
t68 13q44 0 66 -18t38 -60l110 -280z" />
    <glyph glyph-name="atilde" unicode="&#xe3;" horiz-adv-x="1184" 
d="M1082 206l66 -66q-43 -67 -113 -111.5t-149 -44.5q-100 0 -151 48t-51 130q0 41 12 86l-10 2q-39 -114 -133 -193t-223 -79q-152 0 -231 95t-79 269q0 121 34.5 241t97 219t161.5 160.5t217 61.5q94 0 151.5 -42.5t82.5 -113.5l34 130q206 0 288 14q-108 -476 -150 -746
q-3 -28 -3.5 -54t14 -44t45.5 -18q38 0 90 56zM438 134q62 0 116.5 62.5t87.5 154.5t51.5 188.5t18.5 172.5q0 178 -126 178q-63 0 -115 -55.5t-82.5 -142t-46.5 -181.5t-16 -185q0 -99 24.5 -145.5t87.5 -46.5zM1028 1412q-28 -72 -59 -119t-64 -76t-67 -40t-66 -11
q-52 0 -93 15t-77 31q-32 14 -59 23t-55 9q-26 0 -52 -17t-58 -71l-66 22q56 126 116 184t148 58q56 0 90 -14t74 -32q28 -12 55 -21t57 -9q34 0 58 17t54 69z" />
    <glyph glyph-name="adieresis" unicode="&#xe4;" horiz-adv-x="1184" 
d="M1082 206l66 -66q-43 -67 -113 -111.5t-149 -44.5q-100 0 -151 48t-51 130q0 41 12 86l-10 2q-39 -114 -133 -193t-223 -79q-152 0 -231 95t-79 269q0 121 34.5 241t97 219t161.5 160.5t217 61.5q94 0 151.5 -42.5t82.5 -113.5l34 130q206 0 288 14q-108 -476 -150 -746
q-3 -28 -3.5 -54t14 -44t45.5 -18q38 0 90 56zM438 134q62 0 116.5 62.5t87.5 154.5t51.5 188.5t18.5 172.5q0 178 -126 178q-63 0 -115 -55.5t-82.5 -142t-46.5 -181.5t-16 -185q0 -99 24.5 -145.5t87.5 -46.5zM856 1160q-68 0 -95 32t-27 78q0 32 11 63t32 55t52 38t69 14
q52 0 86 -26t34 -84q0 -70 -43 -120t-119 -50zM442 1160q-68 0 -95 32t-27 78q0 32 11 63t32 55t52 38t69 14q52 0 86 -26t34 -84q0 -70 -43 -120t-119 -50z" />
    <glyph glyph-name="amacron" unicode="&#x101;" horiz-adv-x="1184" 
d="M1082 206l66 -66q-43 -67 -113 -111.5t-149 -44.5q-100 0 -151 48t-51 130q0 41 12 86l-10 2q-39 -114 -133 -193t-223 -79q-152 0 -231 95t-79 269q0 121 34.5 241t97 219t161.5 160.5t217 61.5q94 0 151.5 -42.5t82.5 -113.5l34 130q206 0 288 14q-108 -476 -150 -746
q-3 -28 -3.5 -54t14 -44t45.5 -18q38 0 90 56zM438 134q62 0 116.5 62.5t87.5 154.5t51.5 188.5t18.5 172.5q0 178 -126 178q-63 0 -115 -55.5t-82.5 -142t-46.5 -181.5t-16 -185q0 -99 24.5 -145.5t87.5 -46.5zM370 1198l30 172h544l-30 -172h-544z" />
    <glyph glyph-name="abreve" unicode="&#x103;" horiz-adv-x="1184" 
d="M1082 206l66 -66q-43 -67 -113 -111.5t-149 -44.5q-100 0 -151 48t-51 130q0 41 12 86l-10 2q-39 -114 -133 -193t-223 -79q-152 0 -231 95t-79 269q0 121 34.5 241t97 219t161.5 160.5t217 61.5q94 0 151.5 -42.5t82.5 -113.5l34 130q206 0 288 14q-108 -476 -150 -746
q-3 -28 -3.5 -54t14 -44t45.5 -18q38 0 90 56zM438 134q62 0 116.5 62.5t87.5 154.5t51.5 188.5t18.5 172.5q0 178 -126 178q-63 0 -115 -55.5t-82.5 -142t-46.5 -181.5t-16 -185q0 -99 24.5 -145.5t87.5 -46.5zM1000 1448q-18 -62 -48 -119t-74 -101t-104 -70t-138 -26
q-76 0 -125 26t-76 70t-36 101t-3 119l96 18q6 -38 17 -66t32 -47t53 -29t82 -10q96 0 146 40t84 110z" />
    <glyph glyph-name="aring" unicode="&#xe5;" horiz-adv-x="1184" 
d="M1082 206l66 -66q-43 -67 -113 -111.5t-149 -44.5q-100 0 -151 48t-51 130q0 41 12 86l-10 2q-39 -114 -133 -193t-223 -79q-152 0 -231 95t-79 269q0 121 34.5 241t97 219t161.5 160.5t217 61.5q94 0 151.5 -42.5t82.5 -113.5l34 130q206 0 288 14q-108 -476 -150 -746
q-3 -28 -3.5 -54t14 -44t45.5 -18q38 0 90 56zM438 134q62 0 116.5 62.5t87.5 154.5t51.5 188.5t18.5 172.5q0 178 -126 178q-63 0 -115 -55.5t-82.5 -142t-46.5 -181.5t-16 -185q0 -99 24.5 -145.5t87.5 -46.5zM892 1348q0 -48 -18 -92t-52 -76t-81 -51t-103 -19
q-98 0 -144 46t-46 124q0 52 19 96t54 75t82 49t103 18q92 0 139 -45t47 -125zM654 1214q56 0 82 39t26 85q0 34 -17 56t-59 22q-46 0 -77 -36t-31 -88q0 -30 15 -54t61 -24z" />
    <glyph glyph-name="aringacute" unicode="&#x1fb;" horiz-adv-x="1184" 
d="M1082 206l66 -66q-43 -67 -113 -111.5t-149 -44.5q-100 0 -151 48t-51 130q0 41 12 86l-10 2q-39 -114 -133 -193t-223 -79q-152 0 -231 95t-79 269q0 121 34.5 241t97 219t161.5 160.5t217 61.5q94 0 151.5 -42.5t82.5 -113.5l34 130q206 0 288 14q-108 -476 -150 -746
q-3 -28 -3.5 -54t14 -44t45.5 -18q38 0 90 56zM438 134q62 0 116.5 62.5t87.5 154.5t51.5 188.5t18.5 172.5q0 178 -126 178q-63 0 -115 -55.5t-82.5 -142t-46.5 -181.5t-16 -185q0 -99 24.5 -145.5t87.5 -46.5zM898 1348q0 -48 -18 -92t-52 -76t-81 -51t-103 -19
q-98 0 -144 46t-46 124q0 52 19 96t54 75t82 49t103 18q92 0 139 -45t47 -125zM660 1214q56 0 82 39t26 85q0 34 -17 56t-59 22q-46 0 -77 -36t-31 -88q0 -30 15 -54t61 -24zM576 1552l-46 60l282 302l92 -22q48 -10 65 -29t17 -51q0 -38 -25 -63t-67 -45z" />
    <glyph glyph-name="aogonek" unicode="&#x105;" horiz-adv-x="1184" 
d="M438 134q66 0 117 63t86 153t53 190t18 172q0 86 -29 132t-97 46q-66 0 -115 -56t-81 -140t-48 -183t-16 -185q0 -94 23 -143t89 -49zM1046 -312q-18 -28 -44 -57t-61 -53t-80 -39t-103 -15q-88 0 -137 40t-49 112q0 50 21 94t56 81t80 70t93 63q-92 20 -123 91t-3 173
l-10 2q-18 -52 -50 -101t-77 -87t-103 -61t-126 -23q-154 0 -232 95t-78 269q0 120 34 241t98 219t159 160t219 62q102 0 157 -46t77 -110l34 130h69t79 2t77 5t63 7q-44 -194 -82 -376t-68 -376q-4 -20 -4 -41t5 -37t18 -27t37 -11q26 0 47 17t43 39l66 -66
q-28 -40 -67 -75t-83 -63q-40 -24 -76 -55t-64 -67t-45 -74t-17 -78q0 -24 13 -42t47 -18q38 0 66 23t54 51z" />
    <glyph glyph-name="aeacute" unicode="&#x1fd;" horiz-adv-x="1618" 
d="M982 550l68 8t64 14q82 22 133 70t51 148q0 114 -88 114q-84 0 -145 -97t-83 -257zM438 134q66 0 117 63t86 153t53 190t18 172q0 86 -29 132t-97 46q-66 0 -115 -56t-81 -140t-48 -183t-16 -185q0 -94 23 -143t89 -49zM1052 -22q-164 0 -247 76t-105 202
q-18 -52 -52 -102t-82 -89t-108 -63t-128 -24q-154 0 -232 95t-78 269q0 120 34 241t98 219t159 160t219 62q102 0 157 -46t77 -110l34 130q14 0 47 2t69 5t68 6t44 3l-22 -86q48 40 118 68t160 28q120 0 198 -63t78 -183q0 -82 -33 -139t-85 -96t-117 -63t-127 -38
q-26 -6 -58 -10t-63 -8t-61 -7t-52 -3v-38q0 -120 38 -176t128 -56t149 53t113 167l128 -44q-52 -162 -174 -252t-292 -90zM846 1096l-60 40l190 362l104 22q16 4 35 2t34 -11t25 -24t10 -37q0 -30 -16 -53t-44 -49z" />
    <glyph glyph-name="cacute" unicode="&#x107;" horiz-adv-x="984" 
d="M736 358l132 -46q-16 -47 -40.5 -90.5t-64.5 -89t-88.5 -79t-117.5 -54.5t-147 -21q-192 0 -291 101.5t-99 286.5q0 134 40.5 252.5t115 209t189.5 143.5t255 53q161 0 240.5 -72.5t79.5 -183.5q0 -90 -49.5 -151t-140.5 -61q-64 0 -99 32.5t-35 85.5q0 55 34 108h76
q12 30 12 54q0 66 -98 66q-84 0 -147.5 -54t-97.5 -139.5t-50.5 -174t-16.5 -174.5q0 -113 37.5 -166.5t122.5 -53.5q86 0 143.5 56.5t104.5 161.5zM524 1096l-60 40l190 362l104 22q16 4 35 2t34 -11t25 -24t10 -37q0 -30 -16 -53t-44 -49z" />
    <glyph glyph-name="ccircumflex" unicode="&#x109;" horiz-adv-x="984" 
d="M736 358l132 -46q-16 -47 -40.5 -90.5t-64.5 -89t-88.5 -79t-117.5 -54.5t-147 -21q-192 0 -291 101.5t-99 286.5q0 134 40.5 252.5t115 209t189.5 143.5t255 53q161 0 240.5 -72.5t79.5 -183.5q0 -90 -49.5 -151t-140.5 -61q-64 0 -99 32.5t-35 85.5q0 55 34 108h76
q12 30 12 54q0 66 -98 66q-84 0 -147.5 -54t-97.5 -139.5t-50.5 -174t-16.5 -174.5q0 -113 37.5 -166.5t122.5 -53.5q86 0 143.5 56.5t104.5 161.5zM834 1102l-182 190l-270 -194l-56 54l250 320q12 8 46 21t68 13q44 0 66 -18t38 -60l110 -280z" />
    <glyph glyph-name="ccaron" unicode="&#x10d;" horiz-adv-x="984" 
d="M736 358l132 -46q-16 -47 -40.5 -90.5t-64.5 -89t-88.5 -79t-117.5 -54.5t-147 -21q-192 0 -291 101.5t-99 286.5q0 134 40.5 252.5t115 209t189.5 143.5t255 53q161 0 240.5 -72.5t79.5 -183.5q0 -90 -49.5 -151t-140.5 -61q-64 0 -99 32.5t-35 85.5q0 55 34 108h76
q12 30 12 54q0 66 -98 66q-84 0 -147.5 -54t-97.5 -139.5t-50.5 -174t-16.5 -174.5q0 -113 37.5 -166.5t122.5 -53.5q86 0 143.5 56.5t104.5 161.5zM762 1192q-30 -42 -63 -59t-75 -17q-32 0 -59 10t-37 18l-136 332l70 46l188 -202l262 200l56 -52z" />
    <glyph glyph-name="cdotaccent" unicode="&#x10b;" horiz-adv-x="984" 
d="M736 358l132 -46q-16 -47 -40.5 -90.5t-64.5 -89t-88.5 -79t-117.5 -54.5t-147 -21q-192 0 -291 101.5t-99 286.5q0 134 40.5 252.5t115 209t189.5 143.5t255 53q161 0 240.5 -72.5t79.5 -183.5q0 -90 -49.5 -151t-140.5 -61q-64 0 -99 32.5t-35 85.5q0 55 34 108h76
q12 30 12 54q0 66 -98 66q-84 0 -147.5 -54t-97.5 -139.5t-50.5 -174t-16.5 -174.5q0 -113 37.5 -166.5t122.5 -53.5q86 0 143.5 56.5t104.5 161.5zM622 1140q-44 0 -73 12t-47 31t-25 44t-7 51q0 90 60 145t150 55q70 0 111 -33t41 -107q0 -90 -60 -144t-150 -54z" />
    <glyph glyph-name="ccedilla" unicode="&#xe7;" horiz-adv-x="984" 
d="M272 -340q0 -44 62 -44q44 0 78 31t34 99q0 38 -21 60t-57 22q-20 0 -41 -2t-35 -6l-10 50l86 110q-176 10 -262 111t-86 275q0 132 40 252t116 210t188 143t256 53q86 0 146 -21t99 -56t57 -82t18 -97q0 -84 -47 -148t-143 -64q-66 0 -100 33t-34 85q0 56 34 108h76
q24 64 -1 92t-85 28q-88 0 -148 -55t-96 -137t-52 -177t-16 -173q0 -112 36 -166t124 -54q92 0 149 62t99 156l132 -46q-18 -50 -49 -104t-79 -101t-114 -81t-152 -44l-68 -86q12 4 35 5t33 1q76 0 117 -38t41 -104q0 -40 -19 -78t-57 -67t-92 -47t-122 -18q-94 0 -135 38
t-41 80q0 36 22 62t62 26q26 0 47 -14t25 -52z" />
    <glyph glyph-name="dcaron" unicode="&#x10f;" horiz-adv-x="1340" 
d="M1082 206l68 -70q-44 -69 -115.5 -111.5t-152.5 -42.5q-98 0 -147 46.5t-49 129.5q0 42 12 90l-10 2q-40 -117 -134 -194.5t-220 -77.5q-155 0 -234.5 94.5t-79.5 269.5q0 98 21 195t64.5 185t103.5 155.5t143.5 107t179.5 39.5q181 0 230 -150l84 464l-150 18l22 130
l434 14l8 -16l-222 -1214q-12 -60 -1 -91t53 -31q28 0 48 14t44 44zM434 134q64 0 119 63t88 156t51 190t18 175q0 83 -27.5 127.5t-94.5 44.5q-64 0 -115.5 -54t-82.5 -139.5t-47.5 -181.5t-16.5 -189q0 -98 23.5 -145t84.5 -47zM1132 1094q22 16 46 36t43 44t32 51t13 59
q0 74 -64 124l54 54q22 22 51 37t65 15q50 0 75 -33t25 -85q0 -56 -26 -108t-66 -99t-92 -89t-102 -76z" />
    <glyph glyph-name="dcroat" unicode="&#x111;" horiz-adv-x="1186" 
d="M434 134q68 0 120 64t86 155t52 191t18 174q0 76 -26 124t-96 48q-66 0 -116 -55t-82 -138t-48 -182t-16 -189q0 -92 22 -142t86 -50zM1150 136q-42 -66 -113 -110t-155 -44q-126 0 -170 73t-14 193l-10 2q-18 -54 -51 -104t-78 -87t-102 -59t-123 -22q-158 0 -236 95
t-78 269q0 122 34 243t99 219t160 159t219 61q104 0 157 -45t73 -105l44 242h-352l26 132h350l16 90l-150 18l22 130l434 14l8 -16l-44 -236h150l-24 -132h-150l-154 -846q-10 -60 -1 -91t53 -31q30 0 50 16t42 42z" />
    <glyph glyph-name="egrave" unicode="&#xe8;" horiz-adv-x="980" 
d="M750 364l128 -44q-51 -162 -175 -252t-295 -90q-188 0 -289 101.5t-101 286.5q0 127 41.5 245.5t116 210.5t187.5 147t247 55q147 0 228.5 -63.5t81.5 -182.5q0 -258 -364 -336q-121 -24 -234 -28v-38q0 -120 39.5 -176t128.5 -56q86 0 146 52t114 168zM342 550
q52 3 96 12q107 20 164.5 72t57.5 156q0 114 -88 114q-83 0 -144.5 -96.5t-85.5 -257.5zM686 1092l-190 266q-14 18 -24 37t-10 47q0 26 15 45t37 30t47 11t47 -8l82 -34l64 -366z" />
    <glyph glyph-name="eacute" unicode="&#xe9;" horiz-adv-x="980" 
d="M750 364l128 -44q-51 -162 -175 -252t-295 -90q-188 0 -289 101.5t-101 286.5q0 127 41.5 245.5t116 210.5t187.5 147t247 55q147 0 228.5 -63.5t81.5 -182.5q0 -258 -364 -336q-121 -24 -234 -28v-38q0 -120 39.5 -176t128.5 -56q86 0 146 52t114 168zM342 550
q52 3 96 12q107 20 164.5 72t57.5 156q0 114 -88 114q-83 0 -144.5 -96.5t-85.5 -257.5zM522 1096l-60 40l190 362l104 22q16 4 35 2t34 -11t25 -24t10 -37q0 -30 -16 -53t-44 -49z" />
    <glyph glyph-name="ecircumflex" unicode="&#xea;" horiz-adv-x="980" 
d="M750 364l128 -44q-51 -162 -175 -252t-295 -90q-188 0 -289 101.5t-101 286.5q0 127 41.5 245.5t116 210.5t187.5 147t247 55q147 0 228.5 -63.5t81.5 -182.5q0 -258 -364 -336q-121 -24 -234 -28v-38q0 -120 39.5 -176t128.5 -56q86 0 146 52t114 168zM342 550
q52 3 96 12q107 20 164.5 72t57.5 156q0 114 -88 114q-83 0 -144.5 -96.5t-85.5 -257.5zM832 1102l-182 190l-270 -194l-56 54l250 320q12 8 46 21t68 13q44 0 66 -18t38 -60l110 -280z" />
    <glyph glyph-name="ecaron" unicode="&#x11b;" horiz-adv-x="980" 
d="M750 364l128 -44q-51 -162 -175 -252t-295 -90q-188 0 -289 101.5t-101 286.5q0 127 41.5 245.5t116 210.5t187.5 147t247 55q147 0 228.5 -63.5t81.5 -182.5q0 -258 -364 -336q-121 -24 -234 -28v-38q0 -120 39.5 -176t128.5 -56q86 0 146 52t114 168zM342 550
q52 3 96 12q107 20 164.5 72t57.5 156q0 114 -88 114q-83 0 -144.5 -96.5t-85.5 -257.5zM760 1192q-30 -42 -63 -59t-75 -17q-32 0 -59 10t-37 18l-136 332l70 46l188 -202l262 200l56 -52z" />
    <glyph glyph-name="edieresis" unicode="&#xeb;" horiz-adv-x="980" 
d="M750 364l128 -44q-51 -162 -175 -252t-295 -90q-188 0 -289 101.5t-101 286.5q0 127 41.5 245.5t116 210.5t187.5 147t247 55q147 0 228.5 -63.5t81.5 -182.5q0 -258 -364 -336q-121 -24 -234 -28v-38q0 -120 39.5 -176t128.5 -56q86 0 146 52t114 168zM342 550
q52 3 96 12q107 20 164.5 72t57.5 156q0 114 -88 114q-83 0 -144.5 -96.5t-85.5 -257.5zM836 1160q-68 0 -95 32t-27 78q0 32 11 63t32 55t52 38t69 14q52 0 86 -26t34 -84q0 -70 -43 -120t-119 -50zM422 1160q-68 0 -95 32t-27 78q0 32 11 63t32 55t52 38t69 14
q52 0 86 -26t34 -84q0 -70 -43 -120t-119 -50z" />
    <glyph glyph-name="emacron" unicode="&#x113;" horiz-adv-x="980" 
d="M750 364l128 -44q-51 -162 -175 -252t-295 -90q-188 0 -289 101.5t-101 286.5q0 127 41.5 245.5t116 210.5t187.5 147t247 55q147 0 228.5 -63.5t81.5 -182.5q0 -258 -364 -336q-121 -24 -234 -28v-38q0 -120 39.5 -176t128.5 -56q86 0 146 52t114 168zM342 550
q52 3 96 12q107 20 164.5 72t57.5 156q0 114 -88 114q-83 0 -144.5 -96.5t-85.5 -257.5zM350 1198l30 172h544l-30 -172h-544z" />
    <glyph glyph-name="ebreve" unicode="&#x115;" horiz-adv-x="980" 
d="M750 364l128 -44q-51 -162 -175 -252t-295 -90q-188 0 -289 101.5t-101 286.5q0 127 41.5 245.5t116 210.5t187.5 147t247 55q147 0 228.5 -63.5t81.5 -182.5q0 -258 -364 -336q-121 -24 -234 -28v-38q0 -120 39.5 -176t128.5 -56q86 0 146 52t114 168zM342 550
q52 3 96 12q107 20 164.5 72t57.5 156q0 114 -88 114q-83 0 -144.5 -96.5t-85.5 -257.5zM980 1448q-18 -62 -48 -119t-74 -101t-104 -70t-138 -26q-76 0 -125 26t-76 70t-36 101t-3 119l96 18q6 -38 17 -66t32 -47t53 -29t82 -10q96 0 146 40t84 110z" />
    <glyph glyph-name="edotaccent" unicode="&#x117;" horiz-adv-x="980" 
d="M750 364l128 -44q-51 -162 -175 -252t-295 -90q-188 0 -289 101.5t-101 286.5q0 127 41.5 245.5t116 210.5t187.5 147t247 55q147 0 228.5 -63.5t81.5 -182.5q0 -258 -364 -336q-121 -24 -234 -28v-38q0 -120 39.5 -176t128.5 -56q86 0 146 52t114 168zM342 550
q52 3 96 12q107 20 164.5 72t57.5 156q0 114 -88 114q-83 0 -144.5 -96.5t-85.5 -257.5zM620 1140q-44 0 -73 12t-47 31t-25 44t-7 51q0 90 60 145t150 55q70 0 111 -33t41 -107q0 -90 -60 -144t-150 -54z" />
    <glyph glyph-name="eogonek" unicode="&#x119;" horiz-adv-x="980" 
d="M342 550q52 4 96 12q48 8 89 24t71 43t46 66t16 95q0 114 -88 114q-84 0 -145 -97t-85 -257zM646 -312q-18 -28 -44 -57t-61 -53t-80 -39t-103 -15q-88 0 -137 40t-49 112q0 48 20 91t53 80t77 70t90 61h-4q-190 0 -290 101t-100 287q0 126 41 245t117 211t186 147
t248 55q146 0 228 -63t82 -183q0 -82 -33 -139t-86 -96t-118 -63t-127 -38q-26 -6 -58 -10t-63 -8t-61 -7t-52 -3v-38q0 -120 39 -176t129 -56t149 53t111 167l128 -44q-36 -114 -104 -187t-158 -127q-42 -24 -81 -57t-70 -70t-50 -77t-19 -80q0 -24 13 -42t47 -18
q38 0 66 23t54 51z" />
    <glyph glyph-name="gcircumflex" unicode="&#x11d;" horiz-adv-x="1154" 
d="M442 174q64 0 114 57t85 139t53 176t18 166q0 86 -31 132t-93 46q-66 0 -115 -50t-81 -127t-47 -169t-15 -178q0 -94 22 -143t90 -49zM176 -236q-34 -82 108 -82q82 0 142 34t103 88t72 123t49 139q16 50 29 102t25 104l-12 6q-42 -114 -135 -187t-231 -73
q-154 0 -228 95t-74 269q0 120 33 235t97 205t158 146t214 56q106 0 162 -46t78 -110l34 130h68t78 2t77 5t65 7q-22 -96 -45 -214t-47 -241t-47 -240t-43 -213q-28 -138 -85 -237t-138 -164t-184 -95t-225 -30q-68 0 -125 13t-99 40t-65 68t-23 97q0 84 49 132t125 48
q32 0 61 -11t49 -35t28 -61t0 -89zM852 1102l-182 190l-270 -194l-56 54l250 320q12 8 46 21t68 13q44 0 66 -18t38 -60l110 -280z" />
    <glyph glyph-name="gbreve" unicode="&#x11f;" horiz-adv-x="1154" 
d="M442 174q64 0 114 57t85 139t53 176t18 166q0 86 -31 132t-93 46q-66 0 -115 -50t-81 -127t-47 -169t-15 -178q0 -94 22 -143t90 -49zM176 -236q-34 -82 108 -82q82 0 142 34t103 88t72 123t49 139q16 50 29 102t25 104l-12 6q-42 -114 -135 -187t-231 -73
q-154 0 -228 95t-74 269q0 120 33 235t97 205t158 146t214 56q106 0 162 -46t78 -110l34 130h68t78 2t77 5t65 7q-22 -96 -45 -214t-47 -241t-47 -240t-43 -213q-28 -138 -85 -237t-138 -164t-184 -95t-225 -30q-68 0 -125 13t-99 40t-65 68t-23 97q0 84 49 132t125 48
q32 0 61 -11t49 -35t28 -61t0 -89zM986 1448q-18 -62 -48 -119t-74 -101t-104 -70t-138 -26q-76 0 -125 26t-76 70t-36 101t-3 119l96 18q6 -38 17 -66t32 -47t53 -29t82 -10q96 0 146 40t84 110z" />
    <glyph glyph-name="gdotaccent" unicode="&#x121;" horiz-adv-x="1154" 
d="M442 174q64 0 114 57t85 139t53 176t18 166q0 86 -31 132t-93 46q-66 0 -115 -50t-81 -127t-47 -169t-15 -178q0 -94 22 -143t90 -49zM176 -236q-34 -82 108 -82q82 0 142 34t103 88t72 123t49 139q16 50 29 102t25 104l-12 6q-42 -114 -135 -187t-231 -73
q-154 0 -228 95t-74 269q0 120 33 235t97 205t158 146t214 56q106 0 162 -46t78 -110l34 130h68t78 2t77 5t65 7q-22 -96 -45 -214t-47 -241t-47 -240t-43 -213q-28 -138 -85 -237t-138 -164t-184 -95t-225 -30q-68 0 -125 13t-99 40t-65 68t-23 97q0 84 49 132t125 48
q32 0 61 -11t49 -35t28 -61t0 -89zM626 1140q-44 0 -73 12t-47 31t-25 44t-7 51q0 90 60 145t150 55q70 0 111 -33t41 -107q0 -90 -60 -144t-150 -54z" />
    <glyph glyph-name="gcommaaccent" unicode="&#x123;" horiz-adv-x="1154" 
d="M442 174q64 0 114 57t85 139t53 176t18 166q0 86 -31 132t-93 46q-66 0 -115 -50t-81 -127t-47 -169t-15 -178q0 -94 22 -143t90 -49zM176 -236q-34 -82 108 -82q82 0 142 34t103 88t72 123t49 139q16 50 29 102t25 104l-12 6q-42 -114 -135 -187t-231 -73
q-154 0 -228 95t-74 269q0 120 33 235t97 205t158 146t214 56q106 0 162 -46t78 -110l34 130h68t78 2t77 5t65 7q-22 -96 -45 -214t-47 -241t-47 -240t-43 -213q-28 -138 -85 -237t-138 -164t-184 -95t-225 -30q-68 0 -125 13t-99 40t-65 68t-23 97q0 84 49 132t125 48
q32 0 61 -11t49 -35t28 -61t0 -89zM638 1304q40 14 40 64q0 44 -35 84t-81 74l50 62q180 -118 180 -274q0 -36 -11 -70t-32 -61t-55 -44t-78 -17q-58 0 -91 33t-33 83q0 52 29 82t67 44z" />
    <glyph glyph-name="hcircumflex" unicode="&#x125;" horiz-adv-x="1204" 
d="M1150 122q-48 -62 -119 -100t-165 -38q-42 0 -82 11t-70 35t-48 61t-18 89q0 104 41 241t85 287q8 28 13 51t5 43q0 58 -56 58q-42 0 -86 -37t-84 -97t-75 -134t-57 -148q-16 -54 -29 -105t-23 -103t-18 -108t-16 -122q-78 0 -157 -4t-161 -16l90 388l156 964l-146 18
l24 148h430l8 -20l-182 -820l12 -6q30 62 70 128t93 118t121 86t154 34q102 0 155 -58t53 -164q0 -32 -5 -68t-15 -76q-32 -120 -56 -212t-46 -184q-4 -16 -6 -29t-2 -23q0 -62 58 -62q40 0 94 48zM658 1558l-236 160l-316 -170l-46 70l280 268q12 8 47 20t69 12
q44 0 67 -19t45 -57l152 -232z" />
    <glyph glyph-name="hbar" unicode="&#x127;" horiz-adv-x="1204" 
d="M1150 122q-48 -62 -119 -100t-165 -38q-42 0 -82 11t-70 35t-48 61t-18 89q0 104 41 241t85 287q8 28 13 51t5 43q0 58 -56 58q-42 0 -86 -37t-84 -97t-75 -134t-57 -148q-16 -54 -29 -105t-23 -103t-18 -108t-16 -122q-78 0 -157 -4t-161 -16l90 388l120 742h-154
l24 132h150l16 90l-146 18l24 148h430l8 -20l-54 -236h372l-22 -132h-378l-100 -452l12 -6q30 62 70 128t93 118t121 86t154 34q102 0 155 -58t53 -164q0 -32 -5 -68t-15 -76q-32 -120 -56 -212t-46 -184q-4 -16 -6 -29t-2 -23q0 -62 58 -62q40 0 94 48z" />
    <glyph glyph-name="igrave" unicode="&#xec;" horiz-adv-x="630" 
d="M582 120q-50 -64 -121 -103t-159 -39q-44 0 -83 11t-69 35t-48 63t-18 97q0 38 14 114t36 168q22 102 47 204t41 172l-152 16l22 132l438 18l8 -20q-52 -232 -96 -429t-66 -317q-10 -58 4 -83t52 -25q42 0 94 50zM436 1092l-190 266q-14 18 -24 37t-10 47q0 26 15 45
t37 30t47 11t47 -8l82 -34l64 -366z" />
    <glyph glyph-name="iacute" unicode="&#xed;" horiz-adv-x="630" 
d="M582 120q-50 -64 -121 -103t-159 -39q-44 0 -83 11t-69 35t-48 63t-18 97q0 38 14 114t36 168q22 102 47 204t41 172l-152 16l22 132l438 18l8 -20q-52 -232 -96 -429t-66 -317q-10 -58 4 -83t52 -25q42 0 94 50zM260 1096l-60 40l190 362l104 22q16 4 35 2t34 -11
t25 -24t10 -37q0 -30 -16 -53t-44 -49z" />
    <glyph glyph-name="icircumflex" unicode="&#xee;" horiz-adv-x="630" 
d="M582 120q-50 -64 -121 -103t-159 -39q-44 0 -83 11t-69 35t-48 63t-18 97q0 38 14 114t36 168q22 102 47 204t41 172l-152 16l22 132l438 18l8 -20q-52 -232 -96 -429t-66 -317q-10 -58 4 -83t52 -25q42 0 94 50zM570 1102l-182 190l-270 -194l-56 54l250 320q12 8 46 21
t68 13q44 0 66 -18t38 -60l110 -280z" />
    <glyph glyph-name="itilde" unicode="&#x129;" horiz-adv-x="630" 
d="M582 120q-50 -64 -121 -103t-159 -39q-44 0 -83 11t-69 35t-48 63t-18 97q0 38 14 114t36 168q22 102 47 204t41 172l-152 16l22 132l438 18l8 -20q-52 -232 -96 -429t-66 -317q-10 -58 4 -83t52 -25q42 0 94 50zM746 1412q-28 -72 -59 -119t-64 -76t-67 -40t-66 -11
q-52 0 -93 15t-77 31q-32 14 -59 23t-55 9q-26 0 -52 -17t-58 -71l-66 22q56 126 116 184t148 58q56 0 90 -14t74 -32q28 -12 55 -21t57 -9q34 0 58 17t54 69z" />
    <glyph glyph-name="idieresis" unicode="&#xef;" horiz-adv-x="630" 
d="M582 120q-50 -64 -121 -103t-159 -39q-44 0 -83 11t-69 35t-48 63t-18 97q0 38 14 114t36 168q22 102 47 204t41 172l-152 16l22 132l438 18l8 -20q-52 -232 -96 -429t-66 -317q-10 -58 4 -83t52 -25q42 0 94 50zM574 1160q-68 0 -95 32t-27 78q0 32 11 63t32 55t52 38
t69 14q52 0 86 -26t34 -84q0 -70 -43 -120t-119 -50zM160 1160q-68 0 -95 32t-27 78q0 32 11 63t32 55t52 38t69 14q52 0 86 -26t34 -84q0 -70 -43 -120t-119 -50z" />
    <glyph glyph-name="idotaccent" horiz-adv-x="630" 
d="M526 190l56 -64q-52 -66 -124 -104t-156 -38q-96 0 -157 49.5t-61 156.5q0 64 50 282q15 70 46.5 197t41.5 173l-152 16l22 132l438 18l8 -20q-22 -101 -62.5 -278t-63.5 -284t-36 -178q-20 -108 56 -108q41 0 94 50zM376 1140q-82 0 -117 39t-35 99q0 89 59.5 144.5
t150.5 55.5q152 0 152 -140q0 -87 -60 -142.5t-150 -55.5z" />
    <glyph glyph-name="imacron" unicode="&#x12b;" horiz-adv-x="630" 
d="M582 120q-50 -64 -121 -103t-159 -39q-44 0 -83 11t-69 35t-48 63t-18 97q0 38 14 114t36 168q22 102 47 204t41 172l-152 16l22 132l438 18l8 -20q-52 -232 -96 -429t-66 -317q-10 -58 4 -83t52 -25q42 0 94 50zM88 1198l30 172h544l-30 -172h-544z" />
    <glyph glyph-name="ibreve" unicode="&#x12d;" horiz-adv-x="630" 
d="M582 120q-50 -64 -121 -103t-159 -39q-44 0 -83 11t-69 35t-48 63t-18 97q0 38 14 114t36 168q22 102 47 204t41 172l-152 16l22 132l438 18l8 -20q-52 -232 -96 -429t-66 -317q-10 -58 4 -83t52 -25q42 0 94 50zM718 1448q-18 -62 -48 -119t-74 -101t-104 -70t-138 -26
q-76 0 -125 26t-76 70t-36 101t-3 119l96 18q6 -38 17 -66t32 -47t53 -29t82 -10q96 0 146 40t84 110z" />
    <glyph glyph-name="iogonek" unicode="&#x12f;" horiz-adv-x="630" 
d="M376 1140q-44 0 -73 12t-47 31t-25 44t-7 51q0 90 60 145t150 55q70 0 111 -33t41 -107q0 -90 -60 -144t-150 -54zM484 -312q-18 -28 -44 -57t-61 -53t-80 -39t-103 -15q-88 0 -137 40t-49 112q0 50 20 93t54 80t78 70t92 63q-70 10 -120 56t-50 146q0 38 14 114t36 168
q22 102 47 204t41 172l-152 16l22 132l438 18l8 -20q-52 -232 -96 -429t-66 -317q-10 -58 4 -83t52 -25q42 0 94 50l56 -64q-28 -34 -64 -65t-72 -53q-40 -26 -78 -58t-68 -68t-48 -75t-18 -79q0 -24 13 -42t47 -18q38 0 66 23t54 51z" />
    <glyph glyph-name="jcircumflex" unicode="&#x135;" horiz-adv-x="612" 
d="M-224 -260q-16 -40 7 -56t63 -16q92 0 133 73t65 207l156 894l-152 16l24 130l432 20l8 -20l-156 -896q-20 -114 -60 -209t-103 -163t-152 -105t-209 -37q-130 0 -198 54t-68 138q0 76 48 125t132 49q82 0 115 -53t1 -141zM526 1102l-182 190l-270 -194l-56 54l250 320
q12 8 46 21t68 13q44 0 66 -18t38 -60l110 -280z" />
    <glyph glyph-name="kcommaaccent" unicode="&#x137;" horiz-adv-x="1136" 
d="M1092 140q-54 -78 -131 -117t-167 -39q-116 0 -173 51t-57 133q0 16 2 35t8 39l30 100q6 20 6 40q0 36 -23 53t-63 17q-30 0 -67 -9t-59 -21l-70 -414q-22 0 -63 -2t-86 -5t-87 -8t-66 -11l100 444l146 916l-146 14l22 144h432l6 -16l-168 -918l144 78q58 32 99 54t66 42
t37 38t12 42l-78 32q0 76 39 131t133 55q80 0 117 -45t37 -103q0 -60 -36 -105t-114 -85q-80 -40 -151 -76t-155 -74l6 -10q66 12 116 12q56 0 94 -12t61 -34t33 -52t10 -64q0 -32 -10 -78l-18 -68q-4 -14 -6 -25t-2 -21q0 -58 66 -58q32 0 60 21t50 45zM306 -522
q60 38 108 84t48 94q0 36 -26 44l-64 -58q-26 10 -48 37t-22 67q0 64 41 100t105 36q76 0 110 -45t34 -101q0 -104 -69 -179t-179 -139z" />
    <glyph glyph-name="kgreenlandic" unicode="&#x138;" horiz-adv-x="1136" 
d="M1092 134q-54 -78 -131 -117t-167 -39q-116 0 -173 51t-57 133q0 16 2 35t8 39l30 106q6 20 6 40q0 36 -23 53t-63 17q-30 0 -67 -9t-59 -21l-70 -414q-22 0 -63 -2t-86 -5t-87 -8t-66 -11l100 444l58 428l-146 14l22 144h432l6 -16l-80 -430l144 78q58 32 99 54t66 42
t37 38t12 42l-78 32q0 76 39 131t133 55q80 0 117 -45t37 -103q0 -60 -36 -105t-114 -85q-80 -40 -151 -76t-155 -74l6 -10q66 12 116 12q56 0 94 -12t61 -34t33 -52t10 -64q0 -32 -10 -78l-18 -74q-4 -14 -6 -25t-2 -21q0 -58 66 -58q32 0 60 21t50 45z" />
    <glyph glyph-name="lacute" unicode="&#x13a;" horiz-adv-x="640" 
d="M586 126q-50 -64 -121 -103t-157 -39q-44 0 -84 11t-71 37t-49 66t-18 98q0 70 23 184t57 286l138 672l-146 16l22 132l434 18l8 -20q-12 -64 -33 -169t-46 -229t-51 -256t-48 -248t-40 -205t-24 -129q-10 -58 5 -83t51 -25q44 0 94 50zM270 1564l-46 60l282 302l92 -22
q48 -10 65 -29t17 -51q0 -38 -25 -63t-67 -45z" />
    <glyph glyph-name="lcaron" unicode="&#x13e;" horiz-adv-x="792" 
d="M586 126q-50 -64 -121 -103t-157 -39q-44 0 -84 11t-71 37t-49 66t-18 98q0 70 23 184t57 286l138 672l-146 16l22 132l434 18l8 -20q-12 -64 -33 -169t-46 -229t-51 -256t-48 -248t-40 -205t-24 -129q-10 -58 5 -83t51 -25q44 0 94 50zM588 1094q22 16 46 36t43 44
t32 51t13 59q0 74 -64 124l54 54q22 22 51 37t65 15q50 0 75 -33t25 -85q0 -56 -26 -108t-66 -99t-92 -89t-102 -76z" />
    <glyph glyph-name="lcommaaccent" unicode="&#x13c;" horiz-adv-x="640" 
d="M586 126q-50 -64 -121 -103t-157 -39q-44 0 -84 11t-71 37t-49 66t-18 98q0 70 23 184t57 286l138 672l-146 16l22 132l434 18l8 -20q-12 -64 -33 -169t-46 -229t-51 -256t-48 -248t-40 -205t-24 -129q-10 -58 5 -83t51 -25q44 0 94 50zM138 -522q60 38 108 84t48 94
q0 36 -26 44l-64 -58q-26 10 -48 37t-22 67q0 64 41 100t105 36q76 0 110 -45t34 -101q0 -104 -69 -179t-179 -139z" />
    <glyph glyph-name="ldot" unicode="&#x140;" horiz-adv-x="812" 
d="M586 126q-50 -64 -121 -103t-157 -39q-44 0 -84 11t-71 37t-49 66t-18 98q0 70 23 184t57 286l138 672l-146 16l22 132l434 18l8 -20q-12 -64 -33 -169t-46 -229t-51 -256t-48 -248t-40 -205t-24 -129q-10 -58 5 -83t51 -25q44 0 94 50zM726 644q-44 0 -73 12t-47 31
t-25 44t-7 51q0 90 60 145t150 55q70 0 111 -33t41 -107q0 -90 -60 -144t-150 -54z" />
    <glyph glyph-name="lslash" unicode="&#x142;" horiz-adv-x="704" 
d="M-12 706l208 110l108 522l-146 16l22 132l434 18l8 -20l-110 -550l158 84l34 -130l-224 -118q-18 -88 -34 -170t-29 -151t-23 -122t-14 -79q-10 -58 5 -83t51 -25q44 0 94 50l56 -64q-50 -64 -121 -103t-157 -39q-44 0 -84 11t-71 37t-49 66t-18 98q0 70 22 181t56 279
l-142 -76z" />
    <glyph glyph-name="nacute" unicode="&#x144;" horiz-adv-x="1210" 
d="M1152 126q-48 -58 -117 -100t-163 -42q-42 0 -82 11t-70 35t-48 61t-18 89q0 74 23 166t53 194l50 168q16 58 16 92q0 28 -12 45t-44 17q-44 0 -88 -38t-84 -98t-73 -134t-55 -148q-16 -54 -29 -105t-23 -103t-19 -108t-17 -122q-24 0 -68 -1t-92 -4t-92 -7t-64 -8
l90 388l64 470l-144 18l22 130l430 18l8 -20l-88 -340l12 -6q30 62 69 130t93 123t122 91t154 36q102 0 155 -58t53 -162q0 -98 -30 -199t-60 -209q-16 -62 -29 -108t-13 -84q0 -64 60 -64q38 0 92 50zM578 1096l-60 40l190 362l104 22q16 4 35 2t34 -11t25 -24t10 -37
q0 -30 -16 -53t-44 -49z" />
    <glyph glyph-name="ncaron" unicode="&#x148;" horiz-adv-x="1210" 
d="M1152 126q-48 -58 -117 -100t-163 -42q-42 0 -82 11t-70 35t-48 61t-18 89q0 74 23 166t53 194l50 168q16 58 16 92q0 28 -12 45t-44 17q-44 0 -88 -38t-84 -98t-73 -134t-55 -148q-16 -54 -29 -105t-23 -103t-19 -108t-17 -122q-24 0 -68 -1t-92 -4t-92 -7t-64 -8
l90 388l64 470l-144 18l22 130l430 18l8 -20l-88 -340l12 -6q30 62 69 130t93 123t122 91t154 36q102 0 155 -58t53 -162q0 -98 -30 -199t-60 -209q-16 -62 -29 -108t-13 -84q0 -64 60 -64q38 0 92 50zM816 1192q-30 -42 -63 -59t-75 -17q-32 0 -59 10t-37 18l-136 332
l70 46l188 -202l262 200l56 -52z" />
    <glyph glyph-name="ntilde" unicode="&#xf1;" horiz-adv-x="1210" 
d="M1152 126q-48 -58 -117 -100t-163 -42q-42 0 -82 11t-70 35t-48 61t-18 89q0 74 23 166t53 194l50 168q16 58 16 92q0 28 -12 45t-44 17q-44 0 -88 -38t-84 -98t-73 -134t-55 -148q-16 -54 -29 -105t-23 -103t-19 -108t-17 -122q-24 0 -68 -1t-92 -4t-92 -7t-64 -8
l90 388l64 470l-144 18l22 130l430 18l8 -20l-88 -340l12 -6q30 62 69 130t93 123t122 91t154 36q102 0 155 -58t53 -162q0 -98 -30 -199t-60 -209q-16 -62 -29 -108t-13 -84q0 -64 60 -64q38 0 92 50zM1064 1412q-28 -72 -59 -119t-64 -76t-67 -40t-66 -11q-52 0 -93 15
t-77 31q-32 14 -59 23t-55 9q-26 0 -52 -17t-58 -71l-66 22q56 126 116 184t148 58q56 0 90 -14t74 -32q28 -12 55 -21t57 -9q34 0 58 17t54 69z" />
    <glyph glyph-name="ncommaaccent" unicode="&#x146;" horiz-adv-x="1210" 
d="M1152 126q-48 -58 -117 -100t-163 -42q-42 0 -82 11t-70 35t-48 61t-18 89q0 74 23 166t53 194l50 168q16 58 16 92q0 28 -12 45t-44 17q-44 0 -88 -38t-84 -98t-73 -134t-55 -148q-16 -54 -29 -105t-23 -103t-19 -108t-17 -122q-24 0 -68 -1t-92 -4t-92 -7t-64 -8
l90 388l64 470l-144 18l22 130l430 18l8 -20l-88 -340l12 -6q30 62 69 130t93 123t122 91t154 36q102 0 155 -58t53 -162q0 -98 -30 -199t-60 -209q-16 -62 -29 -108t-13 -84q0 -64 60 -64q38 0 92 50zM384 -522q60 38 108 84t48 94q0 36 -26 44l-64 -58q-26 10 -48 37
t-22 67q0 64 41 100t105 36q76 0 110 -45t34 -101q0 -104 -69 -179t-179 -139z" />
    <glyph glyph-name="napostrophe" unicode="&#x149;" horiz-adv-x="1318" 
d="M1260 126q-48 -58 -117 -100t-163 -42q-42 0 -82 11t-70 35t-48 61t-18 89q0 74 23 166t53 194l50 168q16 58 16 92q0 28 -12 45t-44 17q-44 0 -88 -38t-84 -98t-73 -134t-55 -148q-16 -54 -29 -105t-23 -103t-19 -108t-17 -122q-24 0 -68 -1t-92 -4t-92 -7t-64 -8
l90 388l64 470l-144 18l22 130l430 18l8 -20l-88 -340l12 -6q30 62 69 130t93 123t122 91t154 36q102 0 155 -58t53 -162q0 -98 -30 -199t-60 -209q-16 -62 -29 -108t-13 -84q0 -64 60 -64q38 0 92 50zM4 1024q60 38 108 84t48 94q0 36 -26 44l-64 -58q-26 10 -48 37t-22 67
q0 64 41 100t105 36q76 0 110 -45t34 -101q0 -104 -69 -179t-179 -139z" />
    <glyph glyph-name="eng" unicode="&#x14b;" 
d="M784 708q4 28 8 51t4 41q0 28 -12 45t-44 17q-44 0 -88 -38t-84 -98t-73 -134t-55 -148q-16 -54 -29 -105t-23 -103t-19 -108t-17 -122q-24 0 -68 -1t-92 -4t-92 -7t-64 -8l90 388l64 470l-144 18l22 130l430 18l8 -20l-88 -340l12 -6q30 62 69 130t93 123t122 91t154 36
q102 0 155 -58t53 -162q0 -30 -5 -68t-13 -78l-106 -622q-20 -114 -59 -209t-100 -163t-147 -105t-198 -37q-144 0 -217 58t-73 142q0 82 49 136t135 54q82 0 115 -53t1 -141l-86 -10q-20 -46 5 -62t65 -16q92 0 133 73t65 207z" />
    <glyph glyph-name="ograve" unicode="&#xf2;" horiz-adv-x="1096" 
d="M452 100q78 0 138 84q65 88 99.5 241.5t34.5 282.5q0 196 -136 196q-67 0 -121 -61t-84.5 -155.5t-46.5 -195.5t-16 -194q0 -104 30.5 -151t101.5 -47zM424 -22q-406 0 -406 390q0 127 40.5 244.5t115 209.5t190.5 147t256 55q206 0 304 -102.5t98 -289.5
q0 -123 -39.5 -239t-113 -209t-189.5 -149.5t-256 -56.5zM716 1092l-190 266q-14 18 -24 37t-10 47q0 26 15 45t37 30t47 11t47 -8l82 -34l64 -366z" />
    <glyph glyph-name="oacute" unicode="&#xf3;" horiz-adv-x="1096" 
d="M452 100q78 0 138 84q65 88 99.5 241.5t34.5 282.5q0 196 -136 196q-67 0 -121 -61t-84.5 -155.5t-46.5 -195.5t-16 -194q0 -104 30.5 -151t101.5 -47zM424 -22q-406 0 -406 390q0 127 40.5 244.5t115 209.5t190.5 147t256 55q206 0 304 -102.5t98 -289.5
q0 -123 -39.5 -239t-113 -209t-189.5 -149.5t-256 -56.5zM540 1096l-60 40l190 362l104 22q16 4 35 2t34 -11t25 -24t10 -37q0 -30 -16 -53t-44 -49z" />
    <glyph glyph-name="ocircumflex" unicode="&#xf4;" horiz-adv-x="1096" 
d="M452 100q78 0 138 84q65 88 99.5 241.5t34.5 282.5q0 196 -136 196q-67 0 -121 -61t-84.5 -155.5t-46.5 -195.5t-16 -194q0 -104 30.5 -151t101.5 -47zM424 -22q-406 0 -406 390q0 127 40.5 244.5t115 209.5t190.5 147t256 55q206 0 304 -102.5t98 -289.5
q0 -123 -39.5 -239t-113 -209t-189.5 -149.5t-256 -56.5zM850 1102l-182 190l-270 -194l-56 54l250 320q12 8 46 21t68 13q44 0 66 -18t38 -60l110 -280z" />
    <glyph glyph-name="otilde" unicode="&#xf5;" horiz-adv-x="1096" 
d="M452 100q78 0 138 84q65 88 99.5 241.5t34.5 282.5q0 196 -136 196q-67 0 -121 -61t-84.5 -155.5t-46.5 -195.5t-16 -194q0 -104 30.5 -151t101.5 -47zM424 -22q-406 0 -406 390q0 127 40.5 244.5t115 209.5t190.5 147t256 55q206 0 304 -102.5t98 -289.5
q0 -123 -39.5 -239t-113 -209t-189.5 -149.5t-256 -56.5zM1026 1412q-28 -72 -59 -119t-64 -76t-67 -40t-66 -11q-52 0 -93 15t-77 31q-32 14 -59 23t-55 9q-26 0 -52 -17t-58 -71l-66 22q56 126 116 184t148 58q56 0 90 -14t74 -32q28 -12 55 -21t57 -9q34 0 58 17t54 69z
" />
    <glyph glyph-name="odieresis" unicode="&#xf6;" horiz-adv-x="1096" 
d="M452 100q78 0 138 84q65 88 99.5 241.5t34.5 282.5q0 196 -136 196q-67 0 -121 -61t-84.5 -155.5t-46.5 -195.5t-16 -194q0 -104 30.5 -151t101.5 -47zM424 -22q-406 0 -406 390q0 127 40.5 244.5t115 209.5t190.5 147t256 55q206 0 304 -102.5t98 -289.5
q0 -123 -39.5 -239t-113 -209t-189.5 -149.5t-256 -56.5zM854 1160q-68 0 -95 32t-27 78q0 32 11 63t32 55t52 38t69 14q52 0 86 -26t34 -84q0 -70 -43 -120t-119 -50zM440 1160q-68 0 -95 32t-27 78q0 32 11 63t32 55t52 38t69 14q52 0 86 -26t34 -84q0 -70 -43 -120
t-119 -50z" />
    <glyph glyph-name="omacron" unicode="&#x14d;" horiz-adv-x="1096" 
d="M452 100q78 0 138 84q65 88 99.5 241.5t34.5 282.5q0 196 -136 196q-67 0 -121 -61t-84.5 -155.5t-46.5 -195.5t-16 -194q0 -104 30.5 -151t101.5 -47zM424 -22q-406 0 -406 390q0 127 40.5 244.5t115 209.5t190.5 147t256 55q206 0 304 -102.5t98 -289.5
q0 -123 -39.5 -239t-113 -209t-189.5 -149.5t-256 -56.5zM368 1198l30 172h544l-30 -172h-544z" />
    <glyph glyph-name="obreve" unicode="&#x14f;" horiz-adv-x="1096" 
d="M452 100q78 0 138 84q65 88 99.5 241.5t34.5 282.5q0 196 -136 196q-67 0 -121 -61t-84.5 -155.5t-46.5 -195.5t-16 -194q0 -104 30.5 -151t101.5 -47zM424 -22q-406 0 -406 390q0 127 40.5 244.5t115 209.5t190.5 147t256 55q206 0 304 -102.5t98 -289.5
q0 -123 -39.5 -239t-113 -209t-189.5 -149.5t-256 -56.5zM998 1448q-18 -62 -48 -119t-74 -101t-104 -70t-138 -26q-76 0 -125 26t-76 70t-36 101t-3 119l96 18q6 -38 17 -66t32 -47t53 -29t82 -10q96 0 146 40t84 110z" />
    <glyph glyph-name="ohungarumlaut" unicode="&#x151;" horiz-adv-x="1096" 
d="M452 100q78 0 138 84q65 88 99.5 241.5t34.5 282.5q0 196 -136 196q-67 0 -121 -61t-84.5 -155.5t-46.5 -195.5t-16 -194q0 -104 30.5 -151t101.5 -47zM424 -22q-406 0 -406 390q0 127 40.5 244.5t115 209.5t190.5 147t256 55q206 0 304 -102.5t98 -289.5
q0 -123 -39.5 -239t-113 -209t-189.5 -149.5t-256 -56.5zM468 1096l-62 36l188 376l100 24q34 10 70 -5t36 -61q0 -32 -18 -57t-46 -53zM726 1132l186 376l100 26q36 10 71 -5t35 -61q0 -30 -18 -56t-46 -54l-268 -262z" />
    <glyph glyph-name="oslash" unicode="&#xf8;" horiz-adv-x="1096" 
d="M320 274l318 622q-12 4 -24 6t-26 2q-72 0 -122 -62t-83 -153t-48 -197t-15 -194v-24zM452 100q42 0 75 21t63 63q36 48 61 115t41 139t24 143t8 127q0 40 -6 74l-338 -666q32 -16 72 -16zM424 -22q-30 0 -58 2t-52 6l-84 -166l-114 54l76 150q-92 46 -133 135t-41 209
q0 126 40 244t116 210t189 147t257 55q22 0 42 -1t40 -3l78 152l110 -50l-68 -134q106 -44 153 -135t47 -221q0 -122 -39 -239t-115 -209t-187 -149t-257 -57z" />
    <glyph glyph-name="oslashacute" unicode="&#x1ff;" horiz-adv-x="1096" 
d="M540 1096l-60 40l190 362l104 22q16 4 35 2t34 -11t25 -24t10 -37q0 -30 -16 -53t-44 -49zM320 274l318 622q-12 4 -24 6t-26 2q-72 0 -122 -62t-83 -153t-48 -197t-15 -194v-24zM452 100q42 0 75 21t63 63q36 48 61 115t41 139t24 143t8 127q0 40 -6 74l-338 -666
q32 -16 72 -16zM424 -22q-30 0 -58 2t-52 6l-84 -166l-114 54l76 150q-92 46 -133 135t-41 209q0 126 40 244t116 210t189 147t257 55q22 0 42 -1t40 -3l78 152l110 -50l-68 -134q106 -44 153 -135t47 -221q0 -122 -39 -239t-115 -209t-187 -149t-257 -57z" />
    <glyph glyph-name="racute" unicode="&#x155;" horiz-adv-x="1028" 
d="M130 412l64 430l-148 22l22 130l410 16l10 -22l-88 -382l12 -6q32 78 71 154t89 136t111 97t137 37q38 0 73 -10t62 -31t43 -57t16 -86q0 -96 -55 -140t-139 -44q-20 0 -38 3t-40 7l-8 134q-50 0 -95 -33t-84 -90t-73 -133t-60 -164q-14 -44 -24 -85t-17 -85t-14 -93
t-13 -107q-30 0 -72 -2t-87 -6t-88 -8t-73 -10zM496 1096l-60 40l190 362l104 22q16 4 35 2t34 -11t25 -24t10 -37q0 -30 -16 -53t-44 -49z" />
    <glyph glyph-name="rcommaaccent" unicode="&#x157;" horiz-adv-x="1028" 
d="M130 412l64 430l-148 22l22 130l410 16l10 -22l-88 -382l12 -6q32 78 71 154t89 136t111 97t137 37q38 0 73 -10t62 -31t43 -57t16 -86q0 -96 -55 -140t-139 -44q-20 0 -38 3t-40 7l-8 134q-50 0 -95 -33t-84 -90t-73 -133t-60 -164q-14 -44 -24 -85t-17 -85t-14 -93
t-13 -107q-30 0 -72 -2t-87 -6t-88 -8t-73 -10zM24 -522q60 38 108 84t48 94q0 36 -26 44l-64 -58q-26 10 -48 37t-22 67q0 64 41 100t105 36q76 0 110 -45t34 -101q0 -104 -69 -179t-179 -139z" />
    <glyph glyph-name="rcaron" unicode="&#x159;" horiz-adv-x="1028" 
d="M130 412l64 430l-148 22l22 130l410 16l10 -22l-88 -382l12 -6q32 78 71 154t89 136t111 97t137 37q38 0 73 -10t62 -31t43 -57t16 -86q0 -96 -55 -140t-139 -44q-20 0 -38 3t-40 7l-8 134q-50 0 -95 -33t-84 -90t-73 -133t-60 -164q-14 -44 -24 -85t-17 -85t-14 -93
t-13 -107q-30 0 -72 -2t-87 -6t-88 -8t-73 -10zM724 1192q-30 -42 -63 -59t-75 -17q-32 0 -59 10t-37 18l-136 332l70 46l188 -202l262 200l56 -52z" />
    <glyph glyph-name="sacute" unicode="&#x15b;" horiz-adv-x="928" 
d="M188 182q-6 -16 -6 -26q0 -34 43 -50t115 -16q212 0 212 148q0 60 -45 91t-109 53q-50 18 -100 38t-91 53t-66 81t-25 122q0 82 36 146t96 109t140 69t168 24q68 0 127 -13t104 -40t71 -68t26 -99q0 -68 -39 -113t-115 -45q-48 0 -84 25t-36 67q0 24 7 48t25 48h62
q18 46 -25 64t-111 18q-86 0 -148 -33t-62 -107q0 -30 17 -53t45 -41t65 -33t77 -29q48 -18 95 -39t84 -54t61 -80t24 -113q0 -90 -38 -156t-103 -111t-152 -67t-185 -22q-174 0 -261 65t-87 169q0 78 44 123t116 45q52 0 87 -31t35 -77q0 -42 -30 -90h-64zM468 1096l-60 40
l190 362l104 22q16 4 35 2t34 -11t25 -24t10 -37q0 -30 -16 -53t-44 -49z" />
    <glyph glyph-name="scircumflex" unicode="&#x15d;" horiz-adv-x="928" 
d="M188 182q-6 -16 -6 -26q0 -34 43 -50t115 -16q212 0 212 148q0 60 -45 91t-109 53q-50 18 -100 38t-91 53t-66 81t-25 122q0 82 36 146t96 109t140 69t168 24q68 0 127 -13t104 -40t71 -68t26 -99q0 -68 -39 -113t-115 -45q-48 0 -84 25t-36 67q0 24 7 48t25 48h62
q18 46 -25 64t-111 18q-86 0 -148 -33t-62 -107q0 -30 17 -53t45 -41t65 -33t77 -29q48 -18 95 -39t84 -54t61 -80t24 -113q0 -90 -38 -156t-103 -111t-152 -67t-185 -22q-174 0 -261 65t-87 169q0 78 44 123t116 45q52 0 87 -31t35 -77q0 -42 -30 -90h-64zM778 1102
l-182 190l-270 -194l-56 54l250 320q12 8 46 21t68 13q44 0 66 -18t38 -60l110 -280z" />
    <glyph glyph-name="scaron" unicode="&#x161;" horiz-adv-x="928" 
d="M188 182q-6 -16 -6 -26q0 -34 43 -50t115 -16q212 0 212 148q0 60 -45 91t-109 53q-50 18 -100 38t-91 53t-66 81t-25 122q0 82 36 146t96 109t140 69t168 24q68 0 127 -13t104 -40t71 -68t26 -99q0 -68 -39 -113t-115 -45q-48 0 -84 25t-36 67q0 24 7 48t25 48h62
q18 46 -25 64t-111 18q-86 0 -148 -33t-62 -107q0 -30 17 -53t45 -41t65 -33t77 -29q48 -18 95 -39t84 -54t61 -80t24 -113q0 -90 -38 -156t-103 -111t-152 -67t-185 -22q-174 0 -261 65t-87 169q0 78 44 123t116 45q52 0 87 -31t35 -77q0 -42 -30 -90h-64zM706 1192
q-30 -42 -63 -59t-75 -17q-32 0 -59 10t-37 18l-136 332l70 46l188 -202l262 200l56 -52z" />
    <glyph glyph-name="scedilla" unicode="&#x15f;" horiz-adv-x="928" 
d="M230 -340q0 -44 62 -44q44 0 78 31t34 99q0 38 -21 60t-57 22q-20 0 -41 -2t-35 -6l-10 50l86 108q-162 4 -244 68t-82 166q0 78 44 123t116 45q52 0 87 -31t35 -77q0 -42 -30 -90h-64q-20 -46 24 -69t128 -23q212 0 212 148q0 60 -45 90t-109 54q-48 18 -98 37t-91 51
t-67 81t-26 125q0 82 36 146t96 109t140 69t168 24q68 0 127 -13t104 -40t71 -68t26 -99q0 -68 -39 -113t-115 -45q-48 0 -84 25t-36 67q0 24 7 48t25 48h62q18 46 -25 64t-111 18q-86 0 -148 -33t-62 -107q0 -32 17 -54t45 -40t65 -33t77 -29q48 -18 95 -40t84 -54t61 -79
t24 -113q0 -80 -30 -141t-83 -105t-125 -70t-154 -34l-70 -88q12 4 35 5t33 1q76 0 117 -38t41 -104q0 -40 -19 -78t-57 -67t-92 -47t-122 -18q-94 0 -135 38t-41 80q0 36 22 62t62 26q26 0 47 -14t25 -52z" />
    <glyph glyph-name="scommaaccent" unicode="&#x219;" horiz-adv-x="928" 
d="M188 182q-6 -16 -6 -26q0 -34 43 -50t115 -16q212 0 212 148q0 60 -45 91t-109 53q-50 18 -100 38t-91 53t-66 81t-25 122q0 82 36 146t96 109t140 69t168 24q68 0 127 -13t104 -40t71 -68t26 -99q0 -68 -39 -113t-115 -45q-48 0 -84 25t-36 67q0 24 7 48t25 48h62
q18 46 -25 64t-111 18q-86 0 -148 -33t-62 -107q0 -30 17 -53t45 -41t65 -33t77 -29q48 -18 95 -39t84 -54t61 -80t24 -113q0 -90 -38 -156t-103 -111t-152 -67t-185 -22q-174 0 -261 65t-87 169q0 78 44 123t116 45q52 0 87 -31t35 -77q0 -42 -30 -90h-64zM234 -522
q60 38 108 84t48 94q0 36 -26 44l-64 -58q-26 10 -48 37t-22 67q0 64 41 100t105 36q76 0 110 -45t34 -101q0 -104 -69 -179t-179 -139z" />
    <glyph glyph-name="tcaron" unicode="&#x165;" horiz-adv-x="750" 
d="M694 162q-68 -94 -155 -139t-183 -45q-76 0 -128 19t-83 51t-45 73t-14 87q0 58 12 127t28 163l64 352h-144l24 152h142l44 250l208 40h96l-50 -290h210l-24 -152h-208q-30 -168 -55 -303t-45 -269q-18 -124 82 -124q40 0 77 23t77 63zM586 1136q22 16 46 36t43 44t32 51
t13 59q0 74 -64 124l54 54q22 22 51 37t65 15q50 0 75 -33t25 -85q0 -56 -26 -108t-66 -99t-92 -89t-102 -76z" />
    <glyph glyph-name="uni0163" unicode="&#x163;" horiz-adv-x="750" 
d="M186 -340q0 -44 62 -44q44 0 78 31t34 99q0 38 -21 60t-57 22q-20 0 -41 -2t-35 -6l-10 50l90 114q-56 8 -94 29t-62 51t-34 67t-10 77q0 58 12 127t28 163l64 352h-144l24 152h142l44 250l208 40h96l-50 -290h210l-24 -152h-208q-30 -168 -55 -303t-45 -269
q-18 -124 82 -124q40 0 77 23t77 63l70 -78q-64 -86 -142 -131t-166 -51l-66 -84q12 4 35 5t33 1q76 0 117 -38t41 -104q0 -40 -19 -78t-57 -67t-92 -47t-122 -18q-94 0 -135 38t-41 80q0 36 22 62t62 26q26 0 47 -14t25 -52z" />
    <glyph glyph-name="uni021B" unicode="&#x21b;" horiz-adv-x="750" 
d="M694 162q-68 -94 -155 -139t-183 -45q-76 0 -128 19t-83 51t-45 73t-14 87q0 58 12 127t28 163l64 352h-144l24 152h142l44 250l208 40h96l-50 -290h210l-24 -152h-208q-30 -168 -55 -303t-45 -269q-18 -124 82 -124q40 0 77 23t77 63zM190 -522q60 38 108 84t48 94
q0 36 -26 44l-64 -58q-26 10 -48 37t-22 67q0 64 41 100t105 36q76 0 110 -45t34 -101q0 -104 -69 -179t-179 -139z" />
    <glyph glyph-name="tbar" unicode="&#x167;" horiz-adv-x="750" 
d="M694 162q-68 -94 -155 -139t-183 -45q-76 0 -128 19t-83 51t-45 73t-14 87q0 58 12 127t28 163l10 54h-152l28 148h150l28 150h-144l24 152h142l44 250l208 40h96l-50 -290h210l-24 -152h-208q-8 -40 -14 -77t-14 -73h212l-22 -148h-218q-12 -72 -23 -139t-21 -135
q-18 -124 82 -124q40 0 77 23t77 63z" />
    <glyph glyph-name="ugrave" unicode="&#xf9;" horiz-adv-x="1222" 
d="M1178 140q-40 -64 -109 -110t-153 -46q-100 0 -155 46t-55 144q0 26 5 59t23 95l-12 6q-28 -62 -64 -126t-86 -115t-116 -83t-152 -32q-118 0 -170 64t-52 166q0 22 3 46t7 48q22 122 53 267t59 277l-142 16l24 132l426 16l8 -18q-28 -110 -51 -213t-43 -193t-34 -165
t-24 -129q-10 -44 -10 -76q0 -30 13 -50t51 -20q42 0 84 35t80 92t71 131t57 154q16 56 29 106t23 102t18 108t16 122q24 0 68 1t93 4t92 7t65 8q-22 -100 -44 -201t-41 -200t-37 -190t-30 -169q-10 -50 -1 -78t57 -28q28 0 48 17t42 39zM718 1092l-190 266q-14 18 -24 37
t-10 47q0 26 15 45t37 30t47 11t47 -8l82 -34l64 -366z" />
    <glyph glyph-name="uacute" unicode="&#xfa;" horiz-adv-x="1222" 
d="M1178 140q-40 -64 -109 -110t-153 -46q-100 0 -155 46t-55 144q0 26 5 59t23 95l-12 6q-28 -62 -64 -126t-86 -115t-116 -83t-152 -32q-118 0 -170 64t-52 166q0 22 3 46t7 48q22 122 53 267t59 277l-142 16l24 132l426 16l8 -18q-28 -110 -51 -213t-43 -193t-34 -165
t-24 -129q-10 -44 -10 -76q0 -30 13 -50t51 -20q42 0 84 35t80 92t71 131t57 154q16 56 29 106t23 102t18 108t16 122q24 0 68 1t93 4t92 7t65 8q-22 -100 -44 -201t-41 -200t-37 -190t-30 -169q-10 -50 -1 -78t57 -28q28 0 48 17t42 39zM556 1096l-60 40l190 362l104 22
q16 4 35 2t34 -11t25 -24t10 -37q0 -30 -16 -53t-44 -49z" />
    <glyph glyph-name="ucircumflex" unicode="&#xfb;" horiz-adv-x="1222" 
d="M1178 140q-40 -64 -109 -110t-153 -46q-100 0 -155 46t-55 144q0 26 5 59t23 95l-12 6q-28 -62 -64 -126t-86 -115t-116 -83t-152 -32q-118 0 -170 64t-52 166q0 22 3 46t7 48q22 122 53 267t59 277l-142 16l24 132l426 16l8 -18q-28 -110 -51 -213t-43 -193t-34 -165
t-24 -129q-10 -44 -10 -76q0 -30 13 -50t51 -20q42 0 84 35t80 92t71 131t57 154q16 56 29 106t23 102t18 108t16 122q24 0 68 1t93 4t92 7t65 8q-22 -100 -44 -201t-41 -200t-37 -190t-30 -169q-10 -50 -1 -78t57 -28q28 0 48 17t42 39zM866 1102l-182 190l-270 -194
l-56 54l250 320q12 8 46 21t68 13q44 0 66 -18t38 -60l110 -280z" />
    <glyph glyph-name="utilde" unicode="&#x169;" horiz-adv-x="1222" 
d="M1178 140q-40 -64 -109 -110t-153 -46q-100 0 -155 46t-55 144q0 26 5 59t23 95l-12 6q-28 -62 -64 -126t-86 -115t-116 -83t-152 -32q-118 0 -170 64t-52 166q0 22 3 46t7 48q22 122 53 267t59 277l-142 16l24 132l426 16l8 -18q-28 -110 -51 -213t-43 -193t-34 -165
t-24 -129q-10 -44 -10 -76q0 -30 13 -50t51 -20q42 0 84 35t80 92t71 131t57 154q16 56 29 106t23 102t18 108t16 122q24 0 68 1t93 4t92 7t65 8q-22 -100 -44 -201t-41 -200t-37 -190t-30 -169q-10 -50 -1 -78t57 -28q28 0 48 17t42 39zM1042 1412q-28 -72 -59 -119
t-64 -76t-67 -40t-66 -11q-52 0 -93 15t-77 31q-32 14 -59 23t-55 9q-26 0 -52 -17t-58 -71l-66 22q56 126 116 184t148 58q56 0 90 -14t74 -32q28 -12 55 -21t57 -9q34 0 58 17t54 69z" />
    <glyph glyph-name="udieresis" unicode="&#xfc;" horiz-adv-x="1222" 
d="M1178 140q-40 -64 -109 -110t-153 -46q-100 0 -155 46t-55 144q0 26 5 59t23 95l-12 6q-28 -62 -64 -126t-86 -115t-116 -83t-152 -32q-118 0 -170 64t-52 166q0 22 3 46t7 48q22 122 53 267t59 277l-142 16l24 132l426 16l8 -18q-28 -110 -51 -213t-43 -193t-34 -165
t-24 -129q-10 -44 -10 -76q0 -30 13 -50t51 -20q42 0 84 35t80 92t71 131t57 154q16 56 29 106t23 102t18 108t16 122q24 0 68 1t93 4t92 7t65 8q-22 -100 -44 -201t-41 -200t-37 -190t-30 -169q-10 -50 -1 -78t57 -28q28 0 48 17t42 39zM870 1160q-68 0 -95 32t-27 78
q0 32 11 63t32 55t52 38t69 14q52 0 86 -26t34 -84q0 -70 -43 -120t-119 -50zM456 1160q-68 0 -95 32t-27 78q0 32 11 63t32 55t52 38t69 14q52 0 86 -26t34 -84q0 -70 -43 -120t-119 -50z" />
    <glyph glyph-name="umacron" unicode="&#x16b;" horiz-adv-x="1222" 
d="M1178 140q-40 -64 -109 -110t-153 -46q-100 0 -155 46t-55 144q0 26 5 59t23 95l-12 6q-28 -62 -64 -126t-86 -115t-116 -83t-152 -32q-118 0 -170 64t-52 166q0 22 3 46t7 48q22 122 53 267t59 277l-142 16l24 132l426 16l8 -18q-28 -110 -51 -213t-43 -193t-34 -165
t-24 -129q-10 -44 -10 -76q0 -30 13 -50t51 -20q42 0 84 35t80 92t71 131t57 154q16 56 29 106t23 102t18 108t16 122q24 0 68 1t93 4t92 7t65 8q-22 -100 -44 -201t-41 -200t-37 -190t-30 -169q-10 -50 -1 -78t57 -28q28 0 48 17t42 39zM384 1198l30 172h544l-30 -172h-544
z" />
    <glyph glyph-name="ubreve" unicode="&#x16d;" horiz-adv-x="1222" 
d="M1178 140q-40 -64 -109 -110t-153 -46q-100 0 -155 46t-55 144q0 26 5 59t23 95l-12 6q-28 -62 -64 -126t-86 -115t-116 -83t-152 -32q-118 0 -170 64t-52 166q0 22 3 46t7 48q22 122 53 267t59 277l-142 16l24 132l426 16l8 -18q-28 -110 -51 -213t-43 -193t-34 -165
t-24 -129q-10 -44 -10 -76q0 -30 13 -50t51 -20q42 0 84 35t80 92t71 131t57 154q16 56 29 106t23 102t18 108t16 122q24 0 68 1t93 4t92 7t65 8q-22 -100 -44 -201t-41 -200t-37 -190t-30 -169q-10 -50 -1 -78t57 -28q28 0 48 17t42 39zM1014 1448q-18 -62 -48 -119
t-74 -101t-104 -70t-138 -26q-76 0 -125 26t-76 70t-36 101t-3 119l96 18q6 -38 17 -66t32 -47t53 -29t82 -10q96 0 146 40t84 110z" />
    <glyph glyph-name="uring" unicode="&#x16f;" horiz-adv-x="1222" 
d="M1178 140q-40 -64 -109 -110t-153 -46q-100 0 -155 46t-55 144q0 26 5 59t23 95l-12 6q-28 -62 -64 -126t-86 -115t-116 -83t-152 -32q-118 0 -170 64t-52 166q0 22 3 46t7 48q22 122 53 267t59 277l-142 16l24 132l426 16l8 -18q-28 -110 -51 -213t-43 -193t-34 -165
t-24 -129q-10 -44 -10 -76q0 -30 13 -50t51 -20q42 0 84 35t80 92t71 131t57 154q16 56 29 106t23 102t18 108t16 122q24 0 68 1t93 4t92 7t65 8q-22 -100 -44 -201t-41 -200t-37 -190t-30 -169q-10 -50 -1 -78t57 -28q28 0 48 17t42 39zM906 1348q0 -48 -18 -92t-52 -76
t-81 -51t-103 -19q-98 0 -144 46t-46 124q0 52 19 96t54 75t82 49t103 18q92 0 139 -45t47 -125zM668 1214q56 0 82 39t26 85q0 34 -17 56t-59 22q-46 0 -77 -36t-31 -88q0 -30 15 -54t61 -24z" />
    <glyph glyph-name="uhungarumlaut" unicode="&#x171;" horiz-adv-x="1222" 
d="M1178 140q-40 -64 -109 -110t-153 -46q-100 0 -155 46t-55 144q0 26 5 59t23 95l-12 6q-28 -62 -64 -126t-86 -115t-116 -83t-152 -32q-118 0 -170 64t-52 166q0 22 3 46t7 48q22 122 53 267t59 277l-142 16l24 132l426 16l8 -18q-28 -110 -51 -213t-43 -193t-34 -165
t-24 -129q-10 -44 -10 -76q0 -30 13 -50t51 -20q42 0 84 35t80 92t71 131t57 154q16 56 29 106t23 102t18 108t16 122q24 0 68 1t93 4t92 7t65 8q-22 -100 -44 -201t-41 -200t-37 -190t-30 -169q-10 -50 -1 -78t57 -28q28 0 48 17t42 39zM474 1096l-62 36l188 376l100 24
q34 10 70 -5t36 -61q0 -32 -18 -57t-46 -53zM732 1132l186 376l100 26q36 10 71 -5t35 -61q0 -30 -18 -56t-46 -54l-268 -262z" />
    <glyph glyph-name="uogonek" unicode="&#x173;" horiz-adv-x="1222" 
d="M1076 -312q-18 -28 -44 -57t-61 -53t-80 -39t-103 -15q-88 0 -137 40t-49 112q0 50 21 94t56 81t79 70t92 63q-70 14 -107 58t-37 126q0 26 3 54t13 62l12 44l-12 6q-28 -62 -64 -126t-86 -115t-116 -83t-152 -32q-118 0 -170 64t-52 166q0 22 3 46t7 48q22 122 53 267
t59 277l-142 16l24 132l426 16l8 -18q-28 -110 -51 -213t-43 -193t-34 -165t-24 -129q-10 -44 -10 -76q0 -30 13 -50t51 -20q42 0 84 35t80 92t71 131t57 154q16 56 29 106t23 102t18 108t16 122q24 0 68 1t93 4t92 7t65 8q-22 -100 -44 -202t-41 -202t-37 -192t-30 -170
q-10 -50 -1 -78t57 -28q28 0 48 17t42 39l66 -66q-26 -40 -64 -74t-82 -62q-40 -24 -77 -56t-66 -67t-46 -74t-17 -79q0 -24 13 -42t47 -18q38 0 66 23t54 51z" />
    <glyph glyph-name="wgrave" unicode="&#x1e81;" horiz-adv-x="1686" 
d="M1324 698q-50 16 -84 59t-34 97q0 70 47 120t137 50q56 0 98 -20t70 -54t43 -80t15 -100q0 -76 -17 -163t-52 -175t-87 -170t-121 -145t-155 -101t-190 -38q-102 0 -179 33t-117 109q-54 -54 -131 -98t-191 -44q-54 0 -102 14t-83 45t-55 79t-20 114q0 20 2 42t6 44
q12 68 22 119t20 99t21 99t23 115q8 38 5 71t-35 33q-30 0 -52 -20t-52 -64l-88 60q36 60 77 98t84 60t87 30t88 8q92 0 145 -47t53 -141q0 -16 -2 -34t-6 -36q-14 -68 -25 -121t-21 -102t-21 -100t-23 -117q-4 -24 -7 -46t-3 -40q0 -46 19 -71t65 -25q50 0 94 32t78 78
q38 162 79 350t75 388q24 0 65 1t86 4t85 8t62 9q-24 -98 -49 -197t-46 -192t-37 -177t-26 -154q-2 -14 -3 -27t-1 -23q0 -110 118 -110q72 0 139 57t118 140t82 178t31 173q0 36 -13 67t-51 31zM1046 1092l-190 266q-14 18 -24 37t-10 47q0 26 15 45t37 30t47 11t47 -8
l82 -34l64 -366z" />
    <glyph glyph-name="wacute" unicode="&#x1e83;" horiz-adv-x="1686" 
d="M1324 698q-50 16 -84 59t-34 97q0 70 47 120t137 50q56 0 98 -20t70 -54t43 -80t15 -100q0 -76 -17 -163t-52 -175t-87 -170t-121 -145t-155 -101t-190 -38q-102 0 -179 33t-117 109q-54 -54 -131 -98t-191 -44q-54 0 -102 14t-83 45t-55 79t-20 114q0 20 2 42t6 44
q12 68 22 119t20 99t21 99t23 115q8 38 5 71t-35 33q-30 0 -52 -20t-52 -64l-88 60q36 60 77 98t84 60t87 30t88 8q92 0 145 -47t53 -141q0 -16 -2 -34t-6 -36q-14 -68 -25 -121t-21 -102t-21 -100t-23 -117q-4 -24 -7 -46t-3 -40q0 -46 19 -71t65 -25q50 0 94 32t78 78
q38 162 79 350t75 388q24 0 65 1t86 4t85 8t62 9q-24 -98 -49 -197t-46 -192t-37 -177t-26 -154q-2 -14 -3 -27t-1 -23q0 -110 118 -110q72 0 139 57t118 140t82 178t31 173q0 36 -13 67t-51 31zM892 1096l-60 40l190 362l104 22q16 4 35 2t34 -11t25 -24t10 -37
q0 -30 -16 -53t-44 -49z" />
    <glyph glyph-name="wcircumflex" unicode="&#x175;" horiz-adv-x="1686" 
d="M1324 698q-50 16 -84 59t-34 97q0 70 47 120t137 50q56 0 98 -20t70 -54t43 -80t15 -100q0 -76 -17 -163t-52 -175t-87 -170t-121 -145t-155 -101t-190 -38q-102 0 -179 33t-117 109q-54 -54 -131 -98t-191 -44q-54 0 -102 14t-83 45t-55 79t-20 114q0 20 2 42t6 44
q12 68 22 119t20 99t21 99t23 115q8 38 5 71t-35 33q-30 0 -52 -20t-52 -64l-88 60q36 60 77 98t84 60t87 30t88 8q92 0 145 -47t53 -141q0 -16 -2 -34t-6 -36q-14 -68 -25 -121t-21 -102t-21 -100t-23 -117q-4 -24 -7 -46t-3 -40q0 -46 19 -71t65 -25q50 0 94 32t78 78
q38 162 79 350t75 388q24 0 65 1t86 4t85 8t62 9q-24 -98 -49 -197t-46 -192t-37 -177t-26 -154q-2 -14 -3 -27t-1 -23q0 -110 118 -110q72 0 139 57t118 140t82 178t31 173q0 36 -13 67t-51 31zM1202 1102l-182 190l-270 -194l-56 54l250 320q12 8 46 21t68 13q44 0 66 -18
t38 -60l110 -280z" />
    <glyph glyph-name="wdieresis" unicode="&#x1e85;" horiz-adv-x="1686" 
d="M1324 698q-50 16 -84 59t-34 97q0 70 47 120t137 50q56 0 98 -20t70 -54t43 -80t15 -100q0 -76 -17 -163t-52 -175t-87 -170t-121 -145t-155 -101t-190 -38q-102 0 -179 33t-117 109q-54 -54 -131 -98t-191 -44q-54 0 -102 14t-83 45t-55 79t-20 114q0 20 2 42t6 44
q12 68 22 119t20 99t21 99t23 115q8 38 5 71t-35 33q-30 0 -52 -20t-52 -64l-88 60q36 60 77 98t84 60t87 30t88 8q92 0 145 -47t53 -141q0 -16 -2 -34t-6 -36q-14 -68 -25 -121t-21 -102t-21 -100t-23 -117q-4 -24 -7 -46t-3 -40q0 -46 19 -71t65 -25q50 0 94 32t78 78
q38 162 79 350t75 388q24 0 65 1t86 4t85 8t62 9q-24 -98 -49 -197t-46 -192t-37 -177t-26 -154q-2 -14 -3 -27t-1 -23q0 -110 118 -110q72 0 139 57t118 140t82 178t31 173q0 36 -13 67t-51 31zM1206 1160q-68 0 -95 32t-27 78q0 32 11 63t32 55t52 38t69 14q52 0 86 -26
t34 -84q0 -70 -43 -120t-119 -50zM792 1160q-68 0 -95 32t-27 78q0 32 11 63t32 55t52 38t69 14q52 0 86 -26t34 -84q0 -70 -43 -120t-119 -50z" />
    <glyph glyph-name="ygrave" unicode="&#x1ef3;" horiz-adv-x="1116" 
d="M68 -248q-28 -72 64 -72q90 0 171 78t171 206q-48 194 -96 379t-100 361q-18 64 -32 89t-42 25q-32 0 -49 -32t-45 -90l-102 46q20 56 46 105t61 85t82 57t113 21q88 0 142 -47t82 -149q44 -156 79 -290t73 -282q40 64 79 132t69 130t49 115t19 87q0 30 -13 51t-41 25
l-58 -74q-46 16 -72 57t-26 93q0 76 51 121t135 45q102 0 149 -63t47 -159q0 -68 -31 -154t-77 -176t-100 -178t-102 -162q-84 -130 -157 -233t-147 -174t-158 -109t-190 -38q-124 0 -191 54t-67 148q0 84 53 129t121 45q56 0 99 -30t43 -100q0 -28 -8 -58zM710 1092
l-190 266q-14 18 -24 37t-10 47q0 26 15 45t37 30t47 11t47 -8l82 -34l64 -366z" />
    <glyph glyph-name="yacute" unicode="&#xfd;" horiz-adv-x="1116" 
d="M68 -248q-28 -72 64 -72q90 0 171 78t171 206q-48 194 -96 379t-100 361q-18 64 -32 89t-42 25q-32 0 -49 -32t-45 -90l-102 46q20 56 46 105t61 85t82 57t113 21q88 0 142 -47t82 -149q44 -156 79 -290t73 -282q40 64 79 132t69 130t49 115t19 87q0 30 -13 51t-41 25
l-58 -74q-46 16 -72 57t-26 93q0 76 51 121t135 45q102 0 149 -63t47 -159q0 -68 -31 -154t-77 -176t-100 -178t-102 -162q-84 -130 -157 -233t-147 -174t-158 -109t-190 -38q-124 0 -191 54t-67 148q0 84 53 129t121 45q56 0 99 -30t43 -100q0 -28 -8 -58zM540 1096l-60 40
l190 362l104 22q16 4 35 2t34 -11t25 -24t10 -37q0 -30 -16 -53t-44 -49z" />
    <glyph glyph-name="ycircumflex" unicode="&#x177;" horiz-adv-x="1116" 
d="M68 -248q-28 -72 64 -72q90 0 171 78t171 206q-48 194 -96 379t-100 361q-18 64 -32 89t-42 25q-32 0 -49 -32t-45 -90l-102 46q20 56 46 105t61 85t82 57t113 21q88 0 142 -47t82 -149q44 -156 79 -290t73 -282q40 64 79 132t69 130t49 115t19 87q0 30 -13 51t-41 25
l-58 -74q-46 16 -72 57t-26 93q0 76 51 121t135 45q102 0 149 -63t47 -159q0 -68 -31 -154t-77 -176t-100 -178t-102 -162q-84 -130 -157 -233t-147 -174t-158 -109t-190 -38q-124 0 -191 54t-67 148q0 84 53 129t121 45q56 0 99 -30t43 -100q0 -28 -8 -58zM850 1102
l-182 190l-270 -194l-56 54l250 320q12 8 46 21t68 13q44 0 66 -18t38 -60l110 -280z" />
    <glyph glyph-name="ydieresis" unicode="&#xff;" horiz-adv-x="1116" 
d="M68 -248q-28 -72 64 -72q90 0 171 78t171 206q-48 194 -96 379t-100 361q-18 64 -32 89t-42 25q-32 0 -49 -32t-45 -90l-102 46q20 56 46 105t61 85t82 57t113 21q88 0 142 -47t82 -149q44 -156 79 -290t73 -282q40 64 79 132t69 130t49 115t19 87q0 30 -13 51t-41 25
l-58 -74q-46 16 -72 57t-26 93q0 76 51 121t135 45q102 0 149 -63t47 -159q0 -68 -31 -154t-77 -176t-100 -178t-102 -162q-84 -130 -157 -233t-147 -174t-158 -109t-190 -38q-124 0 -191 54t-67 148q0 84 53 129t121 45q56 0 99 -30t43 -100q0 -28 -8 -58zM854 1160
q-68 0 -95 32t-27 78q0 32 11 63t32 55t52 38t69 14q52 0 86 -26t34 -84q0 -70 -43 -120t-119 -50zM440 1160q-68 0 -95 32t-27 78q0 32 11 63t32 55t52 38t69 14q52 0 86 -26t34 -84q0 -70 -43 -120t-119 -50z" />
    <glyph glyph-name="zacute" unicode="&#x17a;" horiz-adv-x="1084" 
d="M908 434l100 -16q-51 -237 -136 -338.5t-198 -101.5q-62 0 -109.5 16t-104.5 52l-186 114q-26 -94 -71 -138t-101 -44q-54 0 -81 31.5t-27 74.5q0 65 59 113.5t159 58.5l428 452q-235 26 -332 28q-57 1 -81.5 -24.5t-54.5 -109.5l-98 22q41 152 88.5 240.5t103.5 124
t134 35.5q55 0 102.5 -19.5t107.5 -58.5l162 -104q24 93 74 137.5t106 44.5q43 0 70.5 -27t27.5 -71q0 -59 -53.5 -109.5t-146.5 -66.5q-27 -31 -430 -462q173 -11 330 -14q60 -2 89.5 28t68.5 132zM514 1096l-60 40l190 362l104 22q16 4 35 2t34 -11t25 -24t10 -37
q0 -30 -16 -53t-44 -49z" />
    <glyph glyph-name="zcaron" horiz-adv-x="1084" 
d="M908 434l100 -16q-51 -237 -136 -338.5t-198 -101.5q-62 0 -109.5 16t-104.5 52l-186 114q-26 -94 -71 -138t-101 -44q-54 0 -81 31.5t-27 74.5q0 65 59 113.5t159 58.5l428 452q-235 26 -332 28q-57 1 -81.5 -24.5t-54.5 -109.5l-98 22q41 152 88.5 240.5t103.5 124
t134 35.5q55 0 102.5 -19.5t107.5 -58.5l162 -104q24 93 74 137.5t106 44.5q43 0 70.5 -27t27.5 -71q0 -59 -53.5 -109.5t-146.5 -66.5q-27 -31 -430 -462q173 -11 330 -14q60 -2 89.5 28t68.5 132zM752 1192q-30 -42 -63 -59t-75 -17q-32 0 -59 10t-37 18l-136 332l70 46
l188 -202l262 200l56 -52z" />
    <glyph glyph-name="zcaron" unicode="&#x17e;" horiz-adv-x="1084" 
d="M908 434l100 -16q-51 -237 -136 -338.5t-198 -101.5q-62 0 -109.5 16t-104.5 52l-186 114q-26 -94 -71 -138t-101 -44q-54 0 -81 31.5t-27 74.5q0 65 59 113.5t159 58.5l428 452q-235 26 -332 28q-57 1 -81.5 -24.5t-54.5 -109.5l-98 22q41 152 88.5 240.5t103.5 124
t134 35.5q55 0 102.5 -19.5t107.5 -58.5l162 -104q24 93 74 137.5t106 44.5q43 0 70.5 -27t27.5 -71q0 -59 -53.5 -109.5t-146.5 -66.5q-27 -31 -430 -462q173 -11 330 -14q60 -2 89.5 28t68.5 132zM752 1192q-30 -42 -63 -59t-75 -17q-32 0 -59 10t-37 18l-136 332l70 46
l188 -202l262 200l56 -52z" />
    <glyph glyph-name="zdotaccent" unicode="&#x17c;" horiz-adv-x="1084" 
d="M908 434l100 -16q-51 -237 -136 -338.5t-198 -101.5q-62 0 -109.5 16t-104.5 52l-186 114q-26 -94 -71 -138t-101 -44q-54 0 -81 31.5t-27 74.5q0 65 59 113.5t159 58.5l428 452q-235 26 -332 28q-57 1 -81.5 -24.5t-54.5 -109.5l-98 22q41 152 88.5 240.5t103.5 124
t134 35.5q55 0 102.5 -19.5t107.5 -58.5l162 -104q24 93 74 137.5t106 44.5q43 0 70.5 -27t27.5 -71q0 -59 -53.5 -109.5t-146.5 -66.5q-27 -31 -430 -462q173 -11 330 -14q60 -2 89.5 28t68.5 132zM612 1140q-44 0 -73 12t-47 31t-25 44t-7 51q0 90 60 145t150 55
q70 0 111 -33t41 -107q0 -90 -60 -144t-150 -54z" />
    <glyph glyph-name="Agrave" unicode="&#xc0;" horiz-adv-x="1388" 
d="M700 1026h-4l-254 -476h334zM656 0l26 152l140 16l-30 226h-424l-114 -226l132 -16l-26 -152h-448l26 152l122 16l662 1234h226l216 -1234l128 -16l-26 -152h-610zM686 1624q-40 20 -60 41t-20 57q0 40 32 62t72 30l82 16l250 -308l-50 -58z" />
    <glyph glyph-name="Aacute" unicode="&#xc1;" horiz-adv-x="1388" 
d="M700 1026h-4l-254 -476h334zM656 0l26 152l140 16l-30 226h-424l-114 -226l132 -16l-26 -152h-448l26 152l122 16l662 1234h226l216 -1234l128 -16l-26 -152h-610zM704 1468l-46 60l282 302l92 -22q48 -10 65 -29t17 -51q0 -38 -25 -63t-67 -45z" />
    <glyph glyph-name="Acircumflex" unicode="&#xc2;" horiz-adv-x="1388" 
d="M700 1026h-4l-254 -476h334zM656 0l26 152l140 16l-30 226h-424l-114 -226l132 -16l-26 -152h-448l26 152l122 16l662 1234h226l216 -1234l128 -16l-26 -152h-610zM1106 1468l-236 160l-316 -170l-46 70l280 268q12 8 47 20t69 12q44 0 67 -19t45 -57l152 -232z" />
    <glyph glyph-name="Atilde" unicode="&#xc3;" horiz-adv-x="1388" 
d="M700 1026h-4l-254 -476h334zM656 0l26 152l140 16l-30 226h-424l-114 -226l132 -16l-26 -152h-448l26 152l122 16l662 1234h226l216 -1234l128 -16l-26 -152h-610zM1230 1758q-28 -72 -59 -119t-64 -76t-67 -40t-66 -11q-52 0 -93 15t-77 31q-32 14 -59 23t-55 9
q-26 0 -52 -17t-58 -71l-66 22q56 126 116 184t148 58q56 0 90 -14t74 -32q28 -12 55 -21t57 -9q34 0 58 17t54 69z" />
    <glyph glyph-name="Adieresis" unicode="&#xc4;" horiz-adv-x="1388" 
d="M700 1026h-4l-254 -476h334zM656 0l26 152l140 16l-30 226h-424l-114 -226l132 -16l-26 -152h-448l26 152l122 16l662 1234h226l216 -1234l128 -16l-26 -152h-610zM1060 1510q-68 0 -95 33t-27 75q0 30 12 61t33 56t52 40t69 15q52 0 86 -26t34 -80q0 -74 -45 -124
t-119 -50zM646 1510q-68 0 -95 33t-27 75q0 30 12 61t33 56t52 40t69 15q52 0 86 -26t34 -80q0 -74 -45 -124t-119 -50z" />
    <glyph glyph-name="Amacron" unicode="&#x100;" horiz-adv-x="1388" 
d="M700 1026h-4l-254 -476h334zM656 0l26 152l140 16l-30 226h-424l-114 -226l132 -16l-26 -152h-448l26 152l122 16l662 1234h226l216 -1234l128 -16l-26 -152h-610zM578 1554l30 172h544l-30 -172h-544z" />
    <glyph glyph-name="Abreve" unicode="&#x102;" horiz-adv-x="1388" 
d="M700 1026h-4l-254 -476h334zM656 0l26 152l140 16l-30 226h-424l-114 -226l132 -16l-26 -152h-448l26 152l122 16l662 1234h226l216 -1234l128 -16l-26 -152h-610zM1198 1790q-16 -60 -44 -114t-71 -93t-101 -62t-136 -23q-76 0 -125 22t-77 61t-37 93t-3 116l86 18
q14 -70 52 -106t134 -36t147 36t83 104z" />
    <glyph glyph-name="Aring" unicode="&#xc5;" horiz-adv-x="1388" 
d="M1096 1702q0 -48 -18 -92t-52 -76t-81 -51t-103 -19q-98 0 -144 46t-46 124q0 52 19 96t54 75t82 49t103 18q92 0 139 -45t47 -125zM858 1568q56 0 82 39t26 85q0 34 -17 56t-59 22q-46 0 -77 -36t-31 -88q0 -30 15 -54t61 -24zM700 1026h-4l-254 -476h334zM656 0l26 152
l140 16l-30 226h-424l-114 -226l132 -16l-26 -152h-448l26 152l122 16l662 1234h226l216 -1234l128 -16l-26 -152h-610z" />
    <glyph glyph-name="Aringacute" unicode="&#x1fa;" horiz-adv-x="1388" 
d="M852 1478q56 0 82 39t26 85q0 34 -17 56t-59 22q-46 0 -77 -36t-31 -88q0 -30 15 -54t61 -24zM730 1798l-46 60l282 302l92 -22q48 -10 65 -29t17 -51q0 -38 -25 -63t-67 -45zM700 1026h-4l-254 -476h334zM1090 1612q0 -70 -38 -129t-104 -87l216 -1228l128 -16l-26 -152
h-610l26 152l140 16l-30 226h-424l-114 -226l132 -16l-26 -152h-448l26 152l122 16l660 1230q-74 42 -74 146q0 52 19 96t54 75t82 49t103 18q92 0 139 -45t47 -125z" />
    <glyph glyph-name="Aogonek" unicode="&#x104;" horiz-adv-x="1388" 
d="M700 1026h-4l-254 -476h334zM1106 -312q-18 -28 -44 -57t-61 -53t-80 -39t-103 -15q-88 0 -137 40t-49 112q0 54 24 100t63 86t88 74t101 64h-252l26 152l140 16l-30 226h-424l-114 -226l132 -16l-26 -152h-448l26 152l122 16l662 1234h226l216 -1234l128 -16l-26 -152
h-212q-36 -30 -71 -62t-64 -67t-46 -73t-17 -76q0 -24 13 -42t47 -18q38 0 66 23t54 51z" />
    <glyph glyph-name="AEacute" unicode="&#x1fc;" horiz-adv-x="2030" 
d="M664 1400h1356l-62 -438h-138q-4 86 -20 140t-53 84t-98 41t-151 11h-108l-82 -470h50q48 0 84 11t64 36t50 67t44 104h110l-104 -592h-114q2 74 -4 120t-26 72t-54 34t-86 8h-38l-80 -462h104q110 0 186 16t130 55t90 103t70 162h140l-104 -502h-1086l26 150l128 16
l80 452h-376l-280 -450l136 -16l-26 -152h-482l26 152l124 16l686 1068l-138 12zM978 1238l-296 -468h314l82 468h-100zM1252 1468l-46 60l282 302l92 -22q48 -10 65 -29t17 -51q0 -38 -25 -63t-67 -45z" />
    <glyph glyph-name="Cacute" unicode="&#x106;" horiz-adv-x="1290" 
d="M1210 446q-40 -144 -109 -235t-153 -143t-172 -71t-162 -19q-120 0 -220 32t-172 99t-112 172t-40 251q0 200 62 364t165 281t238 181t281 64q72 0 124 -13t87 -28t57 -27t38 -12q22 0 36 17t30 45h122l-68 -464h-146q-4 78 -18 138t-42 102t-74 64t-114 22
q-86 0 -152 -36t-115 -97t-83 -139t-54 -162t-29 -168t-9 -154q0 -186 68 -274t210 -88q134 0 227 75t157 257zM718 1468l-46 60l282 302l92 -22q48 -10 65 -29t17 -51q0 -38 -25 -63t-67 -45z" />
    <glyph glyph-name="Ccircumflex" unicode="&#x108;" horiz-adv-x="1290" 
d="M1210 446q-40 -144 -109 -235t-153 -143t-172 -71t-162 -19q-120 0 -220 32t-172 99t-112 172t-40 251q0 200 62 364t165 281t238 181t281 64q72 0 124 -13t87 -28t57 -27t38 -12q22 0 36 17t30 45h122l-68 -464h-146q-4 78 -18 138t-42 102t-74 64t-114 22
q-86 0 -152 -36t-115 -97t-83 -139t-54 -162t-29 -168t-9 -154q0 -186 68 -274t210 -88q134 0 227 75t157 257zM1120 1468l-236 160l-316 -170l-46 70l280 268q12 8 47 20t69 12q44 0 67 -19t45 -57l152 -232z" />
    <glyph glyph-name="Ccaron" unicode="&#x10c;" horiz-adv-x="1290" 
d="M1210 446q-40 -144 -109 -235t-153 -143t-172 -71t-162 -19q-120 0 -220 32t-172 99t-112 172t-40 251q0 200 62 364t165 281t238 181t281 64q72 0 124 -13t87 -28t57 -27t38 -12q22 0 36 17t30 45h122l-68 -464h-146q-4 78 -18 138t-42 102t-74 64t-114 22
q-86 0 -152 -36t-115 -97t-83 -139t-54 -162t-29 -168t-9 -154q0 -186 68 -274t210 -88q134 0 227 75t157 257zM964 1512q-16 -10 -44 -21t-62 -11q-44 0 -70 18t-48 58l-150 234l72 60l228 -174l306 174l54 -70z" />
    <glyph glyph-name="Cdotaccent" unicode="&#x10a;" horiz-adv-x="1290" 
d="M1210 446q-40 -144 -109 -235t-153 -143t-172 -71t-162 -19q-120 0 -220 32t-172 99t-112 172t-40 251q0 200 62 364t165 281t238 181t281 64q72 0 124 -13t87 -28t57 -27t38 -12q22 0 36 17t30 45h122l-68 -464h-146q-4 78 -18 138t-42 102t-74 64t-114 22
q-86 0 -152 -36t-115 -97t-83 -139t-54 -162t-29 -168t-9 -154q0 -186 68 -274t210 -88q134 0 227 75t157 257zM860 1502q-44 0 -73 12t-47 31t-25 44t-7 51q0 90 60 145t150 55q70 0 111 -33t41 -107q0 -90 -60 -144t-150 -54z" />
    <glyph glyph-name="Ccedilla" unicode="&#xc7;" horiz-adv-x="1290" 
d="M456 -340q0 -44 62 -44q44 0 78 31t34 99q0 38 -21 60t-57 22q-20 0 -41 -2t-35 -6l-10 50l88 110q-108 8 -198 44t-153 103t-98 168t-35 237q0 200 62 364t165 281t238 181t281 64q72 0 124 -13t87 -28t57 -27t38 -12q22 0 36 17t30 45h122l-68 -464h-146q-4 78 -18 138
t-42 102t-74 64t-114 22q-86 0 -152 -36t-115 -97t-83 -139t-54 -162t-29 -168t-9 -154q0 -186 68 -274t210 -88q134 0 227 75t157 257l142 -34q-36 -134 -100 -222t-140 -141t-158 -76t-156 -27l-66 -84q12 4 35 5t33 1q76 0 117 -38t41 -104q0 -40 -19 -78t-57 -67
t-92 -47t-122 -18q-94 0 -135 38t-41 80q0 36 22 62t62 26q26 0 47 -14t25 -52z" />
    <glyph glyph-name="Dcaron" unicode="&#x10e;" horiz-adv-x="1436" 
d="M494 164q140 0 243 56t172 152t103 224t34 270q0 114 -27 186t-78 113t-122 55t-157 14h-30l-186 -1070h48zM-32 0l26 154l138 14l186 1066l-136 12l28 154h508q146 0 268 -28t208 -91t134 -166t48 -253q0 -198 -64 -357t-184 -271t-294 -173t-394 -61h-472zM878 1512
q-16 -10 -44 -21t-62 -11q-44 0 -70 18t-48 58l-150 234l72 60l228 -174l306 174l54 -70z" />
    <glyph glyph-name="Dcroat" unicode="&#x110;" horiz-adv-x="1460" 
d="M518 164q140 0 243 56t172 152t103 224t34 270q0 114 -27 186t-78 113t-122 55t-157 14h-30l-78 -444h288l-24 -142h-288l-84 -484h48zM98 790h166l78 444l-136 12l28 154h508q146 0 268 -28t208 -91t134 -166t48 -253q0 -198 -64 -357t-184 -271t-294 -173t-394 -61
h-472l26 154l138 14l84 480h-168z" />
    <glyph glyph-name="Egrave" unicode="&#xc8;" horiz-adv-x="1270" 
d="M-20 0l24 150l128 16l186 1066l-124 16l28 152h1038l-62 -438h-140q-4 86 -20 140t-53 84t-97 41t-150 11h-108l-78 -456h48q48 0 83 11t62 36t49 67t44 104h112l-104 -592h-116q2 74 -4 120t-25 72t-52 34t-83 8h-38l-82 -476h102q110 0 185 16t128 55t90 103t69 162
h144l-102 -502h-1082zM618 1624q-40 20 -60 41t-20 57q0 40 32 62t72 30l82 16l250 -308l-50 -58z" />
    <glyph glyph-name="Eacute" unicode="&#xc9;" horiz-adv-x="1270" 
d="M-20 0l24 150l128 16l186 1066l-124 16l28 152h1038l-62 -438h-140q-4 86 -20 140t-53 84t-97 41t-150 11h-108l-78 -456h48q48 0 83 11t62 36t49 67t44 104h112l-104 -592h-116q2 74 -4 120t-25 72t-52 34t-83 8h-38l-82 -476h102q110 0 185 16t128 55t90 103t69 162
h144l-102 -502h-1082zM636 1468l-46 60l282 302l92 -22q48 -10 65 -29t17 -51q0 -38 -25 -63t-67 -45z" />
    <glyph glyph-name="Ecircumflex" unicode="&#xca;" horiz-adv-x="1270" 
d="M-20 0l24 150l128 16l186 1066l-124 16l28 152h1038l-62 -438h-140q-4 86 -20 140t-53 84t-97 41t-150 11h-108l-78 -456h48q48 0 83 11t62 36t49 67t44 104h112l-104 -592h-116q2 74 -4 120t-25 72t-52 34t-83 8h-38l-82 -476h102q110 0 185 16t128 55t90 103t69 162
h144l-102 -502h-1082zM1038 1468l-236 160l-316 -170l-46 70l280 268q12 8 47 20t69 12q44 0 67 -19t45 -57l152 -232z" />
    <glyph glyph-name="Ecaron" unicode="&#x11a;" horiz-adv-x="1270" 
d="M-20 0l24 150l128 16l186 1066l-124 16l28 152h1038l-62 -438h-140q-4 86 -20 140t-53 84t-97 41t-150 11h-108l-78 -456h48q48 0 83 11t62 36t49 67t44 104h112l-104 -592h-116q2 74 -4 120t-25 72t-52 34t-83 8h-38l-82 -476h102q110 0 185 16t128 55t90 103t69 162
h144l-102 -502h-1082zM882 1512q-16 -10 -44 -21t-62 -11q-44 0 -70 18t-48 58l-150 234l72 60l228 -174l306 174l54 -70z" />
    <glyph glyph-name="Edieresis" unicode="&#xcb;" horiz-adv-x="1270" 
d="M-20 0l24 150l128 16l186 1066l-124 16l28 152h1038l-62 -438h-140q-4 86 -20 140t-53 84t-97 41t-150 11h-108l-78 -456h48q48 0 83 11t62 36t49 67t44 104h112l-104 -592h-116q2 74 -4 120t-25 72t-52 34t-83 8h-38l-82 -476h102q110 0 185 16t128 55t90 103t69 162
h144l-102 -502h-1082zM992 1510q-68 0 -95 33t-27 75q0 30 12 61t33 56t52 40t69 15q52 0 86 -26t34 -80q0 -74 -45 -124t-119 -50zM578 1510q-68 0 -95 33t-27 75q0 30 12 61t33 56t52 40t69 15q52 0 86 -26t34 -80q0 -74 -45 -124t-119 -50z" />
    <glyph glyph-name="Emacron" unicode="&#x112;" horiz-adv-x="1270" 
d="M-20 0l24 150l128 16l186 1066l-124 16l28 152h1038l-62 -438h-140q-4 86 -20 140t-53 84t-97 41t-150 11h-108l-78 -456h48q48 0 83 11t62 36t49 67t44 104h112l-104 -592h-116q2 74 -4 120t-25 72t-52 34t-83 8h-38l-82 -476h102q110 0 185 16t128 55t90 103t69 162
h144l-102 -502h-1082zM510 1554l30 172h544l-30 -172h-544z" />
    <glyph glyph-name="Ebreve" unicode="&#x114;" horiz-adv-x="1270" 
d="M-20 0l24 150l128 16l186 1066l-124 16l28 152h1038l-62 -438h-140q-4 86 -20 140t-53 84t-97 41t-150 11h-108l-78 -456h48q48 0 83 11t62 36t49 67t44 104h112l-104 -592h-116q2 74 -4 120t-25 72t-52 34t-83 8h-38l-82 -476h102q110 0 185 16t128 55t90 103t69 162
h144l-102 -502h-1082zM1130 1790q-16 -60 -44 -114t-71 -93t-101 -62t-136 -23q-76 0 -125 22t-77 61t-37 93t-3 116l86 18q14 -70 52 -106t134 -36t147 36t83 104z" />
    <glyph glyph-name="Edotaccent" unicode="&#x116;" horiz-adv-x="1270" 
d="M-20 0l24 150l128 16l186 1066l-124 16l28 152h1038l-62 -438h-140q-4 86 -20 140t-53 84t-97 41t-150 11h-108l-78 -456h48q48 0 83 11t62 36t49 67t44 104h112l-104 -592h-116q2 74 -4 120t-25 72t-52 34t-83 8h-38l-82 -476h102q110 0 185 16t128 55t90 103t69 162
h144l-102 -502h-1082zM778 1502q-44 0 -73 12t-47 31t-25 44t-7 51q0 90 60 145t150 55q70 0 111 -33t41 -107q0 -90 -60 -144t-150 -54z" />
    <glyph glyph-name="Eogonek" unicode="&#x118;" horiz-adv-x="1270" 
d="M986 -312q-18 -28 -44 -57t-61 -53t-80 -39t-103 -15q-88 0 -137 40t-49 112q0 54 24 100t63 86t88 74t101 64h-808l24 150l128 16l186 1066l-124 16l28 152h1038l-62 -438h-140q-4 86 -20 140t-53 84t-97 41t-150 11h-108l-78 -456h48q48 0 83 11t62 36t49 67t44 104
h112l-104 -592h-116q2 74 -4 120t-25 72t-52 34t-83 8h-38l-82 -476h102q110 0 185 16t128 55t90 103t69 162h144l-102 -502q-82 -4 -143 -30t-101 -65t-61 -85t-21 -88q0 -32 13 -51t47 -19q38 0 66 23t54 51z" />
    <glyph glyph-name="Gcircumflex" unicode="&#x11c;" horiz-adv-x="1396" 
d="M1228 498l-64 -356q-96 -70 -240 -117t-314 -47q-116 0 -215 31t-171 97t-113 169t-41 247q0 194 59 359t163 285t242 188t298 68q68 0 118 -12t86 -26t62 -26t48 -12t36 15t28 43h132l-68 -464h-144q-10 178 -75 252t-201 74q-88 0 -156 -37t-118 -98t-83 -141t-53 -164
t-29 -166t-9 -150q0 -172 63 -267t207 -95q122 0 200 44l52 304l-158 16l26 152h582l-26 -152zM1120 1468l-236 160l-316 -170l-46 70l280 268q12 8 47 20t69 12q44 0 67 -19t45 -57l152 -232z" />
    <glyph glyph-name="Gbreve" unicode="&#x11e;" horiz-adv-x="1396" 
d="M1228 498l-64 -356q-96 -70 -240 -117t-314 -47q-116 0 -215 31t-171 97t-113 169t-41 247q0 194 59 359t163 285t242 188t298 68q68 0 118 -12t86 -26t62 -26t48 -12t36 15t28 43h132l-68 -464h-144q-10 178 -75 252t-201 74q-88 0 -156 -37t-118 -98t-83 -141t-53 -164
t-29 -166t-9 -150q0 -172 63 -267t207 -95q122 0 200 44l52 304l-158 16l26 152h582l-26 -152zM1212 1790q-16 -60 -44 -114t-71 -93t-101 -62t-136 -23q-76 0 -125 22t-77 61t-37 93t-3 116l86 18q14 -70 52 -106t134 -36t147 36t83 104z" />
    <glyph glyph-name="Gdotaccent" unicode="&#x120;" horiz-adv-x="1396" 
d="M1228 498l-64 -356q-96 -70 -240 -117t-314 -47q-116 0 -215 31t-171 97t-113 169t-41 247q0 194 59 359t163 285t242 188t298 68q68 0 118 -12t86 -26t62 -26t48 -12t36 15t28 43h132l-68 -464h-144q-10 178 -75 252t-201 74q-88 0 -156 -37t-118 -98t-83 -141t-53 -164
t-29 -166t-9 -150q0 -172 63 -267t207 -95q122 0 200 44l52 304l-158 16l26 152h582l-26 -152zM860 1502q-44 0 -73 12t-47 31t-25 44t-7 51q0 90 60 145t150 55q70 0 111 -33t41 -107q0 -90 -60 -144t-150 -54z" />
    <glyph glyph-name="Gcommaaccent" unicode="&#x122;" horiz-adv-x="1396" 
d="M1228 498l-64 -356q-96 -70 -240 -117t-314 -47q-116 0 -215 31t-171 97t-113 169t-41 247q0 194 59 359t163 285t242 188t298 68q68 0 118 -12t86 -26t62 -26t48 -12t36 15t28 43h132l-68 -464h-144q-10 178 -75 252t-201 74q-88 0 -156 -37t-118 -98t-83 -141t-53 -164
t-29 -166t-9 -150q0 -172 63 -267t207 -95q122 0 200 44l52 304l-158 16l26 152h582l-26 -152zM468 -522q60 38 108 84t48 94q0 36 -26 44l-64 -58q-26 10 -48 37t-22 67q0 64 41 100t105 36q76 0 110 -45t34 -101q0 -104 -69 -179t-179 -139z" />
    <glyph glyph-name="Hcircumflex" unicode="&#x124;" horiz-adv-x="1512" 
d="M758 0l26 152l126 16l80 454h-464l-80 -454l124 -16l-28 -152h-562l26 152l128 16l184 1064l-122 14l28 154h562l-28 -152l-126 -14l-76 -438h464l76 436l-124 14l28 154h564l-28 -152l-126 -14l-186 -1066l124 -16l-26 -152h-564zM1158 1468l-236 160l-316 -170l-46 70
l280 268q12 8 47 20t69 12q44 0 67 -19t45 -57l152 -232z" />
    <glyph glyph-name="Hbar" unicode="&#x126;" horiz-adv-x="1512" 
d="M1020 796l28 162h-464l-28 -162h464zM146 1096h148l24 136l-122 14l28 154h562l-28 -152l-126 -14l-24 -138h464l24 136l-124 14l28 154h564l-28 -152l-126 -14l-24 -138h154l-24 -138h-154l-138 -790l124 -16l-26 -152h-564l26 152l126 16l80 454h-464l-80 -454l124 -16
l-28 -152h-562l26 152l128 16l136 790h-148z" />
    <glyph glyph-name="Igrave" unicode="&#xcc;" horiz-adv-x="734" 
d="M-18 0l24 152l128 14l184 1066l-122 14l28 154h562l-28 -152l-126 -14l-186 -1066l124 -16l-26 -152h-562zM356 1624q-40 20 -60 41t-20 57q0 40 32 62t72 30l82 16l250 -308l-50 -58z" />
    <glyph glyph-name="Iacute" unicode="&#xcd;" horiz-adv-x="734" 
d="M-18 0l24 152l128 14l184 1066l-122 14l28 154h562l-28 -152l-126 -14l-186 -1066l124 -16l-26 -152h-562zM374 1468l-46 60l282 302l92 -22q48 -10 65 -29t17 -51q0 -38 -25 -63t-67 -45z" />
    <glyph glyph-name="Icircumflex" unicode="&#xce;" horiz-adv-x="734" 
d="M-18 0l24 152l128 14l184 1066l-122 14l28 154h562l-28 -152l-126 -14l-186 -1066l124 -16l-26 -152h-562zM776 1468l-236 160l-316 -170l-46 70l280 268q12 8 47 20t69 12q44 0 67 -19t45 -57l152 -232z" />
    <glyph glyph-name="Itilde" unicode="&#x128;" horiz-adv-x="734" 
d="M-18 0l24 152l128 14l184 1066l-122 14l28 154h562l-28 -152l-126 -14l-186 -1066l124 -16l-26 -152h-562zM900 1758q-28 -72 -59 -119t-64 -76t-67 -40t-66 -11q-52 0 -93 15t-77 31q-32 14 -59 23t-55 9q-26 0 -52 -17t-58 -71l-66 22q56 126 116 184t148 58
q56 0 90 -14t74 -32q28 -12 55 -21t57 -9q34 0 58 17t54 69z" />
    <glyph glyph-name="Idieresis" unicode="&#xcf;" horiz-adv-x="734" 
d="M-18 0l24 152l128 14l184 1066l-122 14l28 154h562l-28 -152l-126 -14l-186 -1066l124 -16l-26 -152h-562zM730 1510q-68 0 -95 33t-27 75q0 30 12 61t33 56t52 40t69 15q52 0 86 -26t34 -80q0 -74 -45 -124t-119 -50zM316 1510q-68 0 -95 33t-27 75q0 30 12 61t33 56
t52 40t69 15q52 0 86 -26t34 -80q0 -74 -45 -124t-119 -50z" />
    <glyph glyph-name="Imacron" unicode="&#x12a;" horiz-adv-x="734" 
d="M-18 0l24 152l128 14l184 1066l-122 14l28 154h562l-28 -152l-126 -14l-186 -1066l124 -16l-26 -152h-562zM248 1554l30 172h544l-30 -172h-544z" />
    <glyph glyph-name="Ibreve" unicode="&#x12c;" horiz-adv-x="734" 
d="M-18 0l24 152l128 14l184 1066l-122 14l28 154h562l-28 -152l-126 -14l-186 -1066l124 -16l-26 -152h-562zM868 1790q-16 -60 -44 -114t-71 -93t-101 -62t-136 -23q-76 0 -125 22t-77 61t-37 93t-3 116l86 18q14 -70 52 -106t134 -36t147 36t83 104z" />
    <glyph glyph-name="Idotaccent" unicode="&#x130;" horiz-adv-x="734" 
d="M-18 0l24 152l128 14l184 1066l-122 14l28 154h562l-28 -152l-126 -14l-186 -1066l124 -16l-26 -152h-562zM516 1502q-44 0 -73 12t-47 31t-25 44t-7 51q0 90 60 145t150 55q70 0 111 -33t41 -107q0 -90 -60 -144t-150 -54z" />
    <glyph glyph-name="Iogonek" unicode="&#x12e;" horiz-adv-x="734" 
d="M432 -312q-18 -28 -44 -57t-61 -53t-80 -39t-103 -15q-88 0 -137 40t-49 112q0 54 24 100t63 86t88 74t101 64h-252l24 152l128 14l184 1066l-122 14l28 154h562l-28 -152l-126 -14l-186 -1066l124 -16l-26 -152h-164q-36 -30 -71 -62t-64 -67t-46 -73t-17 -76
q0 -24 13 -42t47 -18q38 0 66 23t54 51z" />
    <glyph glyph-name="IJ" unicode="&#x132;" horiz-adv-x="1752" 
d="M-18 0l24 152l128 14l184 1066l-122 14l28 154h562l-28 -152l-126 -14l-186 -1066l124 -16l-26 -152h-562zM1380 1234l-158 14l28 152h594l-26 -152l-124 -12l-138 -794q-22 -124 -70 -212t-117 -144t-155 -82t-184 -26q-84 0 -145 20t-99 53t-56 75t-18 88q0 42 13 79
t38 65t62 45t85 17q70 0 104 -35t34 -87q0 -50 -28 -100h-72q-12 -22 -12 -40q0 -26 25 -42t77 -16q78 0 121 52t63 172z" />
    <glyph glyph-name="Jcircumflex" unicode="&#x134;" horiz-adv-x="1034" 
d="M646 1234l-158 14l28 152h594l-26 -152l-124 -12l-138 -794q-22 -124 -70 -212t-117 -144t-155 -82t-184 -26q-84 0 -145 20t-99 53t-56 75t-18 88q0 42 13 79t38 65t62 45t85 17q70 0 104 -35t34 -87q0 -50 -28 -100h-72q-12 -22 -12 -40q0 -26 25 -42t77 -16
q78 0 121 52t63 172zM1086 1468l-236 160l-316 -170l-46 70l280 268q12 8 47 20t69 12q44 0 67 -19t45 -57l152 -232z" />
    <glyph glyph-name="Kcommaaccent" unicode="&#x136;" horiz-adv-x="1388" 
d="M690 0l26 150l122 14l-224 480l-90 -28l-78 -450l114 -14l-24 -152h-548l26 152l118 14l186 1068l-114 14l26 152h548l-28 -152l-118 -14l-82 -472l98 32l446 440l-124 14l28 152h424l-28 -152l-106 -14l-416 -410l320 -660l114 -14l-26 -150h-590zM416 -522
q60 38 108 84t48 94q0 36 -26 44l-64 -58q-26 10 -48 37t-22 67q0 64 41 100t105 36q76 0 110 -45t34 -101q0 -104 -69 -179t-179 -139z" />
    <glyph glyph-name="Lacute" unicode="&#x139;" horiz-adv-x="1210" 
d="M-20 0l26 152l126 16l186 1062l-122 16l26 154h602l-28 -152l-166 -18l-184 -1064h84q88 0 157 15t123 55t96 112t78 186h144l-110 -534h-1038zM384 1468l-46 60l282 302l92 -22q48 -10 65 -29t17 -51q0 -38 -25 -63t-67 -45z" />
    <glyph glyph-name="Lcaron" unicode="&#x13d;" horiz-adv-x="1210" 
d="M-20 0l26 152l126 16l186 1062l-122 16l26 154h602l-28 -152l-166 -18l-184 -1064h84q88 0 157 15t123 55t96 112t78 186h144l-110 -534h-1038zM876 998q22 16 46 36t43 44t32 51t13 59q0 74 -64 124l54 54q22 22 51 37t65 15q50 0 75 -33t25 -85q0 -56 -26 -108t-66 -99
t-92 -89t-102 -76z" />
    <glyph glyph-name="Lcommaaccent" unicode="&#x13b;" horiz-adv-x="1210" 
d="M-20 0l26 152l126 16l186 1062l-122 16l26 154h602l-28 -152l-166 -18l-184 -1064h84q88 0 157 15t123 55t96 112t78 186h144l-110 -534h-1038zM384 -522q60 38 108 84t48 94q0 36 -26 44l-64 -58q-26 10 -48 37t-22 67q0 64 41 100t105 36q76 0 110 -45t34 -101
q0 -104 -69 -179t-179 -139z" />
    <glyph glyph-name="Ldot" unicode="&#x13f;" horiz-adv-x="1210" 
d="M-20 0l26 152l126 16l186 1062l-122 16l26 154h602l-28 -152l-166 -18l-184 -1064h84q88 0 157 15t123 55t96 112t78 186h144l-110 -534h-1038zM940 630q-44 0 -73 12t-47 31t-25 44t-7 51q0 90 60 145t150 55q70 0 111 -33t41 -107q0 -90 -60 -144t-150 -54z" />
    <glyph glyph-name="Lslash" unicode="&#x141;" horiz-adv-x="1210" 
d="M4 602l224 120l90 508l-122 16l26 154h602l-28 -152l-166 -18l-68 -388l324 170l40 -144l-394 -206l-86 -496h84q88 0 157 15t123 55t96 112t78 186h144l-110 -534h-1038l26 152l126 16l66 376l-154 -82z" />
    <glyph glyph-name="Nacute" unicode="&#x143;" horiz-adv-x="1448" 
d="M894 -14l-418 1154h-6l-164 -976l126 -12l-26 -152h-414l26 152l114 12l186 1068l-112 14l28 154h488l326 -942h8l134 774l-116 14l26 154h400l-26 -154l-114 -14l-216 -1246h-250zM764 1468l-46 60l282 302l92 -22q48 -10 65 -29t17 -51q0 -38 -25 -63t-67 -45z" />
    <glyph glyph-name="Ncaron" unicode="&#x147;" horiz-adv-x="1448" 
d="M894 -14l-418 1154h-6l-164 -976l126 -12l-26 -152h-414l26 152l114 12l186 1068l-112 14l28 154h488l326 -942h8l134 774l-116 14l26 154h400l-26 -154l-114 -14l-216 -1246h-250zM1010 1512q-16 -10 -44 -21t-62 -11q-44 0 -70 18t-48 58l-150 234l72 60l228 -174
l306 174l54 -70z" />
    <glyph glyph-name="Ntilde" unicode="&#xd1;" horiz-adv-x="1448" 
d="M894 -14l-418 1154h-6l-164 -976l126 -12l-26 -152h-414l26 152l114 12l186 1068l-112 14l28 154h488l326 -942h8l134 774l-116 14l26 154h400l-26 -154l-114 -14l-216 -1246h-250zM1250 1758q-28 -72 -59 -119t-64 -76t-67 -40t-66 -11q-52 0 -93 15t-77 31
q-32 14 -59 23t-55 9q-26 0 -52 -17t-58 -71l-66 22q56 126 116 184t148 58q56 0 90 -14t74 -32q28 -12 55 -21t57 -9q34 0 58 17t54 69z" />
    <glyph glyph-name="Ncommaaccent" unicode="&#x145;" horiz-adv-x="1448" 
d="M894 -14l-418 1154h-6l-164 -976l126 -12l-26 -152h-414l26 152l114 12l186 1068l-112 14l28 154h488l326 -942h8l134 774l-116 14l26 154h400l-26 -154l-114 -14l-216 -1246h-250zM460 -522q60 38 108 84t48 94q0 36 -26 44l-64 -58q-26 10 -48 37t-22 67q0 64 41 100
t105 36q76 0 110 -45t34 -101q0 -104 -69 -179t-179 -139z" />
    <glyph glyph-name="Eng" unicode="&#x14a;" horiz-adv-x="1448" 
d="M1140 -34q-50 -248 -178 -356t-308 -108q-84 0 -145 20t-99 53t-56 75t-18 88q0 42 13 79t38 65t62 45t85 17q52 0 84 -20t45 -52t8 -72t-27 -78h-72q-24 -42 -2 -70t92 -28q78 0 121 52t63 172l32 182l-402 1110h-6l-164 -976l126 -12l-26 -152h-414l26 152l114 12
l186 1068l-112 14l28 154h488l326 -942h8l134 774l-116 14l26 154h400l-26 -154l-114 -14l-216 -1246z" />
    <glyph glyph-name="Ograve" unicode="&#xd2;" horiz-adv-x="1416" 
d="M590 -22q-250 0 -385 134t-135 414q0 158 49 318t147 288t245 209t343 81q252 0 379 -137t127 -409q0 -152 -46 -311t-140 -290t-239 -214t-345 -83zM614 124q78 0 140 40t109 107t80 154t54 179t30 184t9 170q0 158 -47 239t-169 81q-116 0 -196 -82t-131 -206t-74 -269
t-23 -273q0 -152 49 -238t169 -86zM706 1624q-40 20 -60 41t-20 57q0 40 32 62t72 30l82 16l250 -308l-50 -58z" />
    <glyph glyph-name="Oacute" unicode="&#xd3;" horiz-adv-x="1416" 
d="M590 -22q-250 0 -385 134t-135 414q0 158 49 318t147 288t245 209t343 81q252 0 379 -137t127 -409q0 -152 -46 -311t-140 -290t-239 -214t-345 -83zM614 124q78 0 140 40t109 107t80 154t54 179t30 184t9 170q0 158 -47 239t-169 81q-116 0 -196 -82t-131 -206t-74 -269
t-23 -273q0 -152 49 -238t169 -86zM724 1468l-46 60l282 302l92 -22q48 -10 65 -29t17 -51q0 -38 -25 -63t-67 -45z" />
    <glyph glyph-name="Ocircumflex" unicode="&#xd4;" horiz-adv-x="1416" 
d="M590 -22q-250 0 -385 134t-135 414q0 158 49 318t147 288t245 209t343 81q252 0 379 -137t127 -409q0 -152 -46 -311t-140 -290t-239 -214t-345 -83zM614 124q78 0 140 40t109 107t80 154t54 179t30 184t9 170q0 158 -47 239t-169 81q-116 0 -196 -82t-131 -206t-74 -269
t-23 -273q0 -152 49 -238t169 -86zM1126 1468l-236 160l-316 -170l-46 70l280 268q12 8 47 20t69 12q44 0 67 -19t45 -57l152 -232z" />
    <glyph glyph-name="Otilde" unicode="&#xd5;" horiz-adv-x="1416" 
d="M590 -22q-250 0 -385 134t-135 414q0 158 49 318t147 288t245 209t343 81q252 0 379 -137t127 -409q0 -152 -46 -311t-140 -290t-239 -214t-345 -83zM614 124q78 0 140 40t109 107t80 154t54 179t30 184t9 170q0 158 -47 239t-169 81q-116 0 -196 -82t-131 -206t-74 -269
t-23 -273q0 -152 49 -238t169 -86zM1250 1758q-28 -72 -59 -119t-64 -76t-67 -40t-66 -11q-52 0 -93 15t-77 31q-32 14 -59 23t-55 9q-26 0 -52 -17t-58 -71l-66 22q56 126 116 184t148 58q56 0 90 -14t74 -32q28 -12 55 -21t57 -9q34 0 58 17t54 69z" />
    <glyph glyph-name="Odieresis" unicode="&#xd6;" horiz-adv-x="1416" 
d="M590 -22q-250 0 -385 134t-135 414q0 158 49 318t147 288t245 209t343 81q252 0 379 -137t127 -409q0 -152 -46 -311t-140 -290t-239 -214t-345 -83zM614 124q78 0 140 40t109 107t80 154t54 179t30 184t9 170q0 158 -47 239t-169 81q-116 0 -196 -82t-131 -206t-74 -269
t-23 -273q0 -152 49 -238t169 -86zM1080 1510q-68 0 -95 33t-27 75q0 30 12 61t33 56t52 40t69 15q52 0 86 -26t34 -80q0 -74 -45 -124t-119 -50zM666 1510q-68 0 -95 33t-27 75q0 30 12 61t33 56t52 40t69 15q52 0 86 -26t34 -80q0 -74 -45 -124t-119 -50z" />
    <glyph glyph-name="Omacron" unicode="&#x14c;" horiz-adv-x="1416" 
d="M590 -22q-250 0 -385 134t-135 414q0 158 49 318t147 288t245 209t343 81q252 0 379 -137t127 -409q0 -152 -46 -311t-140 -290t-239 -214t-345 -83zM614 124q78 0 140 40t109 107t80 154t54 179t30 184t9 170q0 158 -47 239t-169 81q-116 0 -196 -82t-131 -206t-74 -269
t-23 -273q0 -152 49 -238t169 -86zM598 1554l30 172h544l-30 -172h-544z" />
    <glyph glyph-name="Obreve" unicode="&#x14e;" horiz-adv-x="1416" 
d="M590 -22q-250 0 -385 134t-135 414q0 158 49 318t147 288t245 209t343 81q252 0 379 -137t127 -409q0 -152 -46 -311t-140 -290t-239 -214t-345 -83zM614 124q78 0 140 40t109 107t80 154t54 179t30 184t9 170q0 158 -47 239t-169 81q-116 0 -196 -82t-131 -206t-74 -269
t-23 -273q0 -152 49 -238t169 -86zM1218 1790q-16 -60 -44 -114t-71 -93t-101 -62t-136 -23q-76 0 -125 22t-77 61t-37 93t-3 116l86 18q14 -70 52 -106t134 -36t147 36t83 104z" />
    <glyph glyph-name="Ohungarumlaut" unicode="&#x150;" horiz-adv-x="1416" 
d="M590 -22q-250 0 -385 134t-135 414q0 158 49 318t147 288t245 209t343 81q252 0 379 -137t127 -409q0 -152 -46 -311t-140 -290t-239 -214t-345 -83zM614 124q78 0 140 40t109 107t80 154t54 179t30 184t9 170q0 158 -47 239t-169 81q-116 0 -196 -82t-131 -206t-74 -269
t-23 -273q0 -152 49 -238t169 -86zM706 1480l-56 44l194 342l88 10q48 6 79 -14t29 -62q-2 -34 -19 -56t-43 -44zM1010 1484l-52 48l224 326l88 2q46 2 74 -18t26 -60q-2 -34 -19 -57t-53 -47z" />
    <glyph glyph-name="Oslash" unicode="&#xd8;" horiz-adv-x="1416" 
d="M396 448q0 -46 3 -87t13 -75l498 976q-42 16 -90 16q-116 0 -196 -82t-131 -206t-74 -269t-23 -273zM614 124q78 0 140 40t109 107t80 154t54 179t30 184t9 170q0 112 -24 188l-508 -996q44 -26 110 -26zM590 -22q-90 0 -164 18l-94 -186l-130 62l88 174
q-108 64 -164 182t-56 298q0 158 49 318t147 288t245 209t343 81q34 0 67 -4t63 -8l88 170l128 -62l-78 -152q238 -120 238 -490q0 -152 -46 -311t-140 -290t-239 -214t-345 -83z" />
    <glyph glyph-name="Oslashacute" unicode="&#x1fe;" horiz-adv-x="1416" 
d="M724 1468l-46 60l282 302l92 -22q48 -10 65 -29t17 -51q0 -38 -25 -63t-67 -45zM396 448q0 -46 3 -87t13 -75l498 976q-42 16 -90 16q-116 0 -196 -82t-131 -206t-74 -269t-23 -273zM614 124q78 0 140 40t109 107t80 154t54 179t30 184t9 170q0 112 -24 188l-508 -996
q44 -26 110 -26zM590 -22q-90 0 -164 18l-94 -186l-130 62l88 174q-108 64 -164 182t-56 298q0 158 49 318t147 288t245 209t343 81q34 0 67 -4t63 -8l88 170l128 -62l-78 -152q238 -120 238 -490q0 -152 -46 -311t-140 -290t-239 -214t-345 -83z" />
    <glyph glyph-name="Racute" unicode="&#x154;" horiz-adv-x="1346" 
d="M580 784q134 0 220 69t86 213q0 94 -54 130t-162 36h-38l-78 -448h26zM1276 128q-50 -64 -120 -107t-164 -43q-124 0 -179 65t-67 179l-24 230q-4 48 -12 84t-25 60t-46 36t-75 12h-34l-82 -474l132 -16l-26 -154h-586l26 154l138 16l184 1062l-132 16l26 152h488
q96 0 189 -10t168 -42t121 -92t46 -158q0 -94 -34 -160t-92 -110t-137 -68t-171 -30l-2 -8q62 -14 106 -35t72 -54t43 -79t23 -108l20 -176q4 -46 17 -78t59 -32q28 0 46 12t38 30zM554 1468l-46 60l282 302l92 -22q48 -10 65 -29t17 -51q0 -38 -25 -63t-67 -45z" />
    <glyph glyph-name="Rcaron" unicode="&#x158;" horiz-adv-x="1346" 
d="M580 784q134 0 220 69t86 213q0 94 -54 130t-162 36h-38l-78 -448h26zM1276 128q-50 -64 -120 -107t-164 -43q-124 0 -179 65t-67 179l-24 230q-4 48 -12 84t-25 60t-46 36t-75 12h-34l-82 -474l132 -16l-26 -154h-586l26 154l138 16l184 1062l-132 16l26 152h488
q96 0 189 -10t168 -42t121 -92t46 -158q0 -94 -34 -160t-92 -110t-137 -68t-171 -30l-2 -8q62 -14 106 -35t72 -54t43 -79t23 -108l20 -176q4 -46 17 -78t59 -32q28 0 46 12t38 30zM800 1512q-16 -10 -44 -21t-62 -11q-44 0 -70 18t-48 58l-150 234l72 60l228 -174l306 174
l54 -70z" />
    <glyph glyph-name="Rcommaaccent" unicode="&#x156;" horiz-adv-x="1346" 
d="M580 784q134 0 220 69t86 213q0 94 -54 130t-162 36h-38l-78 -448h26zM1276 128q-50 -64 -120 -107t-164 -43q-124 0 -179 65t-67 179l-24 230q-4 48 -12 84t-25 60t-46 36t-75 12h-34l-82 -474l132 -16l-26 -154h-586l26 154l138 16l184 1062l-132 16l26 152h488
q96 0 189 -10t168 -42t121 -92t46 -158q0 -94 -34 -160t-92 -110t-137 -68t-171 -30l-2 -8q62 -14 106 -35t72 -54t43 -79t23 -108l20 -176q4 -46 17 -78t59 -32q28 0 46 12t38 30zM420 -522q60 38 108 84t48 94q0 36 -26 44l-64 -58q-26 10 -48 37t-22 67q0 64 41 100
t105 36q76 0 110 -45t34 -101q0 -104 -69 -179t-179 -139z" />
    <glyph glyph-name="Sacute" unicode="&#x15a;" horiz-adv-x="1150" 
d="M-4 -20l66 470h150q4 -68 24 -125t57 -98t95 -64t140 -23q116 0 188 47t72 147q0 74 -46 117t-114 73t-149 59t-149 75t-114 119t-46 193q0 102 38 185t105 143t158 92t197 32q64 0 113 -13t85 -28t60 -28t40 -13q22 0 34 17t28 47h118l-60 -422h-150q-16 138 -73 212
t-187 74q-46 0 -88 -10t-74 -32t-51 -55t-19 -81q0 -70 44 -113t111 -74t145 -61t145 -76t111 -119t44 -189q0 -110 -42 -199t-112 -151t-162 -96t-192 -34q-78 0 -133 13t-94 30t-64 30t-45 13q-22 0 -36 -19t-36 -65h-132zM550 1468l-46 60l282 302l92 -22q48 -10 65 -29
t17 -51q0 -38 -25 -63t-67 -45z" />
    <glyph glyph-name="Scircumflex" unicode="&#x15c;" horiz-adv-x="1150" 
d="M-4 -20l66 470h150q4 -68 24 -125t57 -98t95 -64t140 -23q116 0 188 47t72 147q0 74 -46 117t-114 73t-149 59t-149 75t-114 119t-46 193q0 102 38 185t105 143t158 92t197 32q64 0 113 -13t85 -28t60 -28t40 -13q22 0 34 17t28 47h118l-60 -422h-150q-16 138 -73 212
t-187 74q-46 0 -88 -10t-74 -32t-51 -55t-19 -81q0 -70 44 -113t111 -74t145 -61t145 -76t111 -119t44 -189q0 -110 -42 -199t-112 -151t-162 -96t-192 -34q-78 0 -133 13t-94 30t-64 30t-45 13q-22 0 -36 -19t-36 -65h-132zM952 1468l-236 160l-316 -170l-46 70l280 268
q12 8 47 20t69 12q44 0 67 -19t45 -57l152 -232z" />
    <glyph glyph-name="Scaron" unicode="&#x160;" horiz-adv-x="1150" 
d="M-4 -20l66 470h150q4 -68 24 -125t57 -98t95 -64t140 -23q116 0 188 47t72 147q0 74 -46 117t-114 73t-149 59t-149 75t-114 119t-46 193q0 102 38 185t105 143t158 92t197 32q64 0 113 -13t85 -28t60 -28t40 -13q22 0 34 17t28 47h118l-60 -422h-150q-16 138 -73 212
t-187 74q-46 0 -88 -10t-74 -32t-51 -55t-19 -81q0 -70 44 -113t111 -74t145 -61t145 -76t111 -119t44 -189q0 -110 -42 -199t-112 -151t-162 -96t-192 -34q-78 0 -133 13t-94 30t-64 30t-45 13q-22 0 -36 -19t-36 -65h-132zM796 1512q-16 -10 -44 -21t-62 -11q-44 0 -70 18
t-48 58l-150 234l72 60l228 -174l306 174l54 -70z" />
    <glyph glyph-name="Scedilla" unicode="&#x15e;" horiz-adv-x="1150" 
d="M348 -340q0 -44 62 -44q44 0 78 31t34 99q0 38 -21 60t-57 22q-20 0 -41 -2t-35 -6l-10 50l90 114q-54 6 -93 20t-68 27t-50 23t-37 10q-22 0 -36 -19t-36 -65h-132l66 470h150q4 -68 24 -125t57 -98t95 -64t140 -23q116 0 188 47t72 147q0 74 -46 117t-114 73t-149 59
t-149 75t-114 119t-46 193q0 102 38 185t105 143t158 92t197 32q64 0 113 -13t85 -28t60 -28t40 -13q22 0 34 17t28 47h118l-60 -422h-150q-16 138 -73 212t-187 74q-46 0 -88 -10t-74 -32t-51 -55t-19 -81q0 -70 44 -113t111 -74t145 -61t145 -76t111 -119t44 -189
q0 -108 -41 -196t-109 -150t-158 -97t-188 -37l-66 -82q12 4 35 5t33 1q76 0 117 -38t41 -104q0 -40 -19 -78t-57 -67t-92 -47t-122 -18q-94 0 -135 38t-41 80q0 36 22 62t62 26q26 0 47 -14t25 -52z" />
    <glyph glyph-name="Scommaaccent" unicode="&#x218;" horiz-adv-x="1150" 
d="M-4 -20l66 470h150q4 -68 24 -125t57 -98t95 -64t140 -23q116 0 188 47t72 147q0 74 -46 117t-114 73t-149 59t-149 75t-114 119t-46 193q0 102 38 185t105 143t158 92t197 32q64 0 113 -13t85 -28t60 -28t40 -13q22 0 34 17t28 47h118l-60 -422h-150q-16 138 -73 212
t-187 74q-46 0 -88 -10t-74 -32t-51 -55t-19 -81q0 -70 44 -113t111 -74t145 -61t145 -76t111 -119t44 -189q0 -110 -42 -199t-112 -151t-162 -96t-192 -34q-78 0 -133 13t-94 30t-64 30t-45 13q-22 0 -36 -19t-36 -65h-132zM352 -522q60 38 108 84t48 94q0 36 -26 44
l-64 -58q-26 10 -48 37t-22 67q0 64 41 100t105 36q76 0 110 -45t34 -101q0 -104 -69 -179t-179 -139z" />
    <glyph glyph-name="Tcaron" unicode="&#x164;" horiz-adv-x="1332" 
d="M224 0l26 152l182 16l184 1066h-8q-72 0 -123 -12t-90 -46t-71 -95t-64 -157h-140l102 476h1160l-64 -476h-140q0 102 -11 164t-37 94t-72 42t-118 10h-8l-186 -1066l178 -16l-26 -152h-674zM908 1512q-16 -10 -44 -21t-62 -11q-44 0 -70 18t-48 58l-150 234l72 60
l228 -174l306 174l54 -70z" />
    <glyph glyph-name="uni0162" unicode="&#x162;" horiz-adv-x="1332" 
d="M406 -340q0 -44 62 -44q44 0 78 31t34 99q0 38 -21 60t-57 22q-20 0 -41 -2t-35 -6l-10 50l102 130h-294l26 152l182 16l184 1066h-8q-72 0 -123 -12t-90 -46t-71 -95t-64 -157h-140l102 476h1160l-64 -476h-140q0 102 -11 164t-37 94t-72 42t-118 10h-8l-186 -1066
l178 -16l-26 -152h-276l-82 -104q12 4 35 5t33 1q76 0 117 -38t41 -104q0 -40 -19 -78t-57 -67t-92 -47t-122 -18q-94 0 -135 38t-41 80q0 36 22 62t62 26q26 0 47 -14t25 -52z" />
    <glyph glyph-name="uni021A" unicode="&#x21a;" horiz-adv-x="1332" 
d="M224 0l26 152l182 16l184 1066h-8q-72 0 -123 -12t-90 -46t-71 -95t-64 -157h-140l102 476h1160l-64 -476h-140q0 102 -11 164t-37 94t-72 42t-118 10h-8l-186 -1066l178 -16l-26 -152h-674zM396 -522q60 38 108 84t48 94q0 36 -26 44l-64 -58q-26 10 -48 37t-22 67
q0 64 41 100t105 36q76 0 110 -45t34 -101q0 -104 -69 -179t-179 -139z" />
    <glyph glyph-name="Tbar" unicode="&#x166;" horiz-adv-x="1332" 
d="M224 0l26 152l182 16l76 446h-302l28 158h302l80 462h-8q-72 0 -123 -12t-90 -46t-71 -95t-64 -157h-140l102 476h1160l-64 -476h-140q0 102 -11 164t-37 94t-72 42t-118 10h-8l-80 -462h300l-28 -158h-300l-78 -446l178 -16l-26 -152h-674z" />
    <glyph glyph-name="Ugrave" unicode="&#xd9;" horiz-adv-x="1384" 
d="M1126 1232l-118 14l28 154h418l-28 -154l-112 -14l-136 -776q-20 -112 -61 -201t-109 -150t-165 -94t-227 -33q-102 0 -189 16t-151 56t-100 108t-36 170q0 30 4 68t12 84l132 754l-116 12l28 154h556l-26 -154l-130 -12l-126 -732q-6 -36 -10 -70t-4 -64q0 -90 48 -144
t172 -54q74 0 128 20t91 59t60 97t37 134zM668 1624q-40 20 -60 41t-20 57q0 40 32 62t72 30l82 16l250 -308l-50 -58z" />
    <glyph glyph-name="Uacute" unicode="&#xda;" horiz-adv-x="1384" 
d="M1126 1232l-118 14l28 154h418l-28 -154l-112 -14l-136 -776q-20 -112 -61 -201t-109 -150t-165 -94t-227 -33q-102 0 -189 16t-151 56t-100 108t-36 170q0 30 4 68t12 84l132 754l-116 12l28 154h556l-26 -154l-130 -12l-126 -732q-6 -36 -10 -70t-4 -64q0 -90 48 -144
t172 -54q74 0 128 20t91 59t60 97t37 134zM744 1468l-46 60l282 302l92 -22q48 -10 65 -29t17 -51q0 -38 -25 -63t-67 -45z" />
    <glyph glyph-name="Ucircumflex" unicode="&#xdb;" horiz-adv-x="1384" 
d="M1126 1232l-118 14l28 154h418l-28 -154l-112 -14l-136 -776q-20 -112 -61 -201t-109 -150t-165 -94t-227 -33q-102 0 -189 16t-151 56t-100 108t-36 170q0 30 4 68t12 84l132 754l-116 12l28 154h556l-26 -154l-130 -12l-126 -732q-6 -36 -10 -70t-4 -64q0 -90 48 -144
t172 -54q74 0 128 20t91 59t60 97t37 134zM1146 1468l-236 160l-316 -170l-46 70l280 268q12 8 47 20t69 12q44 0 67 -19t45 -57l152 -232z" />
    <glyph glyph-name="Utilde" unicode="&#x168;" horiz-adv-x="1384" 
d="M1126 1232l-118 14l28 154h418l-28 -154l-112 -14l-136 -776q-20 -112 -61 -201t-109 -150t-165 -94t-227 -33q-102 0 -189 16t-151 56t-100 108t-36 170q0 30 4 68t12 84l132 754l-116 12l28 154h556l-26 -154l-130 -12l-126 -732q-6 -36 -10 -70t-4 -64q0 -90 48 -144
t172 -54q74 0 128 20t91 59t60 97t37 134zM1258 1758q-28 -72 -59 -119t-64 -76t-67 -40t-66 -11q-52 0 -93 15t-77 31q-32 14 -59 23t-55 9q-26 0 -52 -17t-58 -71l-66 22q56 126 116 184t148 58q56 0 90 -14t74 -32q28 -12 55 -21t57 -9q34 0 58 17t54 69z" />
    <glyph glyph-name="Udieresis" unicode="&#xdc;" horiz-adv-x="1384" 
d="M1126 1232l-118 14l28 154h418l-28 -154l-112 -14l-136 -776q-20 -112 -61 -201t-109 -150t-165 -94t-227 -33q-102 0 -189 16t-151 56t-100 108t-36 170q0 30 4 68t12 84l132 754l-116 12l28 154h556l-26 -154l-130 -12l-126 -732q-6 -36 -10 -70t-4 -64q0 -90 48 -144
t172 -54q74 0 128 20t91 59t60 97t37 134zM1100 1510q-68 0 -95 33t-27 75q0 30 12 61t33 56t52 40t69 15q52 0 86 -26t34 -80q0 -74 -45 -124t-119 -50zM686 1510q-68 0 -95 33t-27 75q0 30 12 61t33 56t52 40t69 15q52 0 86 -26t34 -80q0 -74 -45 -124t-119 -50z" />
    <glyph glyph-name="Umacron" unicode="&#x16a;" horiz-adv-x="1384" 
d="M1126 1232l-118 14l28 154h418l-28 -154l-112 -14l-136 -776q-20 -112 -61 -201t-109 -150t-165 -94t-227 -33q-102 0 -189 16t-151 56t-100 108t-36 170q0 30 4 68t12 84l132 754l-116 12l28 154h556l-26 -154l-130 -12l-126 -732q-6 -36 -10 -70t-4 -64q0 -90 48 -144
t172 -54q74 0 128 20t91 59t60 97t37 134zM606 1554l30 172h544l-30 -172h-544z" />
    <glyph glyph-name="Ubreve" unicode="&#x16c;" horiz-adv-x="1384" 
d="M1126 1232l-118 14l28 154h418l-28 -154l-112 -14l-136 -776q-20 -112 -61 -201t-109 -150t-165 -94t-227 -33q-102 0 -189 16t-151 56t-100 108t-36 170q0 30 4 68t12 84l132 754l-116 12l28 154h556l-26 -154l-130 -12l-126 -732q-6 -36 -10 -70t-4 -64q0 -90 48 -144
t172 -54q74 0 128 20t91 59t60 97t37 134zM1226 1790q-16 -60 -44 -114t-71 -93t-101 -62t-136 -23q-76 0 -125 22t-77 61t-37 93t-3 116l86 18q14 -70 52 -106t134 -36t147 36t83 104z" />
    <glyph glyph-name="Uring" unicode="&#x16e;" horiz-adv-x="1384" 
d="M1126 1232l-118 14l28 154h418l-28 -154l-112 -14l-136 -776q-20 -112 -61 -201t-109 -150t-165 -94t-227 -33q-102 0 -189 16t-151 56t-100 108t-36 170q0 30 4 68t12 84l132 754l-116 12l28 154h556l-26 -154l-130 -12l-126 -732q-6 -36 -10 -70t-4 -64q0 -90 48 -144
t172 -54q74 0 128 20t91 59t60 97t37 134zM1136 1702q0 -48 -18 -92t-52 -76t-81 -51t-103 -19q-98 0 -144 46t-46 124q0 52 19 96t54 75t82 49t103 18q92 0 139 -45t47 -125zM898 1568q56 0 82 39t26 85q0 34 -17 56t-59 22q-46 0 -77 -36t-31 -88q0 -30 15 -54t61 -24z
" />
    <glyph glyph-name="Uhungarumlaut" unicode="&#x170;" horiz-adv-x="1384" 
d="M1126 1232l-118 14l28 154h418l-28 -154l-112 -14l-136 -776q-20 -112 -61 -201t-109 -150t-165 -94t-227 -33q-102 0 -189 16t-151 56t-100 108t-36 170q0 30 4 68t12 84l132 754l-116 12l28 154h556l-26 -154l-130 -12l-126 -732q-6 -36 -10 -70t-4 -64q0 -90 48 -144
t172 -54q74 0 128 20t91 59t60 97t37 134zM682 1480l-56 44l194 342l88 10q48 6 79 -14t29 -62q-2 -34 -19 -56t-43 -44zM986 1484l-52 48l224 326l88 2q46 2 74 -18t26 -60q-2 -34 -19 -57t-53 -47z" />
    <glyph glyph-name="Uogonek" unicode="&#x172;" horiz-adv-x="1384" 
d="M880 -312q-18 -28 -44 -57t-61 -53t-80 -39t-103 -15q-88 0 -137 40t-49 112q0 48 20 91t53 80t77 70t90 61h-30q-102 0 -189 16t-151 56t-100 108t-36 170q0 30 4 68t12 84l132 754l-116 12l28 154h556l-26 -154l-130 -12l-126 -732q-6 -36 -10 -70t-4 -64
q0 -90 48 -144t172 -54q74 0 128 20t91 59t60 97t37 134l130 752l-118 14l28 154h418l-28 -154l-112 -14l-136 -776q-28 -168 -106 -272t-212 -178q-42 -24 -83 -56t-74 -69t-53 -78t-20 -81q0 -24 13 -42t47 -18q38 0 66 23t54 51z" />
    <glyph glyph-name="Wgrave" unicode="&#x1e80;" horiz-adv-x="1960" 
d="M1176 0l-148 786l-416 -786h-206l-190 1230l-100 18l28 152h576l-28 -152l-138 -18l110 -790h8l320 596l-42 194l-106 18l26 152h576l-26 -152l-140 -18l140 -778h8l354 778l-136 18l26 152h412l-28 -152l-110 -18l-558 -1230h-212zM998 1624q-40 20 -60 41t-20 57
q0 40 32 62t72 30l82 16l250 -308l-50 -58z" />
    <glyph glyph-name="Wacute" unicode="&#x1e82;" horiz-adv-x="1960" 
d="M1176 0l-148 786l-416 -786h-206l-190 1230l-100 18l28 152h576l-28 -152l-138 -18l110 -790h8l320 596l-42 194l-106 18l26 152h576l-26 -152l-140 -18l140 -778h8l354 778l-136 18l26 152h412l-28 -152l-110 -18l-558 -1230h-212zM1016 1468l-46 60l282 302l92 -22
q48 -10 65 -29t17 -51q0 -38 -25 -63t-67 -45z" />
    <glyph glyph-name="Wcircumflex" unicode="&#x174;" horiz-adv-x="1960" 
d="M1176 0l-148 786l-416 -786h-206l-190 1230l-100 18l28 152h576l-28 -152l-138 -18l110 -790h8l320 596l-42 194l-106 18l26 152h576l-26 -152l-140 -18l140 -778h8l354 778l-136 18l26 152h412l-28 -152l-110 -18l-558 -1230h-212zM1418 1468l-236 160l-316 -170l-46 70
l280 268q12 8 47 20t69 12q44 0 67 -19t45 -57l152 -232z" />
    <glyph glyph-name="Wdieresis" unicode="&#x1e84;" horiz-adv-x="1960" 
d="M1176 0l-148 786l-416 -786h-206l-190 1230l-100 18l28 152h576l-28 -152l-138 -18l110 -790h8l320 596l-42 194l-106 18l26 152h576l-26 -152l-140 -18l140 -778h8l354 778l-136 18l26 152h412l-28 -152l-110 -18l-558 -1230h-212zM1372 1510q-68 0 -95 33t-27 75
q0 30 12 61t33 56t52 40t69 15q52 0 86 -26t34 -80q0 -74 -45 -124t-119 -50zM958 1510q-68 0 -95 33t-27 75q0 30 12 61t33 56t52 40t69 15q52 0 86 -26t34 -80q0 -74 -45 -124t-119 -50z" />
    <glyph glyph-name="Ygrave" unicode="&#x1ef2;" horiz-adv-x="1248" 
d="M204 0l26 154l164 14l78 442l-240 620l-112 14l28 156h608l-26 -156l-146 -14l152 -440h2l306 440l-126 14l26 156h428l-26 -156l-116 -14l-446 -628l-76 -434l160 -14l-26 -154h-638zM640 1624q-40 20 -60 41t-20 57q0 40 32 62t72 30l82 16l250 -308l-50 -58z" />
    <glyph glyph-name="Yacute" unicode="&#xdd;" horiz-adv-x="1248" 
d="M204 0l26 154l164 14l78 442l-240 620l-112 14l28 156h608l-26 -156l-146 -14l152 -440h2l306 440l-126 14l26 156h428l-26 -156l-116 -14l-446 -628l-76 -434l160 -14l-26 -154h-638zM668 1468l-46 60l282 302l92 -22q48 -10 65 -29t17 -51q0 -38 -25 -63t-67 -45z" />
    <glyph glyph-name="Ycircumflex" unicode="&#x176;" horiz-adv-x="1248" 
d="M204 0l26 154l164 14l78 442l-240 620l-112 14l28 156h608l-26 -156l-146 -14l152 -440h2l306 440l-126 14l26 156h428l-26 -156l-116 -14l-446 -628l-76 -434l160 -14l-26 -154h-638zM1062 1468l-236 160l-316 -170l-46 70l280 268q12 8 47 20t69 12q44 0 67 -19t45 -57
l152 -232z" />
    <glyph glyph-name="Ydieresis" unicode="&#x178;" horiz-adv-x="1248" 
d="M204 0l26 154l164 14l78 442l-240 620l-112 14l28 156h608l-26 -156l-146 -14l152 -440h2l306 440l-126 14l26 156h428l-26 -156l-116 -14l-446 -628l-76 -434l160 -14l-26 -154h-638zM1018 1510q-68 0 -95 33t-27 75q0 30 12 61t33 56t52 40t69 15q52 0 86 -26t34 -80
q0 -74 -45 -124t-119 -50zM604 1510q-68 0 -95 33t-27 75q0 30 12 61t33 56t52 40t69 15q52 0 86 -26t34 -80q0 -74 -45 -124t-119 -50z" />
    <glyph glyph-name="Zacute" unicode="&#x179;" horiz-adv-x="1238" 
d="M-26 0l28 162l866 1066h-172q-80 0 -142 -8t-111 -38t-90 -91t-81 -167h-130l100 476h1016l-30 -172l-864 -1058h208q92 0 159 22t116 66t85 110t68 154h134l-112 -522h-1048zM594 1468l-46 60l282 302l92 -22q48 -10 65 -29t17 -51q0 -38 -25 -63t-67 -45z" />
    <glyph glyph-name="Zcaron" horiz-adv-x="1238" 
d="M-26 0l28 162l866 1066h-172q-80 0 -142 -8t-111 -38t-90 -91t-81 -167h-130l100 476h1016l-30 -172l-864 -1058h208q92 0 159 22t116 66t85 110t68 154h134l-112 -522h-1048zM840 1512q-16 -10 -44 -21t-62 -11q-44 0 -70 18t-48 58l-150 234l72 60l228 -174l306 174
l54 -70z" />
    <glyph glyph-name="Zcaron" unicode="&#x17d;" horiz-adv-x="1238" 
d="M-26 0l28 162l866 1066h-172q-80 0 -142 -8t-111 -38t-90 -91t-81 -167h-130l100 476h1016l-30 -172l-864 -1058h208q92 0 159 22t116 66t85 110t68 154h134l-112 -522h-1048zM840 1512q-16 -10 -44 -21t-62 -11q-44 0 -70 18t-48 58l-150 234l72 60l228 -174l306 174
l54 -70z" />
    <glyph glyph-name="Zdotaccent" unicode="&#x17b;" horiz-adv-x="1238" 
d="M-26 0l28 162l866 1066h-172q-80 0 -142 -8t-111 -38t-90 -91t-81 -167h-130l100 476h1016l-30 -172l-864 -1058h208q92 0 159 22t116 66t85 110t68 154h134l-112 -522h-1048zM736 1502q-44 0 -73 12t-47 31t-25 44t-7 51q0 90 60 145t150 55q70 0 111 -33t41 -107
q0 -90 -60 -144t-150 -54z" />
    <glyph glyph-name="AE" unicode="&#xc6;" horiz-adv-x="2030" 
d="M664 1400h1356l-62 -438h-138q-4 86 -20 140t-53 84t-98 41t-151 11h-108l-82 -470h50q48 0 84 11t64 36t50 67t44 104h110l-104 -592h-114q2 74 -4 120t-26 72t-54 34t-86 8h-38l-80 -462h104q110 0 186 16t130 55t90 103t70 162h140l-104 -502h-1086l26 150l128 16
l80 452h-376l-280 -450l136 -16l-26 -152h-482l26 152l124 16l686 1068l-138 12zM978 1238l-296 -468h314l82 468h-100z" />
    <glyph glyph-name="Eth" unicode="&#xd0;" horiz-adv-x="1460" 
d="M518 164q140 0 243 56t172 152t103 224t34 270q0 114 -27 186t-78 113t-122 55t-157 14h-30l-78 -444h288l-24 -142h-288l-84 -484h48zM98 790h166l78 444l-136 12l28 154h508q146 0 268 -28t208 -91t134 -166t48 -253q0 -198 -64 -357t-184 -271t-294 -173t-394 -61
h-472l26 154l138 14l84 480h-168z" />
    <glyph glyph-name="OE" unicode="&#x152;" horiz-adv-x="2006" 
d="M396 462q0 -74 13 -136t44 -107t83 -70t130 -25q64 0 113 12t87 30l180 1058q-86 54 -202 54q-120 0 -205 -77t-139 -197t-79 -264t-25 -278zM70 532q0 168 51 329t152 285t251 200t348 76q46 0 107 -5t159 -17h858l-62 -438h-140q-4 86 -21 140t-54 84t-97 41t-150 11
h-106l-78 -456h48q48 0 83 11t62 36t49 67t44 104h112l-104 -592h-116q2 74 -4 120t-25 72t-52 34t-85 8h-36l-84 -476h104q108 0 184 16t129 55t90 103t69 162h142l-100 -502h-910q-84 -14 -158 -18t-120 -4q-124 0 -224 33t-170 101t-108 173t-38 247z" />
    <glyph glyph-name="Thorn" unicode="&#xde;" horiz-adv-x="1232" 
d="M536 464q150 0 242 82t92 252q0 56 -17 92t-47 57t-70 28t-88 7h-58l-90 -518h36zM-30 0l26 152l136 14l186 1068l-134 14l28 152h656l-26 -152l-210 -14l-14 -86h92q98 0 188 -15t159 -54t110 -106t41 -173q0 -134 -56 -228t-150 -154t-216 -87t-252 -27h-62l-24 -138
l196 -14l-26 -152h-648z" />
    <glyph glyph-name="ae" unicode="&#xe6;" horiz-adv-x="1618" 
d="M982 550l68 8t64 14q82 22 133 70t51 148q0 114 -88 114q-84 0 -145 -97t-83 -257zM438 134q66 0 117 63t86 153t53 190t18 172q0 86 -29 132t-97 46q-66 0 -115 -56t-81 -140t-48 -183t-16 -185q0 -94 23 -143t89 -49zM1052 -22q-164 0 -247 76t-105 202
q-18 -52 -52 -102t-82 -89t-108 -63t-128 -24q-154 0 -232 95t-78 269q0 120 34 241t98 219t159 160t219 62q102 0 157 -46t77 -110l34 130q14 0 47 2t69 5t68 6t44 3l-22 -86q48 40 118 68t160 28q120 0 198 -63t78 -183q0 -82 -33 -139t-85 -96t-117 -63t-127 -38
q-26 -6 -58 -10t-63 -8t-61 -7t-52 -3v-38q0 -120 38 -176t128 -56t149 53t113 167l128 -44q-52 -162 -174 -252t-292 -90z" />
    <glyph glyph-name="eth" unicode="&#xf0;" horiz-adv-x="1136" 
d="M20 362q0 116 35 230t101 203t164 144t224 55q54 0 96 -13t75 -34t57 -48t40 -57q4 114 -12 214t-74 190l-188 -124l-52 108l162 106q-52 44 -117 73t-155 45l26 106q126 -10 228 -40t184 -76l206 138l58 -106l-162 -108q36 -40 66 -88t51 -106t33 -131t12 -165
q0 -88 -14 -188t-45 -200t-81 -193t-124 -164t-174 -113t-230 -42q-102 0 -176 28t-122 78t-70 121t-22 157zM448 100q66 0 117 59t86 148t53 194t18 199q0 84 -37 127t-105 43q-62 0 -110 -48t-82 -126t-52 -176t-18 -196q0 -42 4 -82t18 -72t40 -51t68 -19z" />
    <glyph glyph-name="oe" unicode="&#x153;" horiz-adv-x="1626" 
d="M988 550q40 4 77 9t69 17q76 22 124 70t48 144q0 114 -88 114q-86 0 -147 -97t-83 -257zM444 100q58 0 101 34t74 89t51 123t32 136t17 128t5 98q0 90 -31 143t-105 53q-72 0 -122 -62t-83 -153t-48 -197t-15 -194q0 -102 29 -150t95 -48zM1524 320q-52 -162 -173 -252
t-279 -90q-120 0 -195 53t-107 127q-60 -78 -151 -129t-223 -51q-196 0 -287 106t-91 284q0 126 39 244t113 210t180 147t238 55q128 0 198 -49t108 -125q72 84 165 129t207 45q138 0 219 -63t81 -183q0 -82 -33 -139t-86 -96t-118 -63t-127 -38q-26 -6 -58 -10t-63 -8
t-61 -7t-52 -3v-38q0 -120 39 -176t129 -56t148 53t112 167z" />
    <glyph glyph-name="thorn" unicode="&#xfe;" horiz-adv-x="1150" 
d="M236 1338l-142 18l24 128l436 18l10 -18l-174 -734l10 -6q58 126 148 203t232 77q140 0 216 -97t76 -261q0 -138 -40 -263t-110 -220t-165 -150t-205 -55q-106 0 -166 45t-80 111l-60 -378l236 -18l-22 -138h-642l22 138l124 14zM496 102q70 0 122 60t85 150t49 198
t16 204q0 80 -21 121t-77 41q-58 0 -112 -56t-98 -143t-70 -194t-26 -209q0 -72 28 -122t104 -50z" />
    <glyph glyph-name="germandbls" unicode="&#xdf;" horiz-adv-x="1372" 
d="M700 182q-36 -92 128 -92q92 0 141 45t49 109q0 34 -13 61t-35 49t-50 40t-60 36q-40 22 -79 47t-70 57t-51 76t-20 106q0 58 18 107t46 90t64 76t72 67q32 28 61 56t52 56t37 58t14 64q0 76 -51 109t-131 33q-122 0 -178 -72t-78 -194l-210 -1130q-84 -458 -496 -458
q-136 0 -214 52t-78 142q0 74 45 121t127 47q68 0 101 -34t33 -92q0 -28 -10 -64l-82 -14q-4 -28 12 -46t72 -18q42 0 71 18t48 52t32 82t25 108l208 1122q22 116 68 207t119 154t175 97t234 34q66 0 129 -13t112 -42t79 -74t30 -109q0 -50 -20 -92t-50 -78t-67 -68t-71 -64
q-42 -40 -72 -81t-30 -91q0 -34 15 -60t41 -48t59 -42t67 -40q36 -22 72 -49t65 -61t46 -79t17 -105q0 -84 -33 -152t-91 -117t-137 -76t-173 -27q-164 0 -242 65t-78 169q0 78 44 123t114 45q54 0 89 -31t35 -77q0 -42 -30 -90h-66z" />
    <glyph glyph-name="germandbls.calt" horiz-adv-x="1372" 
d="M700 182q-36 -92 128 -92q92 0 141 45t49 109q0 34 -13 61t-35 49t-50 40t-60 36q-40 22 -79 47t-70 57t-51 76t-20 106q0 58 18 107t46 90t64 76t72 67q32 28 61 56t52 56t37 58t14 64q0 76 -51 109t-131 33q-122 0 -178 -72t-78 -194l-210 -1130q-22 -114 -62 -202
t-107 -147t-162 -87t-223 -22v108q58 6 98 23t68 46t45 73t29 104l208 1122q22 116 68 207t119 154t175 97t234 34q66 0 129 -13t112 -42t79 -74t30 -109q0 -50 -20 -92t-50 -78t-67 -68t-71 -64q-42 -40 -72 -81t-30 -91q0 -34 15 -60t41 -48t59 -42t67 -40q36 -22 72 -49
t65 -61t46 -79t17 -105q0 -84 -33 -152t-91 -117t-137 -76t-173 -27q-164 0 -242 65t-78 169q0 78 44 123t114 45q54 0 89 -31t35 -77q0 -42 -30 -90h-66z" />
    <glyph glyph-name="dotlessi" unicode="&#x131;" horiz-adv-x="630" 
d="M582 120q-50 -64 -121 -103t-159 -39q-44 0 -83 11t-69 35t-48 63t-18 97q0 38 14 114t36 168q22 102 47 204t41 172l-152 16l22 132l438 18l8 -20q-52 -232 -96 -429t-66 -317q-10 -58 4 -83t52 -25q42 0 94 50z" />
    <glyph glyph-name="longs" unicode="&#x17f;" horiz-adv-x="778" 
d="M248 1052q34 234 165 364t345 130q74 0 128 -19t87 -50t49 -71t16 -80q0 -78 -47 -129t-133 -51q-64 0 -95 32t-31 82q0 38 14 72l80 12q12 24 12 42q0 28 -23 40t-59 12q-42 0 -73 -18t-52 -48t-35 -71t-22 -87l-212 -1146q-44 -234 -165 -362t-345 -128q-144 0 -218 54
t-74 138q0 76 47 126t133 50t120 -55t2 -139l-88 -14q-10 -32 7 -51t71 -19q44 0 75 20t53 53t35 75t21 88z" />
    <glyph glyph-name="dotlessj" unicode="&#x237;" horiz-adv-x="612" 
d="M-224 -260q-16 -40 7 -56t63 -16q92 0 133 73t65 207l156 894l-152 16l24 130l432 20l8 -20l-156 -896q-20 -114 -60 -209t-103 -163t-152 -105t-209 -37q-130 0 -198 54t-68 138q0 76 48 125t132 49q82 0 115 -53t1 -141z" />
    <glyph glyph-name="s_t" unicode="&#xfb06;" horiz-adv-x="1702" 
d="M1648 162q-70 -94 -158 -139t-184 -45q-76 0 -128 19t-83 51t-45 73t-14 87q0 58 13 127t29 163l62 352h-144l26 152h142l60 332q-96 36 -184 73t-180 37q-84 0 -135 -35t-51 -129q0 -82 34 -160t84 -144q38 -50 65 -86t27 -88q0 -66 -39 -111t-115 -45q-48 0 -84 25
t-36 67q0 24 7 48t25 48h62q18 46 -25 64t-111 18q-86 0 -148 -33t-62 -107q0 -46 35 -74t87 -50t112 -43t112 -55t87 -86t35 -134q0 -90 -38 -156t-103 -111t-152 -67t-185 -22q-174 0 -261 65t-87 169q0 78 44 123t116 45q52 0 87 -31t35 -77q0 -42 -30 -90h-64
q-20 -46 24 -69t128 -23q212 0 212 148q0 50 -32 78t-81 49t-105 40t-105 51t-81 84t-32 136q0 82 36 146t95 109t135 68t154 23q58 0 90 -8q-44 62 -68 133t-24 139q0 132 83 205t227 73q94 0 177 -23t165 -52t166 -54t180 -29l-70 -404h212l-26 -152h-208
q-30 -168 -55 -303t-45 -269q-18 -124 84 -124q38 0 76 23t76 63z" />
    <glyph glyph-name="s_p" horiz-adv-x="2118" 
d="M1468 104q68 0 119 59t84 149t49 197t16 205q0 80 -22 121t-76 41q-58 0 -112 -55t-96 -141t-67 -193t-25 -209q0 -34 6 -65t20 -55t39 -39t65 -15zM776 -400l26 146l124 14l270 1576q-48 18 -89 37t-81 35t-80 26t-86 10q-84 0 -135 -37t-51 -129q0 -82 34 -163t84 -139
q42 -46 67 -84t25 -90q0 -66 -39 -111t-115 -45q-48 0 -84 25t-36 67q0 24 7 48t25 48h62q18 46 -25 64t-111 18q-86 0 -148 -33t-62 -107q0 -46 35 -74t87 -50t112 -43t112 -55t87 -86t35 -134q0 -90 -38 -156t-103 -111t-152 -67t-185 -22q-174 0 -261 65t-87 169
q0 78 44 123t116 45q52 0 87 -31t35 -77q0 -42 -30 -90h-64q-20 -46 24 -69t128 -23q212 0 212 148q0 50 -32 78t-81 49t-105 40t-105 51t-81 84t-32 136q0 82 36 146t95 109t135 68t154 23q58 0 90 -8q-44 62 -68 132t-24 138q0 132 83 206t227 74q94 0 175 -23t159 -51
t156 -53t164 -29l-154 -684l10 -2q32 68 71 123t87 95t106 62t128 22q140 0 216 -97t76 -261q0 -138 -41 -263t-112 -220t-166 -150t-205 -55q-106 0 -166 45t-80 111l-60 -370l236 -18l-26 -146h-642z" />
    <glyph glyph-name="c_t" horiz-adv-x="1734" 
d="M1680 162q-68 -94 -156 -139t-184 -45q-76 0 -128 19t-84 51t-45 73t-13 87q0 58 12 127t28 163l62 352h-144l26 152h142l60 332q-96 36 -184 73t-180 37q-84 0 -135 -35t-51 -125q0 -78 36 -156t94 -150q40 -52 72 -101t32 -109q0 -84 -47 -148t-143 -64q-66 0 -100 33
t-34 85q0 56 34 108h76q24 64 -1 92t-85 28q-88 0 -148 -55t-96 -137t-52 -177t-16 -173q0 -112 36 -166t124 -54q92 0 149 62t99 156l132 -46q-18 -54 -54 -113t-92 -108t-133 -81t-179 -32q-196 0 -293 103t-97 285q0 132 40 252t116 210t188 143t256 53h16t16 -2
q-36 62 -61 126t-25 130q0 138 89 212t233 74q90 0 171 -23t162 -52t165 -54t178 -29l-68 -404h210l-26 -152h-208q-30 -168 -55 -303t-45 -269q-16 -124 84 -124q40 0 77 23t75 63z" />
    <glyph glyph-name="c_h" horiz-adv-x="2150" 
d="M2094 116q-48 -62 -120 -100t-166 -38q-42 0 -81 11t-69 35t-48 61t-18 89t12 114t31 130t41 141t44 149q16 58 16 92q0 28 -12 44t-44 16q-42 0 -86 -37t-84 -97t-74 -134t-56 -148q-16 -54 -29 -105t-23 -103t-19 -108t-17 -122q-24 0 -68 -1t-92 -4t-92 -7t-64 -8
l90 388l162 1002q-78 28 -155 51t-161 23q-42 0 -80 -8t-66 -27t-44 -52t-16 -81q0 -80 36 -156t94 -148q40 -52 72 -101t32 -109q0 -84 -47 -148t-143 -64q-66 0 -100 33t-34 85q0 56 34 108h76q24 64 -1 92t-85 28q-88 0 -148 -55t-96 -137t-52 -177t-16 -173
q0 -112 36 -166t124 -54q92 0 149 62t99 156l132 -46q-18 -54 -54 -113t-92 -108t-133 -81t-179 -32q-196 0 -293 103t-97 285q0 132 40 252t116 210t188 143t256 53h16t16 -2q-38 62 -62 125t-24 129q0 74 26 129t73 91t110 54t137 18q82 0 161 -16t155 -35t151 -36
t151 -19l-174 -798l12 -6q30 62 69 128t93 118t122 86t154 34q102 0 156 -58t54 -164q0 -60 -22 -144q-32 -120 -57 -215t-47 -187q-8 -26 -8 -52q0 -62 58 -62q40 0 92 48z" />
    <glyph glyph-name="c_k" horiz-adv-x="2082" 
d="M2040 134q-54 -78 -131 -117t-167 -39q-142 0 -196 74t-22 184l30 106q16 58 -9 84t-73 26q-30 0 -66 -9t-58 -21l-70 -414q-22 0 -63 -2t-86 -5t-87 -8t-66 -11l100 444l152 950q-78 28 -155 51t-161 23q-42 0 -80 -8t-66 -27t-44 -52t-16 -81q0 -80 36 -156t94 -148
q40 -52 72 -101t32 -109q0 -84 -47 -148t-143 -64q-66 0 -100 33t-34 85q0 56 34 108h76q24 64 -1 92t-85 28q-88 0 -148 -55t-96 -137t-52 -177t-16 -173q0 -112 36 -166t124 -54q92 0 149 62t99 156l132 -46q-18 -54 -54 -113t-92 -108t-133 -81t-179 -32q-196 0 -293 103
t-97 285q0 132 40 252t116 210t188 143t256 53h16t16 -2q-38 62 -62 125t-24 129q0 74 26 129t73 91t110 54t137 18q82 0 161 -16t155 -35t151 -36t151 -19l-162 -896l140 78q114 62 166 96t52 80l-78 32q-8 74 36 130t134 56q80 0 118 -45t38 -103q0 -60 -37 -105t-115 -85
t-150 -76t-156 -74l6 -10q34 6 64 9t58 1q68 0 110 -20t62 -53t21 -76t-11 -89l-18 -74q-12 -50 0 -77t58 -27q32 0 61 21t49 45z" />
    <glyph glyph-name="T_h" horiz-adv-x="2298" 
d="M1958 -22q-42 0 -82 11t-70 35t-48 61t-18 89t12 114t30 130t41 141t45 149q8 28 13 52t5 42q0 58 -56 58q-42 0 -86 -37t-84 -97t-75 -134t-57 -148q-16 -54 -29 -105t-23 -103t-18 -108t-16 -122q-24 0 -68 -1t-93 -4t-93 -7t-64 -8l90 388l138 860h-420l-186 -1066
l178 -16l-26 -152h-674l26 152l182 16l184 1066h-8q-72 0 -123 -12t-90 -46t-71 -95t-64 -157h-140l102 476h998l442 24l8 -20l-166 -740l12 -6q30 62 70 128t93 118t121 86t154 34q102 0 156 -58t54 -164q0 -60 -22 -144q-32 -120 -57 -215t-47 -187q-4 -16 -6 -29t-2 -23
q0 -62 58 -62q40 0 94 48l60 -74q-48 -62 -119 -100t-165 -38z" />
    <glyph glyph-name="circumflex" unicode="&#x2c6;" horiz-adv-x="1000" 
d="M914 1102l-182 190l-270 -194l-56 54l250 320q12 8 46 21t68 13q44 0 66 -18t38 -60l110 -280z" />
    <glyph glyph-name="caron" unicode="&#x2c7;" horiz-adv-x="1000" 
d="M834 1192q-30 -42 -63 -59t-75 -17q-32 0 -59 10t-37 18l-136 332l70 46l188 -202l262 200l56 -52z" />
    <glyph glyph-name="uni02C9" unicode="&#x2c9;" horiz-adv-x="1000" 
d="M434 1198l30 170h544l-30 -170h-544z" />
    <glyph glyph-name="breve" unicode="&#x2d8;" horiz-adv-x="1000" 
d="M1052 1448q-18 -62 -48 -119t-74 -101t-104 -70t-138 -26q-76 0 -125 26t-76 70t-36 101t-3 119l96 18q6 -38 17 -66t32 -47t53 -29t82 -10q96 0 146 40t84 110z" />
    <glyph glyph-name="dieresis" unicode="&#xa8;" horiz-adv-x="1000" 
d="M914 1160q-68 0 -95 32t-27 78q0 32 11 63t32 55t52 38t69 14q52 0 86 -26t34 -84q0 -70 -43 -120t-119 -50zM500 1160q-68 0 -95 32t-27 78q0 32 11 63t32 55t52 38t69 14q52 0 86 -26t34 -84q0 -70 -43 -120t-119 -50z" />
    <glyph glyph-name="macron" unicode="&#xaf;" horiz-adv-x="1000" 
d="M434 1198l30 172h544l-30 -172h-544z" />
    <glyph glyph-name="degree" unicode="&#xb0;" horiz-adv-x="658" 
d="M150 1254q0 48 16 91t48 76t80 53t110 20q120 0 182 -65t62 -171q0 -102 -64 -174t-186 -72q-126 0 -187 69t-61 173zM230 1254q0 -76 42 -126t130 -50q78 0 123 50t45 126q0 82 -46 129t-128 47q-78 0 -122 -49t-44 -127z" />
    <glyph glyph-name="acute" unicode="&#xb4;" horiz-adv-x="1000" 
d="M584 1096l-60 40l190 362l104 22q16 4 35 2t34 -11t25 -24t10 -37q0 -30 -16 -53t-44 -49z" />
    <glyph glyph-name="grave" unicode="`" horiz-adv-x="1000" 
d="M790 1092l-190 266q-14 18 -24 37t-10 47q0 26 15 45t37 30t47 11t47 -8l82 -34l64 -366z" />
    <glyph glyph-name="cedilla" unicode="&#xb8;" horiz-adv-x="1000" 
d="M328 -340q0 -44 62 -44q44 0 78 31t34 99q0 38 -21 60t-57 22q-20 0 -41 -2t-35 -6l-10 50l124 156h104l-104 -130q12 4 35 5t33 1q76 0 117 -38t41 -104q0 -40 -19 -78t-57 -67t-92 -47t-122 -18q-94 0 -135 38t-41 80q0 36 22 62t62 26q26 0 47 -14t25 -52z" />
    <glyph glyph-name="dotaccent" unicode="&#x2d9;" horiz-adv-x="1000" 
d="M690 1140q-44 0 -73 12t-47 31t-25 44t-7 51q0 90 60 145t150 55q70 0 111 -33t41 -107q0 -90 -60 -144t-150 -54z" />
    <glyph glyph-name="ring" unicode="&#x2da;" horiz-adv-x="1000" 
d="M948 1348q0 -48 -18 -92t-52 -76t-81 -51t-103 -19q-98 0 -144 46t-46 124q0 52 19 96t54 75t82 49t103 18q92 0 139 -45t47 -125zM710 1214q56 0 82 39t26 85q0 34 -17 56t-59 22q-46 0 -77 -36t-31 -88q0 -30 15 -54t61 -24z" />
    <glyph glyph-name="ogonek" unicode="&#x2db;" horiz-adv-x="1000" 
d="M666 -312q-18 -28 -44 -57t-61 -53t-80 -39t-103 -15q-88 0 -137 40t-49 112q0 62 31 113t80 95t108 81t117 69l88 -12l12 -12q-38 -30 -76 -64t-68 -70t-49 -75t-19 -79q0 -24 13 -42t47 -18q38 0 66 23t54 51z" />
    <glyph glyph-name="tilde" unicode="&#x2dc;" horiz-adv-x="1000" 
d="M1078 1412q-28 -72 -59 -119t-64 -76t-67 -40t-66 -11q-52 0 -93 15t-77 31q-32 14 -59 23t-55 9q-26 0 -52 -17t-58 -71l-66 22q56 126 116 184t148 58q56 0 90 -14t74 -32q28 -12 55 -21t57 -9q34 0 58 17t54 69z" />
    <glyph glyph-name="hungarumlaut" unicode="&#x2dd;" horiz-adv-x="1000" 
d="M444 1096l-62 36l188 376l100 24q34 10 70 -5t36 -61q0 -32 -18 -57t-46 -53zM702 1132l186 376l100 26q36 10 71 -5t35 -61q0 -30 -18 -56t-46 -54l-268 -262z" />
    <glyph glyph-name="perthousand" unicode="&#x2030;" horiz-adv-x="2230" 
d="M252 0l848 1074h134l-846 -1074h-136zM388 622q68 0 110 75t42 193q0 64 -21 91t-61 27q-46 0 -76 -29t-48 -71t-25 -88t-7 -78q0 -64 21 -92t65 -28zM368 526q-136 0 -200 64t-64 172q0 76 28 139t78 108t118 70t146 25q116 0 190 -52t74 -174q0 -88 -32 -154t-85 -110
t-119 -66t-134 -22zM1052 74q68 0 110 75t42 193q0 64 -20 91t-60 27q-46 0 -76 -29t-48 -71t-26 -88t-8 -78q0 -64 21 -92t65 -28zM1034 -22q-138 0 -202 64t-64 172q0 76 28 139t78 108t118 70t146 25q118 0 192 -52t74 -174q0 -88 -32 -154t-85 -110t-119 -66t-134 -22z
M1756 74q68 0 110 75t42 193q0 64 -21 91t-61 27q-46 0 -76 -29t-48 -71t-25 -88t-7 -78q0 -64 21 -92t65 -28zM1736 -22q-136 0 -200 64t-64 172q0 76 28 139t78 108t118 70t146 25q116 0 190 -52t74 -174q0 -88 -32 -154t-85 -110t-119 -66t-134 -22z" />
    <glyph glyph-name="percent" unicode="%" horiz-adv-x="1536" 
d="M256 0l850 1074h132l-846 -1074h-136zM392 620q68 0 111 77t43 195q0 64 -21 90t-61 26q-46 0 -76 -29t-48 -71t-26 -88t-8 -78q0 -64 21 -93t65 -29zM374 526q-138 0 -201 63t-63 175q0 76 28 139t77 108t117 69t146 24q118 0 191 -53t73 -175q0 -88 -32 -154t-84 -109
t-118 -65t-134 -22zM1054 72q68 0 111 77t43 195q0 64 -21 90t-61 26q-46 0 -76 -29t-48 -71t-26 -88t-8 -78q0 -64 21 -93t65 -29zM1036 -22q-138 0 -201 63t-63 175q0 76 28 139t77 108t117 69t146 24q118 0 191 -53t73 -175q0 -88 -32 -154t-84 -109t-118 -65t-134 -22z
" />
    <glyph glyph-name="fraction" unicode="&#x2044;" horiz-adv-x="400" 
d="M-404 -14l1104 1434h134l-1104 -1434h-134z" />
    <glyph glyph-name="zerosuperior" unicode="&#x2070;" horiz-adv-x="816" 
d="M458 886q46 0 81 50t59 127t36 167t12 168q0 86 -19 113t-53 27q-44 0 -79 -54t-60 -134t-38 -172t-13 -168q0 -72 18 -98t56 -26zM442 788q-156 0 -225 80t-69 216q0 98 25 196t78 178t137 130t204 50q64 0 119 -16t94 -53t61 -96t22 -143t-24 -179t-78 -176t-139 -134
t-205 -53z" />
    <glyph glyph-name="onesuperior" unicode="&#xb9;" horiz-adv-x="602" 
d="M116 800l18 124l142 12l82 464q-16 -4 -42 -4t-53 2t-51 5t-36 7l24 116q96 -8 171 22t117 78h152l-124 -692l120 -10l-20 -124h-500z" />
    <glyph glyph-name="twosuperior" unicode="&#xb2;" horiz-adv-x="680" 
d="M84 800l26 150l154 138q122 110 180 195t58 163q0 60 -26 83t-70 23q-36 0 -59 -15t-9 -55h48q4 -62 -22 -102t-96 -40q-52 0 -77 29t-25 75q0 78 80 136t232 58q72 0 124 -16t85 -44t48 -65t15 -79q0 -66 -30 -117t-81 -95t-120 -86t-147 -88l-108 -64v-8h180
q86 0 119 25t51 69h96l-48 -270h-578z" />
    <glyph glyph-name="threesuperior" unicode="&#xb3;" horiz-adv-x="698" 
d="M250 944q-16 -22 -16 -42q0 -38 78 -38q82 0 130 57t48 149q0 68 -24 95t-70 27q-28 0 -58 -6t-58 -14l-10 70q110 32 183 84t73 146q0 40 -20 63t-68 23q-40 0 -68 -18t-14 -54h54q2 -10 2 -28q0 -44 -28 -77t-92 -33q-52 0 -75 30t-23 68q0 84 82 138t242 54
q250 0 250 -164q0 -86 -80 -137t-224 -81l-2 -8q20 2 40 3t38 1q90 0 149 -41t59 -129q0 -80 -39 -136t-102 -91t-140 -51t-151 -16q-126 0 -177 49t-51 115q0 52 34 92t100 40q54 0 75 -23t21 -57q0 -30 -12 -60h-56v0z" />
    <glyph glyph-name="foursuperior" unicode="&#x2074;" horiz-adv-x="752" 
d="M470 1166l50 294h-6l-278 -294h234zM280 924l150 12l16 100h-342l22 130l422 460h230l-80 -460h116l-22 -130h-118l-18 -102l98 -10l-22 -124h-472z" />
    <glyph glyph-name="fivesuperior" unicode="&#x2075;" horiz-adv-x="676" 
d="M240 942q-18 -22 -18 -44q0 -16 15 -28t53 -12q54 0 87 27t51 67t25 86t7 82q0 98 -78 98q-34 0 -67 -14t-67 -36l-58 24l122 430l32 20q56 -20 117 -31t113 -11q138 0 168 86l60 -6q-10 -132 -85 -195t-203 -63q-40 0 -81 4t-75 14l-56 -166q28 16 76 35t128 19
q108 0 159 -50t51 -136q0 -82 -33 -147t-91 -111t-137 -71t-173 -25q-62 0 -102 14t-63 36t-32 49t-9 53q0 24 7 49t24 46t44 34t67 13q48 0 69 -22t21 -54t-18 -64h-50z" />
    <glyph glyph-name="sixsuperior" unicode="&#x2076;" horiz-adv-x="742" 
d="M680 1500q8 14 8 26q0 16 -14 24t-34 8q-48 0 -86 -25t-68 -69t-52 -105t-36 -131q22 28 75 55t123 27q82 0 140 -42t58 -146q0 -84 -31 -147t-82 -104t-120 -62t-143 -21q-58 0 -108 15t-86 50t-57 90t-21 135q0 92 29 191t87 181t147 135t209 53q88 0 150 -37t62 -117
q0 -48 -28 -88t-92 -40q-54 0 -76 25t-22 55q0 28 18 64h50zM432 878q34 0 59 24t41 61t24 80t8 83q0 28 -13 53t-51 25t-64 -24t-43 -60t-24 -76t-7 -72q0 -40 15 -67t55 -27z" />
    <glyph glyph-name="sevensuperior" unicode="&#x2077;" horiz-adv-x="674" 
d="M208 912q0 48 37 93t89 97q64 62 135 128t151 142l60 56h-254q-44 0 -71 -4t-44 -17t-30 -37t-27 -62h-92l74 318h604l-22 -120q-116 -150 -200 -268t-130 -188q-26 -38 -44 -79t-18 -87q0 -30 8 -56l-46 -46q-56 -4 -91 6t-55 29t-27 44t-7 51z" />
    <glyph glyph-name="eightsuperior" unicode="&#x2078;" horiz-adv-x="738" 
d="M544 1554q-30 0 -50 -19t-32 -48t-18 -63t-6 -62q0 -26 11 -57t47 -31q30 0 50 22t33 53t18 64t5 55q0 34 -11 60t-47 26zM480 1192q-28 0 -51 -18t-39 -50t-25 -73t-9 -89q0 -38 14 -65t56 -27q52 0 86 64t34 154q0 38 -11 71t-55 33zM392 1238q-92 10 -134 57t-42 111
q0 108 88 170t256 62q138 0 206 -49t68 -139q0 -88 -68 -148t-182 -68v-4q106 -6 156 -55t50 -125q0 -64 -28 -112t-79 -82t-120 -51t-153 -17q-156 0 -225 57t-69 153q0 104 75 167t201 69v4v0z" />
    <glyph glyph-name="ninesuperior" unicode="&#x2079;" horiz-adv-x="760" 
d="M326 868q84 0 151 82t99 254q-22 -34 -72 -61t-120 -27q-36 0 -74 10t-69 34t-50 62t-19 96q0 84 30 144t80 99t116 58t138 19q64 0 117 -17t91 -55t59 -99t21 -149q0 -80 -28 -173t-87 -172t-153 -132t-226 -53q-112 0 -160 39t-48 109q0 52 34 92t96 40q54 0 75 -24
t21 -56q0 -16 -4 -30l-8 -28h-56q-10 -14 -10 -30q0 -32 56 -32zM534 1548q-38 0 -63 -25t-40 -62t-22 -79t-7 -76q0 -88 66 -88q40 0 67 23t43 58t22 75t6 74q0 52 -16 76t-56 24z" />
    <glyph glyph-name="parenleftsuperior" unicode="&#x207d;" horiz-adv-x="466" 
d="M410 632q-44 48 -86 100t-74 109t-52 121t-20 138q0 114 39 205t102 168t143 142t162 127l46 -32q-116 -152 -188 -319t-72 -373q0 -98 16 -185t42 -163z" />
    <glyph glyph-name="parenrightsuperior" unicode="&#x207e;" horiz-adv-x="466" 
d="M0 668q116 152 187 316t71 368q0 104 -15 192t-41 164l58 36q44 -48 86 -101t74 -112t52 -123t20 -134q0 -108 -38 -197t-100 -166t-142 -144t-166 -131z" />
    <glyph glyph-name="hyphensuperior" unicode="&#xf6e6;" horiz-adv-x="436" 
d="M166 1142l22 122h302l-24 -122h-300z" />
    <glyph glyph-name="commasuperior" unicode="&#xf6e2;" horiz-adv-x="308" 
d="M68 652q18 12 46 31t53 42t43 49t18 50q0 28 -22 34l-58 -52q-22 8 -43 30t-21 58q0 58 41 91t103 33q64 0 96 -34t32 -96q0 -46 -21 -87t-56 -78t-79 -70t-90 -59z" />
    <glyph glyph-name="periodsuperior" unicode="&#xf6e8;" horiz-adv-x="306" 
d="M196 788q-64 0 -87 31t-23 69q0 64 46 103t104 39q50 0 80 -24t30 -72q0 -66 -45 -106t-105 -40z" />
    <glyph glyph-name="minussuperior" unicode="&#x207b;" horiz-adv-x="730" 
d="M178 1168l14 84h564l-12 -84h-566z" />
    <glyph glyph-name="plussuperior" unicode="&#x207a;" horiz-adv-x="738" 
d="M514 1168l-44 -238h-98l44 238h-232l16 84h230l40 224h98l-40 -224h244l-16 -84h-242z" />
    <glyph glyph-name="equalsuperior" unicode="&#x207c;" horiz-adv-x="738" 
d="M164 1060l16 84h566l-16 -84h-566zM206 1274l16 84h564l-16 -84h-564z" />
    <glyph glyph-name="a.sup" horiz-adv-x="908" 
d="M466 900q46 0 80 43t55 103t31 123t10 103q0 126 -80 126q-48 0 -80 -43t-51 -103t-28 -126t-9 -110q0 -54 15 -85t57 -31zM996 898q-34 -50 -89 -81t-117 -31q-78 0 -118 34t-40 92q0 12 2 25t6 27l-8 2q-22 -72 -89 -126t-163 -54q-116 0 -174 65t-58 185q0 86 25 169
t72 148t116 105t157 40q76 0 114 -33t48 -69l24 84h58t68 1t66 3t52 6q-30 -132 -56 -246t-48 -246q-2 -12 -4 -26t1 -27t13 -21t28 -8t32 10t30 26z" />
    <glyph glyph-name="b.sup" horiz-adv-x="868" 
d="M516 886q48 0 81 42t52 102t27 124t8 108q0 58 -15 90t-55 32q-42 0 -76 -43t-57 -103t-36 -126t-13 -114t17 -80t67 -32zM442 1314q20 38 45 72t57 59t73 39t93 14q102 0 160 -68t58 -190q0 -102 -33 -185t-92 -143t-140 -93t-177 -33q-166 0 -236 72t-70 186
q0 64 10 128t24 128l76 352l-98 12l20 106l338 12l6 -12l-124 -452z" />
    <glyph glyph-name="c.sup" horiz-adv-x="752" 
d="M774 1010q-14 -40 -39 -80t-65 -72t-98 -52t-138 -20q-144 0 -215 70t-71 204q0 88 30 168t86 140t138 95t188 35q66 0 113 -15t75 -39t41 -56t13 -66q0 -62 -38 -110t-108 -48q-54 0 -78 27t-24 61q0 20 7 39t17 39h58q8 18 8 34q0 22 -17 32t-45 10q-60 0 -101 -39
t-65 -95t-34 -119t-10 -109q0 -70 23 -101t75 -31q64 0 103 38t67 94z" />
    <glyph glyph-name="d.sup" horiz-adv-x="908" 
d="M464 900q48 0 81 44t54 104t30 123t9 103q0 58 -18 91t-60 33q-48 0 -80 -42t-52 -102t-29 -126t-9 -114q0 -52 16 -83t58 -31zM996 898q-34 -50 -90 -81t-122 -31q-76 0 -113 34t-37 88q0 30 8 56l-10 2q-10 -36 -33 -68t-55 -57t-73 -40t-89 -15q-118 0 -176 69
t-58 189q0 86 24 168t70 145t115 102t157 39q76 0 115 -33t53 -69l52 256l-100 12l18 106l340 10l4 -12l-154 -770q-6 -34 -2 -58t36 -24q22 0 37 11t31 27z" />
    <glyph glyph-name="e.sup" horiz-adv-x="754" 
d="M414 1194q38 4 74 10t64 21t45 41t17 70q0 34 -12 52t-44 18q-58 0 -93 -60t-51 -152zM790 1014q-38 -110 -129 -169t-221 -59q-144 0 -218 70t-74 206q0 84 29 162t86 139t139 98t188 37q112 0 175 -44t63 -132q0 -76 -45 -121t-111 -70t-140 -35t-132 -14
q-6 -28 -6 -50q0 -54 30 -80t84 -26q36 0 63 11t48 28t36 40t29 47z" />
    <glyph glyph-name="f.sup" horiz-adv-x="636" 
d="M274 1324h-110l24 120h110q16 82 45 149t75 115t112 74t156 26q38 0 77 -8t70 -27t51 -49t20 -74q0 -58 -38 -96t-104 -38q-50 0 -74 24t-24 58q0 30 14 58l62 10q8 14 8 26q0 18 -16 27t-40 9q-44 0 -69 -26t-40 -68t-23 -92t-16 -98h204l-24 -120h-204l-84 -438
q-34 -176 -134 -257t-280 -91l-20 74q50 18 81 42t52 57t33 75t22 98z" />
    <glyph glyph-name="g.sup" horiz-adv-x="880" 
d="M472 960q46 0 78 34t51 83t28 105t9 100q0 64 -23 90t-59 26q-50 0 -81 -37t-49 -89t-24 -109t-6 -97q0 -50 16 -78t60 -28zM270 670q-22 -58 74 -58q62 0 107 30t76 73t52 93t33 92q10 32 18 62t18 64l-10 4q-28 -80 -95 -134t-163 -54q-118 0 -174 65t-56 185
q0 86 24 160t68 129t108 86t146 31q78 0 123 -33t61 -69l22 84h57t69 1t68 3t52 6q-16 -66 -33 -142t-34 -154t-33 -154t-30 -140q-40 -184 -164 -275t-316 -91q-100 0 -166 37t-66 119q0 62 38 95t96 33q44 0 77 -23t33 -77q0 -10 -1 -19t-3 -19z" />
    <glyph glyph-name="h.sup" horiz-adv-x="916" 
d="M990 882q-38 -44 -95 -70t-131 -26q-30 0 -60 7t-54 24t-39 44t-15 67q0 68 28 157t62 189q12 34 14 62t-34 28q-24 0 -51 -21t-52 -56t-48 -83t-39 -102q-12 -38 -21 -72t-16 -69t-13 -73t-12 -84q-16 0 -54 -1t-80 -3t-79 -5t-51 -5l64 264l104 596l-100 12l18 108
l342 14l6 -14l-126 -506l10 -4q20 42 47 84t65 77t87 56t113 21q76 0 114 -41t38 -113q0 -46 -14 -96l-68 -246q-10 -36 -10 -54q0 -34 40 -34q28 0 64 30z" />
    <glyph glyph-name="i.sup" horiz-adv-x="482" 
d="M560 886q-40 -40 -94 -70t-126 -30q-30 0 -60 7t-53 25t-38 47t-15 71q0 18 3 43t13 59l78 318l-108 12l20 106l348 12l6 -12q-12 -50 -31 -127t-38 -156t-33 -147t-14 -98q0 -40 36 -40q24 0 66 30zM388 1552q-72 0 -98 33t-26 71q0 74 52 115t122 41q58 0 91 -26
t33 -82q0 -70 -52 -111t-122 -41z" />
    <glyph glyph-name="j.sup" horiz-adv-x="480" 
d="M402 1552q-74 0 -99 33t-25 71q0 74 52 115t122 41q58 0 91 -26t33 -82q0 -70 -52 -111t-122 -41zM-6 612q50 18 81 42t52 57t33 75t22 98l88 472l-110 12l22 108l344 10l6 -12l-110 -596q-32 -176 -131 -254t-277 -86z" />
    <glyph glyph-name="k.sup" horiz-adv-x="868" 
d="M938 892q-38 -52 -99 -79t-125 -27q-92 0 -135 38t-43 96q0 22 6 46l16 66q10 40 -7 53t-45 13q-32 0 -66 -14l-50 -278q-16 0 -51 -1t-75 -4t-76 -6t-52 -7l72 302l96 564l-100 10l20 106l342 10l4 -10l-114 -570l80 40q84 40 121 61t37 49l-56 22q-2 58 31 99t103 41
q64 0 92 -33t28 -75q0 -90 -120 -138q-66 -28 -112 -48t-108 -44l4 -6q46 8 88 8q86 0 117 -35t31 -79q0 -26 -6 -46l-12 -50q-16 -62 40 -62q22 0 42 12t34 28z" />
    <glyph glyph-name="l.sup" horiz-adv-x="486" 
d="M556 882q-38 -40 -93 -68t-127 -28q-30 0 -61 8t-55 26t-39 48t-15 76q0 40 17 115t35 157l100 436l-102 12l18 106l344 14l4 -16l-164 -772q-10 -50 -2 -68t36 -18q30 0 66 28z" />
    <glyph glyph-name="m.sup" horiz-adv-x="1312" 
d="M1376 882q-38 -42 -96 -69t-130 -27q-30 0 -60 7t-54 24t-39 44t-15 67q0 68 28 156t62 190q14 44 12 67t-32 23q-22 0 -44 -17t-43 -45t-39 -63t-32 -73q-34 -90 -56 -187t-32 -173q-58 0 -124 -4t-122 -8q14 56 33 124t36 135t32 126t25 99q10 34 10 60t-26 26
q-22 0 -47 -21t-50 -56t-47 -83t-40 -102q-22 -76 -37 -141t-27 -157q-16 0 -54 -1t-79 -3t-78 -5t-51 -5l64 264l44 304l-102 12l20 108l334 12l6 -14l-60 -218l8 -4q20 42 49 85t67 79t85 58t105 22q52 0 87 -25t35 -85q0 -22 -5 -48t-17 -58l8 -4q52 108 117 164t161 56
q76 0 114 -40t38 -112q0 -22 -3 -46t-11 -52l-72 -262q-10 -40 0 -56t36 -16q28 0 64 30z" />
    <glyph glyph-name="n.sup" horiz-adv-x="932" 
d="M996 886q-38 -42 -93 -71t-127 -29q-30 0 -60 7t-54 24t-39 44t-15 67q0 64 27 155t61 191q12 36 12 58q0 36 -34 36q-28 0 -54 -21t-50 -58t-45 -85t-39 -102q-22 -76 -36 -141t-26 -157q-18 0 -55 -1t-79 -3t-79 -5t-51 -5l64 264l44 304l-102 12l20 108l342 12l6 -14
l-64 -224l10 -4q20 42 47 86t65 80t87 60t113 24q70 0 111 -41t41 -117q0 -44 -14 -92l-60 -208q-8 -26 -14 -52t-6 -42q0 -40 42 -40q22 0 64 30z" />
    <glyph glyph-name="o.sup" horiz-adv-x="842" 
d="M458 786q-170 0 -240 71t-70 195q0 90 30 171t87 142t140 97t191 36q162 0 234 -72t72 -198q0 -84 -29 -164t-85 -142t-139 -99t-191 -37zM476 880q52 0 86 51t55 119t29 137t8 105q0 114 -82 114q-44 0 -77 -42t-54 -104t-32 -133t-11 -131q0 -64 19 -90t59 -26z" />
    <glyph glyph-name="p.sup" horiz-adv-x="928" 
d="M562 882q46 0 79 41t55 102t33 132t11 133q0 58 -16 79t-44 21q-36 0 -73 -36t-65 -95t-46 -132t-18 -145q0 -44 20 -72t64 -28zM46 548l20 118l90 10l122 680l-112 14l18 108l334 10l6 -12l-44 -184l6 -2q52 98 114 153t168 55q104 0 162 -66t58 -180q0 -102 -32 -188
t-86 -148t-124 -96t-144 -34q-78 0 -121 31t-55 79l-36 -218l170 -18l-20 -112h-494z" />
    <glyph glyph-name="q.sup" horiz-adv-x="880" 
d="M466 904q44 0 77 42t54 102t32 127t11 117q0 48 -15 75t-55 27t-72 -36t-53 -91t-32 -120t-11 -123q0 -60 11 -90t53 -30zM412 548l22 112l140 14l68 290l-10 2q-14 -34 -35 -66t-52 -58t-71 -41t-90 -15q-118 0 -177 64t-59 184q0 106 28 192t78 146t117 93t143 33
q86 0 127 -32t63 -86l100 104h140l-150 -808l118 -12l-20 -116h-480z" />
    <glyph glyph-name="r.sup" horiz-adv-x="790" 
d="M220 1080l44 278l-104 14l18 106l322 12l8 -16l-62 -260l8 -4q22 54 50 106t64 92t82 65t102 25q28 0 54 -6t47 -22t34 -42t13 -66q0 -72 -43 -106t-113 -34q-30 0 -60 8l-4 100q-10 -2 -20 -6l-20 -8q-82 -34 -142 -169t-82 -341q-22 0 -57 -1t-73 -3t-74 -6t-62 -6z
" />
    <glyph glyph-name="s.sup" horiz-adv-x="722" 
d="M288 916q-16 -26 8 -41t86 -15q84 0 122 28t38 72q0 46 -34 65t-86 35q-30 8 -66 21t-67 36t-52 56t-21 85q0 60 27 105t73 75t107 45t129 15q48 0 92 -8t79 -26t56 -46t21 -68q0 -46 -29 -76t-81 -30q-38 0 -68 17t-30 51q0 12 5 28t19 32h44q16 28 -16 39t-80 11
q-68 0 -110 -22t-42 -66q0 -22 12 -38t30 -28t41 -20t45 -14q40 -12 80 -26t72 -36t52 -56t20 -86q0 -60 -30 -106t-80 -77t-116 -46t-138 -15q-128 0 -192 42t-64 112q0 54 33 85t83 31q46 0 72 -22t26 -58q0 -30 -22 -60h-48z" />
    <glyph glyph-name="t.sup" horiz-adv-x="604" 
d="M678 918q-54 -70 -130 -101t-148 -31q-40 0 -78 8t-66 28t-45 53t-17 85q0 32 7 73t15 83l48 248h-104l20 120h102l32 168l168 26h100l-36 -194h152l-20 -120h-150l-56 -270q-6 -32 -10 -62t-4 -48q0 -58 60 -58q26 0 53 16t53 38z" />
    <glyph glyph-name="u.sup" horiz-adv-x="926" 
d="M1012 898q-34 -52 -88 -82t-128 -30q-64 0 -110 30t-46 108q0 30 10 74l6 24l-6 4q-18 -40 -44 -82t-62 -77t-84 -58t-110 -23q-90 0 -128 45t-38 115q0 34 8 66l78 346l-100 12l18 106l340 14l4 -14q-24 -88 -43 -167t-33 -141t-23 -104t-11 -56q-2 -8 -5 -24t-3 -28
q0 -34 34 -34q28 0 55 21t51 56t45 82t39 101q22 70 36 139t26 159q16 0 54 1t80 3t78 4t52 6q-18 -76 -34 -153t-31 -144t-25 -122t-16 -85q-2 -10 -3 -17t-1 -15q0 -42 42 -42q20 0 34 10t30 26z" />
    <glyph glyph-name="v.sup" horiz-adv-x="846" 
d="M706 1262q-40 12 -63 40t-23 64q0 64 39 98t101 34q80 0 120 -49t40 -127q0 -74 -27 -167t-83 -175t-143 -138t-207 -56q-42 0 -85 8t-78 29t-56 59t-21 96q0 16 3 41t7 37l46 212q10 46 10 64q0 32 -26 32q-20 0 -34 -13t-34 -35l-68 46q26 44 59 70t67 41t68 20t64 5
q70 0 114 -35t44 -105q0 -12 -3 -29t-7 -39l-54 -266q-8 -34 -8 -66q0 -60 64 -60q48 0 95 36t83 90t58 115t22 113q0 24 -8 44t-40 20z" />
    <glyph glyph-name="w.sup" horiz-adv-x="1258" 
d="M1118 1260q-40 12 -64 45t-24 67q0 52 36 89t106 37q80 0 121 -50t41 -130t-28 -173t-85 -173t-143 -133t-202 -53q-70 0 -131 18t-95 64q-40 -32 -93 -57t-137 -25q-82 0 -142 42t-60 142q0 14 3 36t7 40l48 224q4 16 7 33t3 27q0 34 -26 34q-18 0 -33 -13t-35 -35
l-68 46q30 44 63 70t67 41t67 20t63 5q68 0 113 -35t45 -99q0 -16 -4 -42t-8 -40l-58 -258q-4 -14 -6 -28t-2 -24q0 -26 12 -40t44 -14q24 0 54 15t56 49q30 120 58 240t50 254q16 0 51 2t72 4t71 5t50 7l-20 -75t-25 -96t-25 -105t-23 -103t-17 -88t-6 -61q0 -34 18 -49
t60 -15q48 0 94 36t83 88t59 113t22 113q0 26 -8 46t-36 20z" />
    <glyph glyph-name="x.sup" horiz-adv-x="974" 
d="M980 936q-42 -86 -102 -118t-132 -32t-121 32t-83 114l-28 66l-60 -78q-18 -22 -37 -46t-42 -44t-53 -32t-68 -12q-46 0 -86 23t-40 87q0 58 37 87t89 29q10 0 20 -1t20 -3l8 -74q10 -8 25 -4t35 30l110 140l-86 212q-10 22 -19 36t-27 14q-28 0 -58 -52l-78 42
q46 90 106 118t124 28q88 0 124 -43t64 -117l28 -68l58 76q16 20 37 47t46 50t58 39t73 16q48 0 90 -25t42 -93q0 -60 -39 -89t-89 -29q-10 0 -20 1t-20 3l-12 80q-26 14 -45 -3t-53 -63l-84 -112l76 -180q16 -36 29 -52t35 -16q20 0 35 14t37 48z" />
    <glyph glyph-name="y.sup" horiz-adv-x="860" 
d="M190 664q-10 -22 3 -41t47 -19q74 0 127 42t111 114q-70 268 -140 496q-14 42 -21 61t-27 19q-22 0 -34 -21t-28 -53l-82 36q14 38 34 73t47 62t65 43t90 16q64 0 104 -32t60 -102l106 -386q30 44 56 88t46 83t32 71t12 52t-7 36t-29 18l-42 -52q-32 10 -52 39t-20 69
q0 56 41 89t99 33q78 0 113 -44t35 -114q0 -48 -22 -106t-55 -118t-72 -120t-75 -110q-58 -84 -112 -153t-110 -118t-119 -75t-137 -26q-98 0 -152 47t-54 121q0 60 36 97t96 37q40 0 73 -25t33 -77q0 -20 -6 -40z" />
    <glyph glyph-name="z.sup" horiz-adv-x="836" 
d="M882 1108q-22 -94 -49 -156t-60 -99t-70 -52t-77 -15q-48 0 -79 12t-71 34l-138 80q-20 -66 -54 -96t-74 -30q-46 0 -64 25t-18 51q0 44 45 75t125 41q74 76 150 149t140 137q-80 8 -130 11t-98 5q-44 2 -62 -17t-40 -75l-74 18q24 86 50 143t55 90t62 46t71 13
q52 0 91 -16t75 -38l118 -68q20 64 56 93t76 29q28 0 53 -16t25 -52q0 -38 -37 -78t-135 -58q-68 -70 -144 -143t-130 -131q76 -4 124 -4t96 -2q22 0 37 3t27 14t24 32t26 57z" />
    <glyph glyph-name="zeroinferior" unicode="&#x2080;" horiz-adv-x="816" 
d="M268 -184q46 0 81 50t59 127t36 167t12 168q0 86 -19 113t-53 27q-44 0 -79 -54t-60 -134t-38 -172t-13 -168q0 -72 18 -98t56 -26zM252 -282q-156 0 -225 80t-69 216q0 98 25 196t78 178t137 130t204 50q64 0 119 -16t94 -53t61 -96t22 -143t-24 -179t-78 -176
t-139 -134t-205 -53z" />
    <glyph glyph-name="oneinferior" unicode="&#x2081;" horiz-adv-x="602" 
d="M-74 -270l18 124l142 12l82 464q-16 -4 -42 -4t-53 2t-51 5t-36 7l24 116q96 -8 171 22t117 78h152l-124 -692l120 -10l-20 -124h-500z" />
    <glyph glyph-name="twoinferior" unicode="&#x2082;" horiz-adv-x="680" 
d="M-106 -270l26 150l154 138q122 110 180 195t58 163q0 60 -26 83t-70 23q-36 0 -59 -15t-9 -55h48q4 -62 -22 -102t-96 -40q-52 0 -77 29t-25 75q0 78 80 136t232 58q72 0 124 -16t85 -44t48 -65t15 -79q0 -66 -30 -117t-81 -95t-120 -86t-147 -88l-108 -64v-8h180
q86 0 119 25t51 69h96l-48 -270h-578z" />
    </font>
</defs>
</svg>
